{
copyright = "Copyright 2022 The Geom Project Thanos Poulakidas  (https://github.com/ThanosPoulakidas/Geom)";
familyName = Geom;
customParameters = (
{
name = glyphOrder;
value = (
.notdef,
NULL,
space,
uni000D,
exclam,
quotedbl,
numbersign,
dollar,
percent,
ampersand,
quotesingle,
parenleft,
parenright,
asterisk,
plus,
comma,
hyphen,
period,
slash,
zero,
one,
two,
three,
four,
five,
six,
seven,
eight,
nine,
colon,
semicolon,
less,
equal,
greater,
question,
at,
A,
B,
C,
D,
E,
F,
G,
H,
J,
K,
L,
M,
N,
O,
P,
Q,
R,
S,
T,
U,
V,
W,
X,
Y,
Z,
bracketleft,
backslash,
bracketright,
asciicircum,
underscore,
grave,
a,
b,
c,
d,
e,
f,
g,
h,
i,
j,
k,
l,
m,
n,
o,
p,
q,
r,
s,
t,
u,
v,
w,
x,
y,
z,
braceleft,
bar,
braceright,
asciitilde,
uni00A0,
exclamdown,
cent,
sterling,
currency,
yen,
brokenbar,
section,
dieresis,
copyright,
ordfeminine,
guillemotleft,
logicalnot,
uni00AD,
registered,
degree,
plusminus,
uni00B2,
uni00B3,
acute,
uni00B5,
paragraph,
periodcentered,
cedilla,
uni00B9,
ordmasculine,
guillemotright,
onequarter,
onehalf,
threequarters,
questiondown,
Agrave,
Aacute,
Acircumflex,
Atilde,
Adieresis,
Aring,
AE,
Egrave,
Eacute,
Ecircumflex,
Edieresis,
Eth,
Ntilde,
Ograve,
Oacute,
Ocircumflex,
Otilde,
Odieresis,
multiply,
Oslash,
Ugrave,
Uacute,
Ucircumflex,
Udieresis,
Yacute,
Thorn,
germandbls,
agrave,
aacute,
acircumflex,
atilde,
adieresis,
aring,
ae,
ccedilla,
egrave,
eacute,
ecircumflex,
edieresis,
igrave,
iacute,
idieresis,
eth,
ntilde,
ograve,
oacute,
ocircumflex,
otilde,
odieresis,
divide,
oslash,
ugrave,
uacute,
ucircumflex,
udieresis,
yacute,
thorn,
ydieresis,
Amacron,
amacron,
Abreve,
abreve,
Aogonek,
aogonek,
Cacute,
cacute,
Ccircumflex,
ccircumflex,
cdotaccent,
Ccaron,
ccaron,
Dcaron,
dcaron,
Dcroat,
dcroat,
Emacron,
emacron,
Ebreve,
ebreve,
Edotaccent,
edotaccent,
Eogonek,
eogonek,
Ecaron,
ecaron,
Gcircumflex,
gcircumflex,
Gbreve,
gbreve,
gdotaccent,
uni0123,
Hcircumflex,
hcircumflex,
itilde,
imacron,
ibreve,
iogonek,
dotlessi,
ij,
Jcircumflex,
jcircumflex,

glyphs = (
{
glyphname = .notdef;
layers = (
{
layerId = "6D82140E-0966-4184-BBA2-B1F9A77F6692";
paths = (
{
closed = 1;
nodes = (
"42 0 LINE",
"571 0 LINE",
"571 720 LINE",
"42 720 LINE"
);
},
{
closed = 1;
nodes = (
"307 421 LINE",
"144 663 LINE",
"468 663 LINE"
);
},
{
closed = 1;
nodes = (
"346 360 LINE",
"501 593 LINE",
"501 128 LINE"
);
},
{
closed = 1;
nodes = (
"144 57 LINE",
"307 300 LINE",
"468 57 LINE"
);
},
{
closed = 1;
nodes = (
"112 594 LINE",
"267 360 LINE",
"112 128 LINE"
);
}
);
width = 600;
},
{
layerId = "8ED872FE-1BCA-4686-B4C5-0573B67FF490";
paths = (
{
closed = 1;
nodes = (
"2 0 LINE",
"528 0 LINE",
"528 720 LINE",
"2 720 LINE"
);
},
{
closed = 1;
nodes = (
"265 419 LINE",
"100 663 LINE",
"429 663 LINE"
);
},
{
closed = 1;
nodes = (
"303 360 LINE",
"462 598 LINE",
"462 124 LINE"
);
},
{
closed = 1;
nodes = (
"100 57 LINE",
"265 303 LINE",
"429 57 LINE"
);
},
{
closed = 1;
nodes = (
"68 599 LINE",
"227 360 LINE",
"68 124 LINE"
);
}
);
width = 529;
},
{
layerId = "4375AB62-CFBC-411E-9D12-25ECC6BFDF4C";
paths = (
{
closed = 1;
nodes = (
"-6 0 LINE",
"519 0 LINE",
"519 720 LINE",
"-6 720 LINE"
);
},
{
closed = 1;
nodes = (
"256 419 LINE",
"91 663 LINE",
"421 663 LINE"
);
},
{
closed = 1;
nodes = (
"294 360 LINE",
"454 599 LINE",
"454 123 LINE"
);
},
{
closed = 1;
nodes = (
"91 57 LINE",
"256 303 LINE",
"421 57 LINE"
);
},
{
closed = 1;
nodes = (
"59 600 LINE",
"219 360 LINE",
"59 123 LINE"
);
}
);
width = 515;
}
);
},
{
glyphname = exclam;
layers = (
{
layerId = "6D82140E-0966-4184-BBA2-B1F9A77F6692";
paths = (
{
closed = 1;
nodes = (
"62 700 LINE",
"62 615 LINE",
"120 228 LINE",
"220 228 LINE",
"278 615 LINE",
"278 700 LINE"
);
},
{
closed = 1;
nodes = (
"62 36 OFFCURVE",
"124 -13 OFFCURVE",
"169 -13 QCURVE SMOOTH",
"214 -13 OFFCURVE",
"277 36 OFFCURVE",
"277 84 QCURVE SMOOTH",
"277 132 OFFCURVE",
"214 180 OFFCURVE",
"169 180 QCURVE SMOOTH",
"124 180 OFFCURVE",
"62 132 OFFCURVE",
"62 84 QCURVE SMOOTH"
);
}
);
width = 341;
},
{
layerId = "8ED872FE-1BCA-4686-B4C5-0573B67FF490";
paths = (
{
closed = 1;
nodes = (
"90 704 LINE",
"93 620 LINE",
"118 207 LINE",
"180 207 LINE",
"204 620 LINE",
"207 704 LINE"
);
},
{
closed = 1;
nodes = (
"81 25 OFFCURVE",
"121 -11 OFFCURVE",
"149 -11 QCURVE SMOOTH",
"178 -11 OFFCURVE",
"216 25 OFFCURVE",
"216 56 QCURVE SMOOTH",
"216 83 OFFCURVE",
"178 121 OFFCURVE",
"149 121 QCURVE SMOOTH",
"121 121 OFFCURVE",
"81 83 OFFCURVE",
"81 56 QCURVE SMOOTH"
);
}
);
width = 299;
},
{
layerId = "4375AB62-CFBC-411E-9D12-25ECC6BFDF4C";
paths = (
{
closed = 1;
nodes = (
"95 705 LINE",
"99 621 LINE",
"117 203 LINE",
"172 203 LINE",
"189 621 LINE",
"193 705 LINE"
);
},
{
closed = 1;
nodes = (
"85 23 OFFCURVE",
"120 -10 OFFCURVE",
"145 -10 QCURVE SMOOTH",
"170 -10 OFFCURVE",
"204 23 OFFCURVE",
"204 50 QCURVE SMOOTH",
"204 73 OFFCURVE",
"170 109 OFFCURVE",
"145 109 QCURVE SMOOTH",
"121 109 OFFCURVE",
"85 73 OFFCURVE",
"85 50 QCURVE SMOOTH"
);
}
);
width = 290;
}
);
unicode = 0021;
},
{
glyphname = quotedbl;
layers = (
{
layerId = "6D82140E-0966-4184-BBA2-B1F9A77F6692";
paths = (
{
closed = 1;
nodes = (
"188 341 LINE",
"315 697 LINE",
"315 699 LINE",
"315 700 LINE",
"111 700 LINE",
"89 341 LINE"
);
},
{
closed = 1;
nodes = (
"345 341 LINE",
"445 341 LINE",
"572 697 LINE",
"572 699 LINE",
"572 700 LINE",
"368 700 LINE"
);
}
);
width = 660;
},
{
layerId = "8ED872FE-1BCA-4686-B4C5-0573B67FF490";
paths = (
{
closed = 1;
nodes = (
"136 426 LINE",
"199 662 LINE",
"209 707 LINE",
"209 707 LINE",
"99 707 LINE",
"74 426 LINE"
);
},
{
closed = 1;
nodes = (
"266 426 LINE",
"328 426 LINE",
"391 662 LINE",
"401 707 LINE",
"401 707 LINE",
"291 707 LINE"
);
}
);
width = 474;
},
{
layerId = "4375AB62-CFBC-411E-9D12-25ECC6BFDF4C";
paths = (
{
closed = 1;
nodes = (
"126 443 LINE",
"176 655 LINE",
"188 708 LINE",
"188 708 LINE",
"97 708 LINE",
"71 443 LINE"
);
},
{
closed = 1;
nodes = (
"250 443 LINE",
"305 443 LINE",
"355 655 LINE",
"367 708 LINE",
"367 708 LINE",
"276 708 LINE"
);
}
);
width = 437;
}
);
unicode = 0022;
},
{
glyphname = numbersign;
layers = (
{
layerId = "6D82140E-0966-4184-BBA2-B1F9A77F6692";
paths = (
{
closed = 1;
nodes = (
"88 0 LINE",
"233 0 LINE",
"256 135 LINE",
"383 135 LINE",
"359 0 LINE",
"504 0 LINE",
"528 135 LINE",
"647 135 LINE",
"647 296 LINE",
"555 296 LINE",
"574 408 LINE",
"680 408 LINE",
"680 569 LINE",
"602 569 LINE",
"624 700 LINE",
"479 700 LINE",
"457 569 LINE",
"330 569 LINE",
"353 700 LINE",
"208 700 LINE",
"186 569 LINE",
"66 569 LINE",
"66 408 LINE",
"158 408 LINE",
"139 296 LINE",
"33 296 LINE",
"33 135 LINE",
"111 135 LINE"
);
},
{
closed = 1;
nodes = (
"433 412 LINE",
"413 292 LINE",
"279 292 LINE",
"300 412 LINE"
);
}
);
width = 712;
},
{
layerId = "8ED872FE-1BCA-4686-B4C5-0573B67FF490";
paths = (
{
closed = 1;
nodes = (
"96 0 LINE",
"181 0 LINE",
"209 184 LINE",
"366 184 LINE",
"339 0 LINE",
"424 0 LINE",
"451 184 LINE",
"569 184 LINE",
"569 271 LINE",
"465 271 LINE",
"492 440 LINE",
"602 440 LINE",
"602 527 LINE",
"506 527 LINE",
"532 705 LINE",
"447 705 LINE",
"421 527 LINE",
"264 527 LINE",
"291 705 LINE",
"206 705 LINE",
"179 527 LINE",
"58 527 LINE",
"58 440 LINE",
"166 440 LINE",
"139 271 LINE",
"25 271 LINE",
"25 185 LINE",
"125 185 LINE"
);
},
{
closed = 1;
nodes = (
"408 440 LINE",
"381 270 LINE",
"222 270 LINE",
"249 440 LINE"
);
}
);
width = 625;
},
{
layerId = "4375AB62-CFBC-411E-9D12-25ECC6BFDF4C";
paths = (
{
closed = 1;
nodes = (
"98 0 LINE",
"171 0 LINE",
"200 194 LINE",
"363 194 LINE",
"335 0 LINE",
"408 0 LINE",
"436 194 LINE",
"553 194 LINE",
"553 266 LINE",
"447 266 LINE",
"476 446 LINE",
"586 446 LINE",
"586 518 LINE",
"487 518 LINE",
"513 706 LINE",
"441 706 LINE",
"414 518 LINE",
"251 518 LINE",
"278 706 LINE",
"206 706 LINE",
"177 518 LINE",
"56 518 LINE",
"56 446 LINE",
"167 446 LINE",
"139 266 LINE",
"23 266 LINE",
"23 195 LINE",
"128 195 LINE"
);
},
{
closed = 1;
nodes = (
"403 446 LINE",
"374 266 LINE",
"211 266 LINE",
"239 446 LINE"
);
}
);
width = 608;
}
);
unicode = 0023;
},
{
glyphname = dollar;
layers = (
{
layerId = "6D82140E-0966-4184-BBA2-B1F9A77F6692";
paths = (
{
closed = 1;
nodes = (
"278 -98 LINE",
"382 -98 LINE",
"382 0 LINE",
"435 5 OFFCURVE",
"522 38 OFFCURVE",
"584 92 OFFCURVE",
"618 166 OFFCURVE",
"618 212 QCURVE SMOOTH",
"618 304 OFFCURVE",
"498 402 OFFCURVE",
"379 430 QCURVE",
"379 555 LINE",
"412 549 OFFCURVE",
"468 520 OFFCURVE",
"492 491 QCURVE",
"589 599 LINE",
"553 639 OFFCURVE",
"447 691 OFFCURVE",
"384 698 QCURVE",
"384 758 LINE",
"280 758 LINE",
"280 701 LINE",
"223 697 OFFCURVE",
"134 663 OFFCURVE",
"73 608 OFFCURVE",
"41 534 OFFCURVE",
"41 490 QCURVE SMOOTH",
"41 444 OFFCURVE",
"72 374 OFFCURVE",
"133 323 OFFCURVE",
"224 286 OFFCURVE",
"284 272 QCURVE",
"284 145 LINE",
"242 150 OFFCURVE",
"158 198 OFFCURVE",
"129 234 QCURVE",
"18 115 LINE",
"75 58 OFFCURVE",
"211 2 OFFCURVE",
"278 2 QCURVE"
);
},
{
closed = 1;
nodes = (
"445 179 OFFCURVE",
"413 150 OFFCURVE",
"378 146 QCURVE",
"378 256 LINE",
"398 250 OFFCURVE",
"423 237 OFFCURVE",
"439 223 OFFCURVE",
"445 208 OFFCURVE",
"445 199 QCURVE SMOOTH"
);
},
{
closed = 1;
nodes = (
"217 524 OFFCURVE",
"248 552 OFFCURVE",
"285 555 QCURVE",
"285 447 LINE",
"243 458 OFFCURVE",
"217 488 OFFCURVE",
"217 505 QCURVE SMOOTH"
);
}
);
width = 646;
},
{
layerId = "8ED872FE-1BCA-4686-B4C5-0573B67FF490";
paths = (
{
closed = 1;
nodes = (
"258 -96 LINE",
"330 -96 LINE",
"330 -3 LINE",
"375 2 OFFCURVE",
"451 35 OFFCURVE",
"505 86 OFFCURVE",
"536 155 OFFCURVE",
"536 195 QCURVE SMOOTH",
"536 268 OFFCURVE",
"435 361 OFFCURVE",
"328 396 QCURVE",
"328 624 LINE",
"364 620 OFFCURVE",
"424 585 OFFCURVE",
"443 559 QCURVE",
"502 620 LINE",
"478 651 OFFCURVE",
"396 703 OFFCURVE",
"330 709 QCURVE",
"330 774 LINE",
"258 774 LINE",
"258 709 LINE",
"215 705 OFFCURVE",
"141 674 OFFCURVE",
"87 625 OFFCURVE",
"57 559 OFFCURVE",
"57 519 QCURVE SMOOTH",
"57 480 OFFCURVE",
"84 418 OFFCURVE",
"136 368 OFFCURVE",
"211 330 OFFCURVE",
"259 314 QCURVE",
"259 78 LINE",
"205 82 OFFCURVE",
"119 131 OFFCURVE",
"87 165 QCURVE",
"29 101 LINE",
"71 56 OFFCURVE",
"186 -3 OFFCURVE",
"258 -3 QCURVE"
);
},
{
closed = 1;
nodes = (
"438 143 OFFCURVE",
"386 87 OFFCURVE",
"329 79 QCURVE",
"329 294 LINE",
"363 283 OFFCURVE",
"406 256 OFFCURVE",
"430 227 OFFCURVE",
"438 196 OFFCURVE",
"438 182 QCURVE SMOOTH"
);
},
{
closed = 1;
nodes = (
"155 568 OFFCURVE",
"207 621 OFFCURVE",
"259 626 QCURVE",
"259 418 LINE",
"209 439 OFFCURVE",
"155 488 OFFCURVE",
"155 529 QCURVE SMOOTH"
);
}
);
width = 578;
},
{
layerId = "4375AB62-CFBC-411E-9D12-25ECC6BFDF4C";
paths = (
{
closed = 1;
nodes = (
"254 -95 LINE",
"319 -95 LINE",
"319 -4 LINE",
"363 1 OFFCURVE",
"436 34 OFFCURVE",
"489 85 OFFCURVE",
"519 152 OFFCURVE",
"519 192 QCURVE SMOOTH",
"519 260 OFFCURVE",
"422 352 OFFCURVE",
"318 389 QCURVE",
"318 638 LINE",
"354 634 OFFCURVE",
"415 598 OFFCURVE",
"433 572 QCURVE",
"484 624 LINE",
"463 653 OFFCURVE",
"385 705 OFFCURVE",
"319 711 QCURVE",
"319 777 LINE",
"254 777 LINE",
"254 710 LINE",
"213 706 OFFCURVE",
"142 676 OFFCURVE",
"90 628 OFFCURVE",
"60 564 OFFCURVE",
"60 525 QCURVE SMOOTH",
"60 487 OFFCURVE",
"87 426 OFFCURVE",
"137 377 OFFCURVE",
"209 338 OFFCURVE",
"254 322 QCURVE",
"254 65 LINE",
"197 68 OFFCURVE",
"111 118 OFFCURVE",
"79 151 QCURVE",
"31 98 LINE",
"69 56 OFFCURVE",
"182 -4 OFFCURVE",
"254 -4 QCURVE"
);
},
{
closed = 1;
nodes = (
"437 136 OFFCURVE",
"380 75 OFFCURVE",
"319 66 QCURVE",
"319 302 LINE",
"356 290 OFFCURVE",
"402 260 OFFCURVE",
"428 227 OFFCURVE",
"437 194 OFFCURVE",
"437 179 QCURVE SMOOTH"
);
},
{
closed = 1;
nodes = (
"142 577 OFFCURVE",
"199 634 OFFCURVE",
"254 640 QCURVE",
"254 412 LINE",
"203 435 OFFCURVE",
"142 488 OFFCURVE",
"142 534 QCURVE SMOOTH"
);
}
);
width = 564;
}
);
unicode = 0024;
},
{
glyphname = percent;
layers = (
{
layerId = "6D82140E-0966-4184-BBA2-B1F9A77F6692";
paths = (
{
closed = 1;
nodes = (
"399 561 OFFCURVE",
"373 629 OFFCURVE",
"326 680 OFFCURVE",
"260 710 OFFCURVE",
"219 710 QCURVE SMOOTH",
"178 710 OFFCURVE",
"111 680 OFFCURVE",
"64 629 OFFCURVE",
"38 561 OFFCURVE",
"38 522 QCURVE SMOOTH",
"38 483 OFFCURVE",
"64 415 OFFCURVE",
"111 363 OFFCURVE",
"178 333 OFFCURVE",
"218 333 QCURVE SMOOTH",
"259 333 OFFCURVE",
"325 363 OFFCURVE",
"373 415 OFFCURVE",
"399 484 OFFCURVE",
"399 523 QCURVE SMOOTH"
);
},
{
closed = 1;
nodes = (
"277 489 OFFCURVE",
"245 443 OFFCURVE",
"219 443 QCURVE SMOOTH",
"194 443 OFFCURVE",
"160 489 OFFCURVE",
"160 523 QCURVE SMOOTH",
"160 556 OFFCURVE",
"192 600 OFFCURVE",
"218 600 QCURVE SMOOTH",
"244 600 OFFCURVE",
"277 555 OFFCURVE",
"277 522 QCURVE SMOOTH"
);
},
{
closed = 1;
nodes = (
"867 219 OFFCURVE",
"841 287 OFFCURVE",
"794 338 OFFCURVE",
"728 367 OFFCURVE",
"687 367 QCURVE SMOOTH",
"646 367 OFFCURVE",
"579 337 OFFCURVE",
"532 286 OFFCURVE",
"506 218 OFFCURVE",
"506 179 QCURVE SMOOTH",
"506 141 OFFCURVE",
"532 72 OFFCURVE",
"579 20 OFFCURVE",
"646 -10 OFFCURVE",
"687 -10 QCURVE SMOOTH",
"728 -10 OFFCURVE",
"793 21 OFFCURVE",
"841 73 OFFCURVE",
"867 142 OFFCURVE",
"867 180 QCURVE SMOOTH"
);
},
{
closed = 1;
nodes = (
"745 146 OFFCURVE",
"713 100 OFFCURVE",
"686 100 QCURVE SMOOTH",
"662 100 OFFCURVE",
"628 147 OFFCURVE",
"628 180 QCURVE SMOOTH",
"628 214 OFFCURVE",
"659 257 OFFCURVE",
"686 257 QCURVE SMOOTH",
"712 257 OFFCURVE",
"745 213 OFFCURVE",
"745 179 QCURVE SMOOTH"
);
},
{
closed = 1;
nodes = (
"790 700 LINE",
"655 700 LINE",
"115 0 LINE",
"250 0 LINE"
);
}
);
width = 904;
},
{
layerId = "8ED872FE-1BCA-4686-B4C5-0573B67FF490";
paths = (
{
closed = 1;
nodes = (
"379 579 OFFCURVE",
"355 644 OFFCURVE",
"312 693 OFFCURVE",
"250 721 OFFCURVE",
"212 721 QCURVE SMOOTH",
"175 721 OFFCURVE",
"113 693 OFFCURVE",
"68 643 OFFCURVE",
"43 578 OFFCURVE",
"43 540 QCURVE SMOOTH",
"43 501 OFFCURVE",
"67 434 OFFCURVE",
"112 385 OFFCURVE",
"174 356 OFFCURVE",
"211 356 QCURVE SMOOTH",
"249 356 OFFCURVE",
"310 385 OFFCURVE",
"355 435 OFFCURVE",
"379 503 OFFCURVE",
"379 541 QCURVE SMOOTH"
);
},
{
closed = 1;
nodes = (
"303 488 OFFCURVE",
"256 425 OFFCURVE",
"212 425 QCURVE SMOOTH",
"170 425 OFFCURVE",
"119 488 OFFCURVE",
"119 540 QCURVE SMOOTH",
"119 589 OFFCURVE",
"169 653 OFFCURVE",
"211 653 QCURVE SMOOTH",
"250 653 OFFCURVE",
"303 590 OFFCURVE",
"303 536 QCURVE SMOOTH"
);
},
{
closed = 1;
nodes = (
"806 209 OFFCURVE",
"782 275 OFFCURVE",
"738 323 OFFCURVE",
"677 351 OFFCURVE",
"639 351 QCURVE SMOOTH",
"602 351 OFFCURVE",
"541 323 OFFCURVE",
"496 274 OFFCURVE",
"471 208 OFFCURVE",
"471 170 QCURVE SMOOTH",
"471 133 OFFCURVE",
"495 67 OFFCURVE",
"538 17 OFFCURVE",
"600 -11 OFFCURVE",
"638 -11 QCURVE SMOOTH",
"676 -11 OFFCURVE",
"737 18 OFFCURVE",
"782 67 OFFCURVE",
"806 134 OFFCURVE",
"806 171 QCURVE SMOOTH"
);
},
{
closed = 1;
nodes = (
"730 122 OFFCURVE",
"681 58 OFFCURVE",
"639 58 QCURVE SMOOTH",
"600 58 OFFCURVE",
"547 117 OFFCURVE",
"547 170 QCURVE SMOOTH",
"547 221 OFFCURVE",
"596 283 OFFCURVE",
"638 283 QCURVE SMOOTH",
"680 283 OFFCURVE",
"730 221 OFFCURVE",
"730 170 QCURVE SMOOTH"
);
},
{
closed = 1;
nodes = (
"707 708 LINE",
"629 719 LINE",
"138 -3 LINE",
"215 -16 LINE"
);
}
);
width = 849;
},
{
layerId = "4375AB62-CFBC-411E-9D12-25ECC6BFDF4C";
paths = (
{
closed = 1;
nodes = (
"375 582 OFFCURVE",
"352 647 OFFCURVE",
"308 695 OFFCURVE",
"248 723 OFFCURVE",
"210 723 QCURVE SMOOTH",
"174 723 OFFCURVE",
"113 695 OFFCURVE",
"69 646 OFFCURVE",
"44 581 OFFCURVE",
"44 543 QCURVE SMOOTH",
"44 505 OFFCURVE",
"68 438 OFFCURVE",
"112 389 OFFCURVE",
"172 361 OFFCURVE",
"209 361 QCURVE SMOOTH",
"246 361 OFFCURVE",
"307 390 OFFCURVE",
"351 439 OFFCURVE",
"375 506 OFFCURVE",
"375 544 QCURVE SMOOTH"
);
},
{
closed = 1;
nodes = (
"308 488 OFFCURVE",
"257 421 OFFCURVE",
"210 421 QCURVE SMOOTH",
"165 421 OFFCURVE",
"111 488 OFFCURVE",
"111 543 QCURVE SMOOTH",
"111 595 OFFCURVE",
"164 663 OFFCURVE",
"209 663 QCURVE SMOOTH",
"251 663 OFFCURVE",
"308 596 OFFCURVE",
"308 539 QCURVE SMOOTH"
);
},
{
closed = 1;
nodes = (
"794 207 OFFCURVE",
"770 272 OFFCURVE",
"727 320 OFFCURVE",
"666 348 OFFCURVE",
"629 348 QCURVE SMOOTH",
"593 348 OFFCURVE",
"533 320 OFFCURVE",
"489 272 OFFCURVE",
"464 206 OFFCURVE",
"464 168 QCURVE SMOOTH",
"464 131 OFFCURVE",
"487 66 OFFCURVE",
"530 17 OFFCURVE",
"591 -11 OFFCURVE",
"628 -11 QCURVE SMOOTH",
"665 -11 OFFCURVE",
"726 17 OFFCURVE",
"770 66 OFFCURVE",
"794 132 OFFCURVE",
"794 169 QCURVE SMOOTH"
);
},
{
closed = 1;
nodes = (
"727 117 OFFCURVE",
"675 49 OFFCURVE",
"629 49 QCURVE SMOOTH",
"587 49 OFFCURVE",
"531 112 OFFCURVE",
"531 168 QCURVE SMOOTH",
"531 222 OFFCURVE",
"583 288 OFFCURVE",
"628 288 QCURVE SMOOTH",
"673 288 OFFCURVE",
"727 222 OFFCURVE",
"727 168 QCURVE SMOOTH"
);
},
{
closed = 1;
nodes = (
"690 709 LINE",
"624 723 LINE",
"142 -4 LINE",
"208 -19 LINE"
);
}
);
width = 838;
}
);
unicode = 0025;
},
{
glyphname = ampersand;
layers = (
{
layerId = "6D82140E-0966-4184-BBA2-B1F9A77F6692";
paths = (
{
closed = 1;
nodes = (
"401 161 LINE",
"381 147 OFFCURVE",
"339 131 OFFCURVE",
"318 131 QCURVE SMOOTH",
"300 131 OFFCURVE",
"270 141 OFFCURVE",
"248 159 OFFCURVE",
"236 185 OFFCURVE",
"236 200 QCURVE SMOOTH",
"236 223 OFFCURVE",
"260 262 OFFCURVE",
"286 278 QCURVE"
);
},
{
closed = 1;
nodes = (
"573 385 LINE",
"557 355 OFFCURVE",
"524 299 OFFCURVE",
"507 274 QCURVE",
"429 355 LINE",
"491 384 OFFCURVE",
"566 473 OFFCURVE",
"566 537 QCURVE SMOOTH",
"566 576 OFFCURVE",
"537 643 OFFCURVE",
"483 691 OFFCURVE",
"406 719 OFFCURVE",
"358 719 QCURVE SMOOTH",
"307 719 OFFCURVE",
"225 688 OFFCURVE",
"168 636 OFFCURVE",
"138 567 OFFCURVE",
"138 529 QCURVE SMOOTH",
"138 494 OFFCURVE",
"160 423 OFFCURVE",
"184 388 QCURVE",
"112 356 OFFCURVE",
"42 258 OFFCURVE",
"42 192 QCURVE SMOOTH",
"42 144 OFFCURVE",
"80 68 OFFCURVE",
"147 15 OFFCURVE",
"238 -12 OFFCURVE",
"292 -12 QCURVE SMOOTH",
"353 -12 OFFCURVE",
"455 25 OFFCURVE",
"500 59 QCURVE",
"560 -5 LINE",
"735 34 LINE",
"609 173 LINE",
"634 207 OFFCURVE",
"686 301 OFFCURVE",
"708 341 QCURVE"
);
},
{
closed = 1;
nodes = (
"382 586 OFFCURVE",
"412 556 OFFCURVE",
"412 530 QCURVE SMOOTH",
"412 504 OFFCURVE",
"376 461 OFFCURVE",
"338 442 QCURVE",
"320 465 OFFCURVE",
"302 502 OFFCURVE",
"302 522 QCURVE SMOOTH",
"302 551 OFFCURVE",
"333 586 OFFCURVE",
"358 586 QCURVE SMOOTH"
);
}
);
width = 748;
},
{
layerId = "8ED872FE-1BCA-4686-B4C5-0573B67FF490";
paths = (
{
closed = 1;
nodes = (
"438 152 LINE",
"407 117 OFFCURVE",
"334 69 OFFCURVE",
"288 69 QCURVE SMOOTH",
"259 69 OFFCURVE",
"211 89 OFFCURVE",
"177 124 OFFCURVE",
"158 170 OFFCURVE",
"158 197 QCURVE SMOOTH",
"158 246 OFFCURVE",
"216 315 OFFCURVE",
"270 340 QCURVE"
);
},
{
closed = 1;
nodes = (
"579 373 LINE",
"561 333 OFFCURVE",
"522 263 OFFCURVE",
"499 227 QCURVE",
"357 383 LINE",
"426 412 OFFCURVE",
"511 497 OFFCURVE",
"511 563 QCURVE SMOOTH",
"511 595 OFFCURVE",
"485 652 OFFCURVE",
"439 694 OFFCURVE",
"374 719 OFFCURVE",
"335 719 QCURVE SMOOTH",
"295 719 OFFCURVE",
"228 695 OFFCURVE",
"180 652 OFFCURVE",
"153 592 OFFCURVE",
"153 556 QCURVE SMOOTH",
"153 514 OFFCURVE",
"189 441 OFFCURVE",
"218 403 QCURVE",
"139 373 OFFCURVE",
"53 268 OFFCURVE",
"53 192 QCURVE SMOOTH",
"53 145 OFFCURVE",
"88 70 OFFCURVE",
"149 17 OFFCURVE",
"232 -11 OFFCURVE",
"280 -11 QCURVE SMOOTH",
"346 -11 OFFCURVE",
"448 40 OFFCURVE",
"494 86 QCURVE",
"582 -5 LINE",
"688 16 LINE",
"556 161 LINE",
"585 203 OFFCURVE",
"639 297 OFFCURVE",
"662 346 QCURVE"
);
},
{
closed = 1;
nodes = (
"370 640 OFFCURVE",
"419 596 OFFCURVE",
"419 558 QCURVE SMOOTH",
"419 519 OFFCURVE",
"356 458 OFFCURVE",
"307 439 QCURVE",
"279 472 OFFCURVE",
"247 527 OFFCURVE",
"247 555 QCURVE SMOOTH",
"247 593 OFFCURVE",
"296 640 OFFCURVE",
"334 640 QCURVE SMOOTH"
);
}
);
width = 695;
},
{
layerId = "4375AB62-CFBC-411E-9D12-25ECC6BFDF4C";
paths = (
{
closed = 1;
nodes = (
"445 150 LINE",
"413 110 OFFCURVE",
"333 57 OFFCURVE",
"282 57 QCURVE SMOOTH",
"251 57 OFFCURVE",
"199 79 OFFCURVE",
"162 116 OFFCURVE",
"142 167 OFFCURVE",
"142 196 QCURVE SMOOTH",
"142 250 OFFCURVE",
"207 326 OFFCURVE",
"267 352 QCURVE"
);
},
{
closed = 1;
nodes = (
"580 371 LINE",
"562 329 OFFCURVE",
"522 255 OFFCURVE",
"497 217 QCURVE",
"343 388 LINE",
"413 417 OFFCURVE",
"500 501 OFFCURVE",
"500 568 QCURVE SMOOTH",
"500 599 OFFCURVE",
"475 654 OFFCURVE",
"430 695 OFFCURVE",
"368 719 OFFCURVE",
"330 719 QCURVE SMOOTH",
"293 719 OFFCURVE",
"229 696 OFFCURVE",
"183 655 OFFCURVE",
"156 597 OFFCURVE",
"156 561 QCURVE SMOOTH",
"156 519 OFFCURVE",
"194 444 OFFCURVE",
"225 406 QCURVE",
"144 376 OFFCURVE",
"55 270 OFFCURVE",
"55 192 QCURVE SMOOTH",
"55 146 OFFCURVE",
"89 70 OFFCURVE",
"149 18 OFFCURVE",
"230 -11 OFFCURVE",
"277 -11 QCURVE SMOOTH",
"344 -11 OFFCURVE",
"447 43 OFFCURVE",
"493 91 QCURVE",
"586 -5 LINE",
"678 12 LINE",
"545 158 LINE",
"575 203 OFFCURVE",
"629 296 OFFCURVE",
"653 347 QCURVE"
);
},
{
closed = 1;
nodes = (
"367 651 OFFCURVE",
"420 603 OFFCURVE",
"420 563 QCURVE SMOOTH",
"420 521 OFFCURVE",
"352 457 OFFCURVE",
"301 438 QCURVE",
"271 473 OFFCURVE",
"236 533 OFFCURVE",
"236 562 QCURVE SMOOTH",
"236 602 OFFCURVE",
"289 651 OFFCURVE",
"329 651 QCURVE SMOOTH"
);
}
);
width = 684;
}
);
unicode = 0026;
},
{
glyphname = quotesingle;
layers = (
{
layerId = "6D82140E-0966-4184-BBA2-B1F9A77F6692";
paths = (
{
closed = 1;
nodes = (
"89 341 LINE",
"192 341 LINE",
"319 697 LINE",
"319 699 LINE",
"319 700 LINE",
"111 700 LINE"
);
}
);
width = 408;
},
{
layerId = "8ED872FE-1BCA-4686-B4C5-0573B67FF490";
paths = (
{
closed = 1;
nodes = (
"74 426 LINE",
"137 426 LINE",
"200 662 LINE",
"210 707 LINE",
"210 707 LINE",
"99 707 LINE"
);
}
);
width = 284;
},
{
layerId = "4375AB62-CFBC-411E-9D12-25ECC6BFDF4C";
paths = (
{
closed = 1;
nodes = (
"71 443 LINE",
"126 443 LINE",
"176 655 LINE",
"188 708 LINE",
"188 708 LINE",
"96 708 LINE"
);
}
);
width = 259;
}
);
unicode = 0027;
},
{
glyphname = parenleft;
layers = (
{
layerId = "6D82140E-0966-4184-BBA2-B1F9A77F6692";
paths = (
{
closed = 1;
nodes = (
"256 385 OFFCURVE",
"344 530 OFFCURVE",
"441 597 QCURVE",
"346 706 LINE",
"284 671 OFFCURVE",
"182 589 OFFCURVE",
"110 487 OFFCURVE",
"70 364 OFFCURVE",
"70 287 QCURVE SMOOTH",
"70 211 OFFCURVE",
"107 86 OFFCURVE",
"177 -16 OFFCURVE",
"278 -97 OFFCURVE",
"342 -130 QCURVE",
"441 -23 LINE",
"344 44 OFFCURVE",
"256 189 OFFCURVE",
"256 287 QCURVE SMOOTH"
);
}
);
width = 474;
},
{
layerId = "8ED872FE-1BCA-4686-B4C5-0573B67FF490";
paths = (
{
closed = 1;
nodes = (
"174 401 OFFCURVE",
"267 585 OFFCURVE",
"361 671 QCURVE",
"309 732 LINE",
"253 686 OFFCURVE",
"166 587 OFFCURVE",
"106 477 OFFCURVE",
"75 354 OFFCURVE",
"75 285 QCURVE SMOOTH",
"75 215 OFFCURVE",
"107 90 OFFCURVE",
"168 -21 OFFCURVE",
"255 -117 OFFCURVE",
"310 -158 QCURVE",
"360 -99 LINE",
"266 -12 OFFCURVE",
"174 170 OFFCURVE",
"174 285 QCURVE SMOOTH"
);
}
);
width = 409;
},
{
layerId = "4375AB62-CFBC-411E-9D12-25ECC6BFDF4C";
paths = (
{
closed = 1;
nodes = (
"158 403 OFFCURVE",
"251 595 OFFCURVE",
"345 686 QCURVE",
"301 737 LINE",
"246 689 OFFCURVE",
"162 586 OFFCURVE",
"105 474 OFFCURVE",
"76 352 OFFCURVE",
"76 284 QCURVE SMOOTH",
"76 215 OFFCURVE",
"107 91 OFFCURVE",
"166 -22 OFFCURVE",
"250 -121 OFFCURVE",
"303 -164 QCURVE",
"344 -114 LINE",
"250 -23 OFFCURVE",
"158 166 OFFCURVE",
"158 284 QCURVE SMOOTH"
);
}
);
width = 396;
}
);
unicode = 0028;
},
{
glyphname = parenright;
layers = (
{
layerId = "6D82140E-0966-4184-BBA2-B1F9A77F6692";
paths = (
{
closed = 1;
nodes = (
"219 189 OFFCURVE",
"131 44 OFFCURVE",
"34 -23 QCURVE",
"133 -130 LINE",
"199 -96 OFFCURVE",
"300 -15 OFFCURVE",
"369 87 OFFCURVE",
"405 211 OFFCURVE",
"405 287 QCURVE SMOOTH",
"405 363 OFFCURVE",
"368 486 OFFCURVE",
"297 588 OFFCURVE",
"195 671 OFFCURVE",
"129 706 QCURVE",
"34 597 LINE",
"131 530 OFFCURVE",
"219 385 OFFCURVE",
"219 287 QCURVE SMOOTH"
);
}
);
width = 474;
},
{
layerId = "8ED872FE-1BCA-4686-B4C5-0573B67FF490";
paths = (
{
closed = 1;
nodes = (
"237 173 OFFCURVE",
"147 -12 OFFCURVE",
"49 -99 QCURVE",
"101 -158 LINE",
"157 -115 OFFCURVE",
"244 -18 OFFCURVE",
"304 92 OFFCURVE",
"336 216 OFFCURVE",
"336 285 QCURVE SMOOTH",
"336 353 OFFCURVE",
"305 475 OFFCURVE",
"246 585 OFFCURVE",
"159 685 OFFCURVE",
"102 732 QCURVE",
"48 671 LINE",
"148 585 OFFCURVE",
"237 398 OFFCURVE",
"237 285 QCURVE SMOOTH"
);
}
);
width = 411;
},
{
layerId = "4375AB62-CFBC-411E-9D12-25ECC6BFDF4C";
paths = (
{
closed = 1;
nodes = (
"240 169 OFFCURVE",
"150 -23 OFFCURVE",
"52 -114 QCURVE",
"95 -164 LINE",
"148 -119 OFFCURVE",
"233 -18 OFFCURVE",
"291 93 OFFCURVE",
"322 216 OFFCURVE",
"322 284 QCURVE SMOOTH",
"322 351 OFFCURVE",
"293 472 OFFCURVE",
"236 584 OFFCURVE",
"151 688 OFFCURVE",
"96 737 QCURVE",
"51 686 LINE",
"151 595 OFFCURVE",
"240 400 OFFCURVE",
"240 284 QCURVE SMOOTH"
);
}
);
width = 398;
}
);
unicode = 0029;
},
{
glyphname = asterisk;
layers = (
{
layerId = "6D82140E-0966-4184-BBA2-B1F9A77F6692";
paths = (
{
closed = 1;
nodes = (
"144 554 LINE",
"18 510 LINE",
"42 435 LINE",
"169 478 LINE",
"169 340 LINE",
"251 340 LINE",
"251 476 LINE",
"375 435 LINE",
"400 510 LINE",
"277 552 LINE",
"352 663 LINE",
"286 710 LINE",
"209 602 LINE",
"132 710 LINE",
"66 663 LINE"
);
}
);
width = 417;
},
{
layerId = "8ED872FE-1BCA-4686-B4C5-0573B67FF490";
paths = (
{
closed = 1;
nodes = (
"131 599 LINE",
"26 563 LINE",
"47 502 LINE",
"151 537 LINE",
"151 423 LINE",
"215 423 LINE",
"215 536 LINE",
"318 502 LINE",
"338 563 LINE",
"236 598 LINE",
"300 688 LINE",
"247 723 LINE",
"183 637 LINE",
"118 723 LINE",
"65 686 LINE"
);
}
);
width = 364;
},
{
layerId = "4375AB62-CFBC-411E-9D12-25ECC6BFDF4C";
paths = (
{
closed = 1;
nodes = (
"128 608 LINE",
"28 573 LINE",
"48 515 LINE",
"147 549 LINE",
"147 440 LINE",
"208 440 LINE",
"208 548 LINE",
"306 515 LINE",
"325 573 LINE",
"228 607 LINE",
"289 693 LINE",
"239 725 LINE",
"178 644 LINE",
"115 725 LINE",
"65 690 LINE"
);
}
);
width = 353;
}
);
unicode = 002A;
},
{
glyphname = plus;
layers = (
{
layerId = "6D82140E-0966-4184-BBA2-B1F9A77F6692";
paths = (
{
closed = 1;
nodes = (
"424 608 LINE",
"250 608 LINE",
"250 436 LINE",
"81 436 LINE",
"81 268 LINE",
"250 268 LINE",
"250 96 LINE",
"424 96 LINE",
"424 268 LINE",
"593 268 LINE",
"593 436 LINE",
"424 436 LINE"
);
}
);
width = 674;
},
{
layerId = "8ED872FE-1BCA-4686-B4C5-0573B67FF490";
paths = (
{
closed = 1;
nodes = (
"346 592 LINE",
"253 592 LINE",
"253 391 LINE",
"53 391 LINE",
"53 301 LINE",
"253 301 LINE",
"253 99 LINE",
"346 99 LINE",
"346 301 LINE",
"547 301 LINE",
"547 391 LINE",
"346 391 LINE"
);
}
);
width = 600;
},
{
layerId = "4375AB62-CFBC-411E-9D12-25ECC6BFDF4C";
paths = (
{
closed = 1;
nodes = (
"330 589 LINE",
"253 589 LINE",
"253 382 LINE",
"47 382 LINE",
"47 308 LINE",
"253 308 LINE",
"253 100 LINE",
"330 100 LINE",
"330 308 LINE",
"538 308 LINE",
"538 382 LINE",
"330 382 LINE"
);
}
);
width = 585;
}
);
unicode = 002B;
},
{
glyphname = comma;
layers = (
{
layerId = "6D82140E-0966-4184-BBA2-B1F9A77F6692";
paths = (
{
closed = 1;
nodes = (
"240 197 LINE",
"69 197 LINE",
"7 -164 LINE",
"137 -164 LINE"
);
}
);
width = 280;
},
{
layerId = "8ED872FE-1BCA-4686-B4C5-0573B67FF490";
paths = (
{
closed = 1;
nodes = (
"188 133 LINE",
"77 133 LINE",
"30 -143 LINE",
"110 -143 LINE"
);
}
);
width = 257;
},
{
layerId = "4375AB62-CFBC-411E-9D12-25ECC6BFDF4C";
paths = (
{
closed = 1;
nodes = (
"178 120 LINE",
"79 120 LINE",
"35 -139 LINE",
"104 -139 LINE"
);
}
);
width = 252;
}
);
unicode = 002C;
},
{
glyphname = hyphen;
layers = (
{
layerId = "6D82140E-0966-4184-BBA2-B1F9A77F6692";
paths = (
{
closed = 1;
nodes = (
"350 356 LINE",
"22 356 LINE",
"22 189 LINE",
"350 189 LINE"
);
}
);
width = 371;
},
{
layerId = "8ED872FE-1BCA-4686-B4C5-0573B67FF490";
paths = (
{
closed = 1;
nodes = (
"310 319 LINE",
"30 319 LINE",
"30 227 LINE",
"310 227 LINE"
);
}
);
width = 339;
},
{
layerId = "4375AB62-CFBC-411E-9D12-25ECC6BFDF4C";
paths = (
{
closed = 1;
nodes = (
"302 311 LINE",
"31 311 LINE",
"31 234 LINE",
"302 234 LINE"
);
}
);
width = 333;
}
);
unicode = 002D;
},
{
glyphname = period;
layers = (
{
layerId = "6D82140E-0966-4184-BBA2-B1F9A77F6692";
paths = (
{
closed = 1;
nodes = (
"62 43 OFFCURVE",
"126 -13 OFFCURVE",
"174 -13 QCURVE SMOOTH",
"222 -13 OFFCURVE",
"287 43 OFFCURVE",
"287 97 QCURVE SMOOTH",
"287 151 OFFCURVE",
"222 206 OFFCURVE",
"174 206 QCURVE SMOOTH",
"126 206 OFFCURVE",
"62 151 OFFCURVE",
"62 97 QCURVE SMOOTH"
);
}
);
width = 350;
},
{
layerId = "8ED872FE-1BCA-4686-B4C5-0573B67FF490";
paths = (
{
closed = 1;
nodes = (
"81 29 OFFCURVE",
"121 -11 OFFCURVE",
"150 -11 QCURVE SMOOTH",
"178 -11 OFFCURVE",
"218 29 OFFCURVE",
"218 58 QCURVE SMOOTH",
"218 87 OFFCURVE",
"178 126 OFFCURVE",
"150 126 QCURVE SMOOTH",
"121 126 OFFCURVE",
"81 87 OFFCURVE",
"81 58 QCURVE SMOOTH"
);
}
);
width = 300;
},
{
layerId = "4375AB62-CFBC-411E-9D12-25ECC6BFDF4C";
paths = (
{
closed = 1;
nodes = (
"85 26 OFFCURVE",
"120 -10 OFFCURVE",
"145 -10 QCURVE SMOOTH",
"169 -10 OFFCURVE",
"204 26 OFFCURVE",
"204 51 QCURVE SMOOTH",
"204 75 OFFCURVE",
"169 110 OFFCURVE",
"145 110 QCURVE SMOOTH",
"120 110 OFFCURVE",
"85 75 OFFCURVE",
"85 51 QCURVE SMOOTH"
);
}
);
width = 290;
}
);
unicode = 002E;
},
{
glyphname = slash;
layers = (
{
layerId = "6D82140E-0966-4184-BBA2-B1F9A77F6692";
paths = (
{
closed = 1;
nodes = (
"596 798 LINE",
"442 798 LINE",
"-1 -128 LINE",
"153 -128 LINE"
);
}
);
width = 595;
},
{
layerId = "8ED872FE-1BCA-4686-B4C5-0573B67FF490";
paths = (
{
closed = 1;
nodes = (
"516 773 LINE",
"433 786 LINE",
"2 -86 LINE",
"84 -96 LINE"
);
}
);
width = 518;
},
{
layerId = "4375AB62-CFBC-411E-9D12-25ECC6BFDF4C";
paths = (
{
closed = 1;
nodes = (
"500 768 LINE",
"431 783 LINE",
"2 -77 LINE",
"70 -90 LINE"
);
}
);
width = 502;
}
);
unicode = 002F;
},
{
glyphname = zero;
layers = (
{
layerId = "6D82140E-0966-4184-BBA2-B1F9A77F6692";
paths = (
{
closed = 1;
nodes = (
"390 542 OFFCURVE",
"438 513 OFFCURVE",
"472 462 OFFCURVE",
"491 392 OFFCURVE",
"491 350 QCURVE SMOOTH",
"491 308 OFFCURVE",
"473 238 OFFCURVE",
"440 187 OFFCURVE",
"392 158 OFFCURVE",
"363 158 QCURVE SMOOTH",
"334 158 OFFCURVE",
"286 187 OFFCURVE",
"252 239 OFFCURVE",
"233 310 OFFCURVE",
"233 352 QCURVE SMOOTH",
"233 394 OFFCURVE",
"251 464 OFFCURVE",
"285 514 OFFCURVE",
"332 542 OFFCURVE",
"361 542 QCURVE SMOOTH"
);
},
{
closed = 1;
nodes = (
"288 714 OFFCURVE",
"168 656 OFFCURVE",
"84 557 OFFCURVE",
"38 424 OFFCURVE",
"38 350 QCURVE SMOOTH",
"38 276 OFFCURVE",
"83 143 OFFCURVE",
"166 44 OFFCURVE",
"286 -14 OFFCURVE",
"361 -14 QCURVE SMOOTH",
"436 -14 OFFCURVE",
"556 45 OFFCURVE",
"641 145 OFFCURVE",
"686 278 OFFCURVE",
"686 352 QCURVE SMOOTH",
"686 426 OFFCURVE",
"641 558 OFFCURVE",
"557 657 OFFCURVE",
"438 714 OFFCURVE",
"363 714 QCURVE SMOOTH"
);
}
);
width = 723;
},
{
layerId = "8ED872FE-1BCA-4686-B4C5-0573B67FF490";
paths = (
{
closed = 1;
nodes = (
"359 626 OFFCURVE",
"422 586 OFFCURVE",
"466 514 OFFCURVE",
"489 413 OFFCURVE",
"489 352 QCURVE SMOOTH",
"489 292 OFFCURVE",
"467 192 OFFCURVE",
"423 119 OFFCURVE",
"361 78 OFFCURVE",
"320 78 QCURVE SMOOTH",
"278 78 OFFCURVE",
"214 118 OFFCURVE",
"171 190 OFFCURVE",
"148 293 OFFCURVE",
"148 356 QCURVE SMOOTH",
"148 415 OFFCURVE",
"171 514 OFFCURVE",
"214 586 OFFCURVE",
"278 626 OFFCURVE",
"318 626 QCURVE SMOOTH"
);
},
{
closed = 1;
nodes = (
"252 718 OFFCURVE",
"149 663 OFFCURVE",
"79 566 OFFCURVE",
"43 432 OFFCURVE",
"43 353 QCURVE SMOOTH",
"43 271 OFFCURVE",
"79 136 OFFCURVE",
"149 39 OFFCURVE",
"251 -14 OFFCURVE",
"318 -14 QCURVE SMOOTH",
"386 -14 OFFCURVE",
"489 41 OFFCURVE",
"558 139 OFFCURVE",
"594 273 OFFCURVE",
"594 352 QCURVE SMOOTH",
"594 433 OFFCURVE",
"558 568 OFFCURVE",
"488 664 OFFCURVE",
"385 718 OFFCURVE",
"319 718 QCURVE SMOOTH"
);
}
);
width = 636;
},
{
layerId = "4375AB62-CFBC-411E-9D12-25ECC6BFDF4C";
paths = (
{
closed = 1;
nodes = (
"352 640 OFFCURVE",
"419 600 OFFCURVE",
"465 524 OFFCURVE",
"489 417 OFFCURVE",
"489 352 QCURVE SMOOTH",
"489 289 OFFCURVE",
"465 183 OFFCURVE",
"420 105 OFFCURVE",
"354 62 OFFCURVE",
"311 62 QCURVE SMOOTH",
"267 62 OFFCURVE",
"200 104 OFFCURVE",
"154 181 OFFCURVE",
"131 290 OFFCURVE",
"131 357 QCURVE SMOOTH",
"131 419 OFFCURVE",
"155 524 OFFCURVE",
"200 600 OFFCURVE",
"266 643 OFFCURVE",
"309 640 QCURVE"
);
},
{
closed = 1;
nodes = (
"245 719 OFFCURVE",
"145 665 OFFCURVE",
"78 568 OFFCURVE",
"44 434 OFFCURVE",
"44 354 QCURVE SMOOTH",
"44 270 OFFCURVE",
"78 134 OFFCURVE",
"145 38 OFFCURVE",
"244 -14 OFFCURVE",
"309 -14 QCURVE SMOOTH",
"375 -14 OFFCURVE",
"475 40 OFFCURVE",
"542 138 OFFCURVE",
"576 272 OFFCURVE",
"576 352 QCURVE SMOOTH",
"576 434 OFFCURVE",
"542 569 OFFCURVE",
"474 666 OFFCURVE",
"375 719 OFFCURVE",
"310 719 QCURVE SMOOTH"
);
}
);
width = 619;
}
);
unicode = 0030;
},
{
glyphname = one;
layers = (
{
layerId = "6D82140E-0966-4184-BBA2-B1F9A77F6692";
paths = (
{
closed = 1;
nodes = (
"360 705 LINE",
"14 705 LINE",
"14 524 LINE",
"169 524 LINE",
"169 0 LINE",
"360 0 LINE"
);
}
);
width = 435;
},
{
layerId = "8ED872FE-1BCA-4686-B4C5-0573B67FF490";
paths = (
{
closed = 1;
nodes = (
"227 708 LINE",
"9 708 LINE",
"9 612 LINE",
"125 612 LINE",
"125 0 LINE",
"227 0 LINE"
);
}
);
width = 330;
},
{
layerId = "4375AB62-CFBC-411E-9D12-25ECC6BFDF4C";
paths = (
{
closed = 1;
nodes = (
"200 708 LINE",
"8 708 LINE",
"8 630 LINE",
"116 630 LINE",
"116 0 LINE",
"200 0 LINE"
);
}
);
width = 309;
}
);
unicode = 0031;
},
{
glyphname = two;
layers = (
{
layerId = "6D82140E-0966-4184-BBA2-B1F9A77F6692";
paths = (
{
closed = 1;
nodes = (
"224 712 OFFCURVE",
"125 679 OFFCURVE",
"49 613 OFFCURVE",
"4 516 OFFCURVE",
"4 453 QCURVE",
"181 453 LINE",
"181 477 OFFCURVE",
"197 511 OFFCURVE",
"224 533 OFFCURVE",
"257 543 OFFCURVE",
"274 543 QCURVE SMOOTH",
"291 543 OFFCURVE",
"320 533 OFFCURVE",
"341 515 OFFCURVE",
"352 489 OFFCURVE",
"352 472 QCURVE SMOOTH",
"352 446 OFFCURVE",
"319 374 OFFCURVE",
"280 328 QCURVE SMOOTH",
"0 0 LINE",
"554 0 LINE",
"554 158 LINE",
"366 158 LINE",
"429 242 LINE SMOOTH",
"458 280 OFFCURVE",
"502 343 OFFCURVE",
"532 401 OFFCURVE",
"547 458 OFFCURVE",
"547 489 QCURVE SMOOTH",
"547 539 OFFCURVE",
"509 621 OFFCURVE",
"439 679 OFFCURVE",
"340 712 OFFCURVE",
"279 712 QCURVE SMOOTH"
);
}
);
width = 595;
},
{
layerId = "8ED872FE-1BCA-4686-B4C5-0573B67FF490";
paths = (
{
closed = 1;
nodes = (
"233 717 OFFCURVE",
"150 691 OFFCURVE",
"88 639 OFFCURVE",
"48 558 OFFCURVE",
"40 503 QCURVE",
"147 503 LINE",
"151 531 OFFCURVE",
"173 576 OFFCURVE",
"207 608 OFFCURVE",
"254 626 OFFCURVE",
"283 626 QCURVE SMOOTH",
"315 626 OFFCURVE",
"359 609 OFFCURVE",
"387 581 OFFCURVE",
"400 545 OFFCURVE",
"400 525 QCURVE SMOOTH",
"400 486 OFFCURVE",
"347 386 OFFCURVE",
"288 313 QCURVE",
"29 0 LINE",
"519 0 LINE",
"519 90 LINE",
"224 90 LINE",
"367 262 LINE SMOOTH",
"403 306 OFFCURVE",
"456 377 OFFCURVE",
"490 439 OFFCURVE",
"506 495 OFFCURVE",
"506 522 QCURVE SMOOTH",
"506 564 OFFCURVE",
"473 635 OFFCURVE",
"413 688 OFFCURVE",
"331 717 OFFCURVE",
"283 717 QCURVE SMOOTH"
);
}
);
width = 586;
},
{
layerId = "4375AB62-CFBC-411E-9D12-25ECC6BFDF4C";
paths = (
{
closed = 1;
nodes = (
"235 720 OFFCURVE",
"155 694 OFFCURVE",
"95 644 OFFCURVE",
"56 566 OFFCURVE",
"47 513 QCURVE",
"140 513 LINE",
"145 542 OFFCURVE",
"168 589 OFFCURVE",
"204 623 OFFCURVE",
"253 642 OFFCURVE",
"285 642 QCURVE SMOOTH",
"320 642 OFFCURVE",
"367 624 OFFCURVE",
"396 594 OFFCURVE",
"409 556 OFFCURVE",
"409 536 QCURVE SMOOTH",
"409 494 OFFCURVE",
"352 388 OFFCURVE",
"289 310 QCURVE SMOOTH",
"35 0 LINE",
"512 0 LINE",
"512 76 LINE",
"196 76 LINE",
"355 266 LINE SMOOTH",
"393 311 OFFCURVE",
"447 384 OFFCURVE",
"482 447 OFFCURVE",
"498 502 OFFCURVE",
"498 528 QCURVE SMOOTH",
"498 569 OFFCURVE",
"465 638 OFFCURVE",
"408 689 OFFCURVE",
"330 718 OFFCURVE",
"283 720 QCURVE"
);
}
);
width = 584;
}
);
unicode = 0032;
},
{
glyphname = three;
layers = (
{
layerId = "6D82140E-0966-4184-BBA2-B1F9A77F6692";
paths = (
{
closed = 1;
nodes = (
"587 561 LINE",
"587 700 LINE",
"81 700 LINE",
"81 543 LINE",
"349 543 LINE",
"188 398 LINE",
"216 297 LINE",
"222 297 OFFCURVE",
"245 297 OFFCURVE",
"271 297 OFFCURVE",
"293 297 OFFCURVE",
"298 297 QCURVE SMOOTH",
"325 297 OFFCURVE",
"368 287 OFFCURVE",
"397 269 OFFCURVE",
"412 242 OFFCURVE",
"412 225 QCURVE SMOOTH",
"412 209 OFFCURVE",
"399 182 OFFCURVE",
"374 163 OFFCURVE",
"339 152 OFFCURVE",
"317 152 QCURVE SMOOTH",
"279 152 OFFCURVE",
"202 186 OFFCURVE",
"168 219 QCURVE",
"33 110 LINE",
"84 53 OFFCURVE",
"232 -14 OFFCURVE",
"328 -14 QCURVE SMOOTH",
"390 -14 OFFCURVE",
"491 20 OFFCURVE",
"562 81 OFFCURVE",
"601 168 OFFCURVE",
"601 221 QCURVE SMOOTH",
"601 266 OFFCURVE",
"573 332 OFFCURVE",
"523 380 OFFCURVE",
"458 410 OFFCURVE",
"420 418 QCURVE"
);
}
);
width = 642;
},
{
layerId = "8ED872FE-1BCA-4686-B4C5-0573B67FF490";
paths = (
{
closed = 1;
nodes = (
"521 630 LINE",
"521 715 LINE",
"94 715 LINE",
"94 626 LINE",
"393 626 LINE",
"190 412 LINE",
"204 358 LINE",
"212 360 OFFCURVE",
"231 362 OFFCURVE",
"250 363 OFFCURVE",
"269 364 OFFCURVE",
"277 364 QCURVE SMOOTH",
"313 364 OFFCURVE",
"375 348 OFFCURVE",
"420 314 OFFCURVE",
"445 260 OFFCURVE",
"445 222 QCURVE SMOOTH",
"445 189 OFFCURVE",
"423 135 OFFCURVE",
"384 98 OFFCURVE",
"331 78 OFFCURVE",
"300 78 QCURVE SMOOTH",
"237 78 OFFCURVE",
"157 145 OFFCURVE",
"131 208 QCURVE",
"51 148 LINE",
"83 76 OFFCURVE",
"209 -13 OFFCURVE",
"301 -13 QCURVE SMOOTH",
"355 -13 OFFCURVE",
"445 24 OFFCURVE",
"511 88 OFFCURVE",
"548 174 OFFCURVE",
"548 224 QCURVE SMOOTH",
"548 274 OFFCURVE",
"515 352 OFFCURVE",
"456 406 OFFCURVE",
"377 436 OFFCURVE",
"331 438 QCURVE"
);
}
);
width = 615;
},
{
layerId = "4375AB62-CFBC-411E-9D12-25ECC6BFDF4C";
paths = (
{
closed = 1;
nodes = (
"508 644 LINE",
"508 718 LINE",
"96 718 LINE",
"96 642 LINE",
"402 642 LINE",
"190 415 LINE",
"201 370 LINE",
"210 372 OFFCURVE",
"228 375 OFFCURVE",
"246 376 OFFCURVE",
"264 377 OFFCURVE",
"273 377 QCURVE SMOOTH",
"311 377 OFFCURVE",
"376 360 OFFCURVE",
"424 323 OFFCURVE",
"452 263 OFFCURVE",
"452 221 QCURVE SMOOTH",
"452 184 OFFCURVE",
"428 126 OFFCURVE",
"386 85 OFFCURVE",
"329 63 OFFCURVE",
"296 63 QCURVE SMOOTH",
"229 63 OFFCURVE",
"147 137 OFFCURVE",
"124 206 QCURVE",
"55 156 LINE",
"82 81 OFFCURVE",
"204 -13 OFFCURVE",
"295 -13 QCURVE SMOOTH",
"347 -13 OFFCURVE",
"436 24 OFFCURVE",
"500 89 OFFCURVE",
"537 176 OFFCURVE",
"537 225 QCURVE SMOOTH",
"537 276 OFFCURVE",
"503 355 OFFCURVE",
"443 411 OFFCURVE",
"361 441 OFFCURVE",
"313 442 QCURVE"
);
}
);
width = 609;
}
);
unicode = 0033;
},
{
glyphname = four;
layers = (
{
layerId = "6D82140E-0966-4184-BBA2-B1F9A77F6692";
paths = (
{
closed = 1;
nodes = (
"385 705 LINE",
"22 274 LINE",
"54 136 LINE",
"393 136 LINE",
"393 0 LINE",
"581 0 LINE",
"581 136 LINE",
"670 136 LINE",
"670 281 LINE",
"581 281 LINE",
"581 705 LINE"
);
},
{
closed = 1;
nodes = (
"393 281 LINE",
"226 281 LINE",
"393 481 LINE"
);
}
);
width = 695;
},
{
layerId = "8ED872FE-1BCA-4686-B4C5-0573B67FF490";
paths = (
{
closed = 1;
nodes = (
"363 711 LINE",
"15 237 LINE",
"33 150 LINE",
"401 150 LINE",
"401 0 LINE",
"501 0 LINE",
"501 150 LINE",
"598 150 LINE",
"598 235 LINE",
"501 235 LINE",
"501 711 LINE"
);
},
{
closed = 1;
nodes = (
"401 235 LINE",
"129 235 LINE",
"401 609 LINE"
);
}
);
width = 632;
},
{
layerId = "4375AB62-CFBC-411E-9D12-25ECC6BFDF4C";
paths = (
{
closed = 1;
nodes = (
"358 712 LINE",
"13 229 LINE",
"29 153 LINE",
"403 153 LINE",
"403 0 LINE",
"485 0 LINE",
"485 153 LINE",
"583 153 LINE",
"583 226 LINE",
"485 226 LINE",
"485 712 LINE"
);
},
{
closed = 1;
nodes = (
"403 226 LINE",
"110 226 LINE",
"403 635 LINE"
);
}
);
width = 619;
}
);
unicode = 0034;
},
{
glyphname = five;
layers = (
{
layerId = "6D82140E-0966-4184-BBA2-B1F9A77F6692";
paths = (
{
closed = 1;
nodes = (
"194 281 LINE",
"219 296 OFFCURVE",
"274 316 OFFCURVE",
"306 316 QCURVE SMOOTH",
"329 316 OFFCURVE",
"367 305 OFFCURVE",
"394 284 OFFCURVE",
"409 254 OFFCURVE",
"409 235 QCURVE SMOOTH",
"409 197 OFFCURVE",
"354 151 OFFCURVE",
"306 151 QCURVE SMOOTH",
"261 151 OFFCURVE",
"179 191 OFFCURVE",
"136 227 QCURVE",
"25 97 LINE",
"80 46 OFFCURVE",
"215 -14 OFFCURVE",
"309 -14 QCURVE SMOOTH",
"373 -14 OFFCURVE",
"479 21 OFFCURVE",
"556 85 OFFCURVE",
"598 179 OFFCURVE",
"598 237 QCURVE SMOOTH",
"598 294 OFFCURVE",
"558 378 OFFCURVE",
"492 432 OFFCURVE",
"405 459 OFFCURVE",
"358 459 QCURVE SMOOTH",
"323 459 OFFCURVE",
"270 445 OFFCURVE",
"246 434 QCURVE",
"252 540 LINE",
"567 540 LINE",
"567 700 LINE",
"99 700 LINE",
"79 345 LINE"
);
}
);
width = 635;
},
{
layerId = "8ED872FE-1BCA-4686-B4C5-0573B67FF490";
paths = (
{
closed = 1;
nodes = (
"146 339 LINE",
"170 349 OFFCURVE",
"219 360 OFFCURVE",
"246 360 QCURVE SMOOTH",
"281 360 OFFCURVE",
"342 340 OFFCURVE",
"387 303 OFFCURVE",
"412 252 OFFCURVE",
"412 221 QCURVE SMOOTH",
"412 157 OFFCURVE",
"329 77 OFFCURVE",
"255 77 QCURVE SMOOTH",
"205 77 OFFCURVE",
"121 118 OFFCURVE",
"83 154 QCURVE",
"23 85 LINE",
"73 39 OFFCURVE",
"180 -13 OFFCURVE",
"256 -13 QCURVE SMOOTH",
"314 -13 OFFCURVE",
"409 21 OFFCURVE",
"477 83 OFFCURVE",
"514 171 OFFCURVE",
"514 225 QCURVE SMOOTH",
"514 277 OFFCURVE",
"476 359 OFFCURVE",
"410 416 OFFCURVE",
"323 447 OFFCURVE",
"273 447 QCURVE SMOOTH",
"244 447 OFFCURVE",
"194 435 OFFCURVE",
"165 426 QCURVE",
"185 615 LINE",
"484 615 LINE",
"490 704 LINE",
"102 704 LINE",
"72 375 LINE"
);
}
);
width = 574;
},
{
layerId = "4375AB62-CFBC-411E-9D12-25ECC6BFDF4C";
paths = (
{
closed = 1;
nodes = (
"136 350 LINE",
"160 359 OFFCURVE",
"208 369 OFFCURVE",
"234 369 QCURVE SMOOTH",
"272 369 OFFCURVE",
"337 347 OFFCURVE",
"385 306 OFFCURVE",
"412 251 OFFCURVE",
"412 218 QCURVE SMOOTH",
"412 149 OFFCURVE",
"323 62 OFFCURVE",
"245 62 QCURVE SMOOTH",
"194 62 OFFCURVE",
"109 103 OFFCURVE",
"72 139 QCURVE",
"23 83 LINE",
"71 38 OFFCURVE",
"173 -13 OFFCURVE",
"245 -13 QCURVE SMOOTH",
"302 -13 OFFCURVE",
"395 21 OFFCURVE",
"461 82 OFFCURVE",
"497 169 OFFCURVE",
"497 222 QCURVE SMOOTH",
"497 273 OFFCURVE",
"459 355 OFFCURVE",
"394 413 OFFCURVE",
"306 444 OFFCURVE",
"256 444 QCURVE SMOOTH",
"228 444 OFFCURVE",
"178 433 OFFCURVE",
"149 424 QCURVE",
"171 630 LINE",
"467 630 LINE",
"474 705 LINE",
"103 705 LINE",
"71 381 LINE"
);
}
);
width = 562;
}
);
unicode = 0035;
},
{
glyphname = six;
layers = (
{
layerId = "6D82140E-0966-4184-BBA2-B1F9A77F6692";
paths = (
{
closed = 1;
nodes = (
"292 706 LINE",
"164 515 LINE SMOOTH",
"126 458 OFFCURVE",
"76 373 OFFCURVE",
"46 306 OFFCURVE",
"34 250 OFFCURVE",
"34 222 QCURVE SMOOTH",
"34 170 OFFCURVE",
"75 84 OFFCURVE",
"153 21 OFFCURVE",
"264 -14 OFFCURVE",
"333 -14 QCURVE SMOOTH",
"393 -14 OFFCURVE",
"496 21 OFFCURVE",
"572 87 OFFCURVE",
"615 181 OFFCURVE",
"615 240 QCURVE SMOOTH",
"615 293 OFFCURVE",
"587 374 OFFCURVE",
"534 429 OFFCURVE",
"460 458 OFFCURVE",
"414 458 QCURVE SMOOTH",
"388 458 OFFCURVE",
"351 452 OFFCURVE",
"322 440 OFFCURVE",
"298 424 OFFCURVE",
"285 414 QCURVE",
"495 706 LINE"
);
},
{
closed = 1;
nodes = (
"230 249 OFFCURVE",
"243 281 OFFCURVE",
"268 305 OFFCURVE",
"304 319 OFFCURVE",
"327 319 QCURVE SMOOTH",
"350 319 OFFCURVE",
"387 305 OFFCURVE",
"412 281 OFFCURVE",
"426 248 OFFCURVE",
"426 229 QCURVE SMOOTH",
"426 210 OFFCURVE",
"413 176 OFFCURVE",
"388 151 OFFCURVE",
"352 137 OFFCURVE",
"329 137 QCURVE SMOOTH",
"306 137 OFFCURVE",
"269 152 OFFCURVE",
"244 177 OFFCURVE",
"230 211 OFFCURVE",
"230 230 QCURVE SMOOTH"
);
}
);
width = 649;
},
{
layerId = "8ED872FE-1BCA-4686-B4C5-0573B67FF490";
paths = (
{
closed = 1;
nodes = (
"313 706 LINE",
"149 458 LINE SMOOTH",
"123 419 OFFCURVE",
"85 356 OFFCURVE",
"59 301 OFFCURVE",
"47 251 OFFCURVE",
"47 224 QCURVE SMOOTH",
"47 169 OFFCURVE",
"86 81 OFFCURVE",
"155 19 OFFCURVE",
"248 -14 OFFCURVE",
"302 -14 QCURVE SMOOTH",
"355 -14 OFFCURVE",
"446 20 OFFCURVE",
"513 82 OFFCURVE",
"551 168 OFFCURVE",
"551 219 QCURVE SMOOTH",
"551 269 OFFCURVE",
"517 348 OFFCURVE",
"458 404 OFFCURVE",
"378 433 OFFCURVE",
"332 433 QCURVE SMOOTH",
"315 433 OFFCURVE",
"286 431 OFFCURVE",
"259 424 OFFCURVE",
"233 412 OFFCURVE",
"219 402 QCURVE",
"426 706 LINE"
);
},
{
closed = 1;
nodes = (
"151 242 OFFCURVE",
"172 293 OFFCURVE",
"211 331 OFFCURVE",
"266 353 OFFCURVE",
"300 353 QCURVE SMOOTH",
"333 353 OFFCURVE",
"388 332 OFFCURVE",
"427 296 OFFCURVE",
"448 246 OFFCURVE",
"448 216 QCURVE SMOOTH",
"448 184 OFFCURVE",
"427 131 OFFCURVE",
"388 92 OFFCURVE",
"334 71 OFFCURVE",
"301 71 QCURVE SMOOTH",
"269 71 OFFCURVE",
"214 93 OFFCURVE",
"174 132 OFFCURVE",
"151 183 OFFCURVE",
"151 213 QCURVE SMOOTH"
);
}
);
width = 600;
},
{
layerId = "4375AB62-CFBC-411E-9D12-25ECC6BFDF4C";
paths = (
{
closed = 1;
nodes = (
"317 706 LINE",
"146 447 LINE SMOOTH",
"122 411 OFFCURVE",
"86 353 OFFCURVE",
"62 300 OFFCURVE",
"49 251 OFFCURVE",
"49 224 QCURVE SMOOTH",
"49 168 OFFCURVE",
"88 80 OFFCURVE",
"155 18 OFFCURVE",
"245 -14 OFFCURVE",
"296 -14 QCURVE SMOOTH",
"347 -14 OFFCURVE",
"436 20 OFFCURVE",
"501 81 OFFCURVE",
"538 165 OFFCURVE",
"538 215 QCURVE SMOOTH",
"538 264 OFFCURVE",
"503 343 OFFCURVE",
"442 398 OFFCURVE",
"361 428 OFFCURVE",
"315 428 QCURVE SMOOTH",
"300 428 OFFCURVE",
"273 427 OFFCURVE",
"247 421 OFFCURVE",
"220 409 OFFCURVE",
"206 399 QCURVE",
"412 706 LINE"
);
},
{
closed = 1;
nodes = (
"135 240 OFFCURVE",
"158 295 OFFCURVE",
"200 336 OFFCURVE",
"259 360 OFFCURVE",
"295 360 QCURVE SMOOTH",
"330 360 OFFCURVE",
"388 338 OFFCURVE",
"429 299 OFFCURVE",
"452 245 OFFCURVE",
"452 213 QCURVE SMOOTH",
"452 179 OFFCURVE",
"429 122 OFFCURVE",
"387 81 OFFCURVE",
"330 58 OFFCURVE",
"295 58 QCURVE SMOOTH",
"262 58 OFFCURVE",
"203 82 OFFCURVE",
"160 122 OFFCURVE",
"135 178 OFFCURVE",
"135 209 QCURVE SMOOTH"
);
}
);
width = 590;
}
);
unicode = 0036;
},
{
glyphname = seven;
layers = (
{
layerId = "6D82140E-0966-4184-BBA2-B1F9A77F6692";
paths = (
{
closed = 1;
nodes = (
"568 554 LINE",
"568 700 LINE",
"29 700 LINE",
"29 537 LINE",
"353 537 LINE",
"45 0 LINE",
"259 0 LINE"
);
}
);
width = 558;
},
{
layerId = "8ED872FE-1BCA-4686-B4C5-0573B67FF490";
paths = (
{
closed = 1;
nodes = (
"526 617 LINE",
"526 704 LINE",
"37 704 LINE",
"37 615 LINE",
"416 615 LINE",
"78 0 LINE",
"191 0 LINE"
);
}
);
width = 521;
},
{
layerId = "4375AB62-CFBC-411E-9D12-25ECC6BFDF4C";
paths = (
{
closed = 1;
nodes = (
"517 629 LINE",
"517 705 LINE",
"38 705 LINE",
"38 630 LINE",
"428 630 LINE",
"84 0 LINE",
"177 0 LINE"
);
}
);
width = 513;
}
);
unicode = 0037;
},
{
glyphname = eight;
layers = (
{
layerId = "6D82140E-0966-4184-BBA2-B1F9A77F6692";
paths = (
{
closed = 1;
nodes = (
"593 558 OFFCURVE",
"555 630 OFFCURVE",
"485 682 OFFCURVE",
"388 712 OFFCURVE",
"329 712 QCURVE SMOOTH",
"270 712 OFFCURVE",
"173 682 OFFCURVE",
"103 630 OFFCURVE",
"65 558 OFFCURVE",
"65 516 QCURVE SMOOTH",
"65 459 OFFCURVE",
"119 386 OFFCURVE",
"161 363 QCURVE",
"104 339 OFFCURVE",
"41 255 OFFCURVE",
"41 195 QCURVE SMOOTH",
"41 149 OFFCURVE",
"84 73 OFFCURVE",
"160 18 OFFCURVE",
"266 -12 OFFCURVE",
"329 -12 QCURVE SMOOTH",
"392 -12 OFFCURVE",
"498 18 OFFCURVE",
"574 72 OFFCURVE",
"617 149 OFFCURVE",
"617 196 QCURVE SMOOTH",
"617 253 OFFCURVE",
"551 338 OFFCURVE",
"497 363 QCURVE",
"539 386 OFFCURVE",
"593 459 OFFCURVE",
"593 516 QCURVE SMOOTH"
);
},
{
closed = 1;
nodes = (
"243 509 OFFCURVE",
"255 536 OFFCURVE",
"277 555 OFFCURVE",
"309 567 OFFCURVE",
"329 567 QCURVE SMOOTH",
"349 567 OFFCURVE",
"381 555 OFFCURVE",
"403 535 OFFCURVE",
"415 508 OFFCURVE",
"415 493 QCURVE SMOOTH",
"415 478 OFFCURVE",
"403 450 OFFCURVE",
"380 429 OFFCURVE",
"349 416 OFFCURVE",
"329 416 QCURVE SMOOTH",
"310 416 OFFCURVE",
"278 429 OFFCURVE",
"255 451 OFFCURVE",
"243 479 OFFCURVE",
"243 494 QCURVE SMOOTH"
);
},
{
closed = 1;
nodes = (
"228 231 OFFCURVE",
"243 259 OFFCURVE",
"270 279 OFFCURVE",
"307 290 OFFCURVE",
"329 290 QCURVE SMOOTH",
"351 290 OFFCURVE",
"388 279 OFFCURVE",
"415 259 OFFCURVE",
"430 231 OFFCURVE",
"430 214 QCURVE SMOOTH",
"430 198 OFFCURVE",
"417 169 OFFCURVE",
"391 147 OFFCURVE",
"353 133 OFFCURVE",
"329 133 QCURVE SMOOTH",
"305 133 OFFCURVE",
"267 147 OFFCURVE",
"241 169 OFFCURVE",
"228 198 OFFCURVE",
"228 214 QCURVE SMOOTH"
);
}
);
width = 658;
},
{
layerId = "8ED872FE-1BCA-4686-B4C5-0573B67FF490";
paths = (
{
closed = 1;
nodes = (
"550 568 OFFCURVE",
"513 638 OFFCURVE",
"451 689 OFFCURVE",
"368 717 OFFCURVE",
"321 717 QCURVE SMOOTH",
"274 717 OFFCURVE",
"191 689 OFFCURVE",
"129 639 OFFCURVE",
"93 570 OFFCURVE",
"93 529 QCURVE SMOOTH",
"93 474 OFFCURVE",
"150 393 OFFCURVE",
"201 369 QCURVE",
"137 342 OFFCURVE",
"67 254 OFFCURVE",
"67 191 QCURVE SMOOTH",
"67 148 OFFCURVE",
"106 73 OFFCURVE",
"174 19 OFFCURVE",
"267 -12 OFFCURVE",
"321 -12 QCURVE SMOOTH",
"375 -12 OFFCURVE",
"468 17 OFFCURVE",
"536 71 OFFCURVE",
"575 147 OFFCURVE",
"575 193 QCURVE SMOOTH",
"575 255 OFFCURVE",
"504 343 OFFCURVE",
"440 368 QCURVE",
"490 394 OFFCURVE",
"550 471 OFFCURVE",
"550 526 QCURVE SMOOTH"
);
},
{
closed = 1;
nodes = (
"192 544 OFFCURVE",
"212 586 OFFCURVE",
"246 616 OFFCURVE",
"294 633 OFFCURVE",
"321 633 QCURVE SMOOTH",
"349 633 OFFCURVE",
"396 616 OFFCURVE",
"431 586 OFFCURVE",
"451 545 OFFCURVE",
"451 521 QCURVE SMOOTH",
"451 496 OFFCURVE",
"431 453 OFFCURVE",
"396 422 OFFCURVE",
"348 405 OFFCURVE",
"321 405 QCURVE SMOOTH",
"294 405 OFFCURVE",
"247 422 OFFCURVE",
"212 453 OFFCURVE",
"192 495 OFFCURVE",
"192 520 QCURVE SMOOTH"
);
},
{
closed = 1;
nodes = (
"170 226 OFFCURVE",
"192 272 OFFCURVE",
"233 305 OFFCURVE",
"288 324 OFFCURVE",
"321 324 QCURVE SMOOTH",
"354 324 OFFCURVE",
"410 305 OFFCURVE",
"450 272 OFFCURVE",
"473 226 OFFCURVE",
"473 199 QCURVE SMOOTH",
"473 173 OFFCURVE",
"451 127 OFFCURVE",
"411 92 OFFCURVE",
"355 72 OFFCURVE",
"321 72 QCURVE SMOOTH",
"286 72 OFFCURVE",
"230 92 OFFCURVE",
"191 127 OFFCURVE",
"170 173 OFFCURVE",
"170 199 QCURVE SMOOTH"
);
}
);
width = 642;
},
{
layerId = "4375AB62-CFBC-411E-9D12-25ECC6BFDF4C";
paths = (
{
closed = 1;
nodes = (
"541 570 OFFCURVE",
"505 640 OFFCURVE",
"444 690 OFFCURVE",
"363 718 OFFCURVE",
"319 718 QCURVE SMOOTH",
"274 718 OFFCURVE",
"194 690 OFFCURVE",
"134 641 OFFCURVE",
"99 572 OFFCURVE",
"99 531 QCURVE SMOOTH",
"99 477 OFFCURVE",
"155 394 OFFCURVE",
"209 370 QCURVE",
"143 342 OFFCURVE",
"72 253 OFFCURVE",
"72 190 QCURVE SMOOTH",
"72 147 OFFCURVE",
"110 73 OFFCURVE",
"176 19 OFFCURVE",
"267 -12 OFFCURVE",
"319 -12 QCURVE SMOOTH",
"372 -12 OFFCURVE",
"462 17 OFFCURVE",
"529 71 OFFCURVE",
"567 146 OFFCURVE",
"567 192 QCURVE SMOOTH",
"567 255 OFFCURVE",
"495 344 OFFCURVE",
"429 369 QCURVE",
"480 395 OFFCURVE",
"541 473 OFFCURVE",
"541 528 QCURVE SMOOTH"
);
},
{
closed = 1;
nodes = (
"192 551 OFFCURVE",
"203 596 OFFCURVE",
"240 628 OFFCURVE",
"290 646 OFFCURVE",
"319 646 QCURVE SMOOTH",
"348 646 OFFCURVE",
"399 628 OFFCURVE",
"437 596 OFFCURVE",
"458 552 OFFCURVE",
"458 526 QCURVE SMOOTH",
"458 499 OFFCURVE",
"436 453 OFFCURVE",
"399 421 OFFCURVE",
"348 403 OFFCURVE",
"319 403 QCURVE SMOOTH",
"291 403 OFFCURVE",
"241 421 OFFCURVE",
"204 454 OFFCURVE",
"182 498 OFFCURVE",
"192 525 QCURVE"
);
},
{
closed = 1;
nodes = (
"158 225 OFFCURVE",
"182 275 OFFCURVE",
"225 311 OFFCURVE",
"284 331 OFFCURVE",
"319 331 QCURVE SMOOTH",
"354 331 OFFCURVE",
"414 310 OFFCURVE",
"457 275 OFFCURVE",
"481 225 OFFCURVE",
"481 196 QCURVE SMOOTH",
"481 168 OFFCURVE",
"457 118 OFFCURVE",
"415 81 OFFCURVE",
"355 60 OFFCURVE",
"319 60 QCURVE SMOOTH",
"282 60 OFFCURVE",
"223 81 OFFCURVE",
"181 118 OFFCURVE",
"158 168 OFFCURVE",
"158 196 QCURVE SMOOTH"
);
}
);
width = 639;
}
);
unicode = 0038;
},
{
glyphname = nine;
layers = (
{
layerId = "6D82140E-0966-4184-BBA2-B1F9A77F6692";
paths = (
{
closed = 1;
nodes = (
"357 0 LINE",
"535 277 LINE SMOOTH",
"559 315 OFFCURVE",
"590 375 OFFCURVE",
"608 424 OFFCURVE",
"615 465 OFFCURVE",
"615 484 QCURVE SMOOTH",
"615 536 OFFCURVE",
"574 622 OFFCURVE",
"496 685 OFFCURVE",
"384 720 OFFCURVE",
"312 720 QCURVE SMOOTH",
"255 720 OFFCURVE",
"153 685 OFFCURVE",
"78 620 OFFCURVE",
"34 527 OFFCURVE",
"34 468 QCURVE SMOOTH",
"34 416 OFFCURVE",
"62 334 OFFCURVE",
"115 277 OFFCURVE",
"189 248 OFFCURVE",
"235 248 QCURVE SMOOTH",
"280 248 OFFCURVE",
"336 271 OFFCURVE",
"364 292 QCURVE",
"154 0 LINE"
);
},
{
closed = 1;
nodes = (
"419 459 OFFCURVE",
"406 426 OFFCURVE",
"381 401 OFFCURVE",
"345 387 OFFCURVE",
"322 387 QCURVE SMOOTH",
"299 387 OFFCURVE",
"262 402 OFFCURVE",
"237 427 OFFCURVE",
"223 460 OFFCURVE",
"223 479 QCURVE SMOOTH",
"223 498 OFFCURVE",
"236 531 OFFCURVE",
"261 555 OFFCURVE",
"297 569 OFFCURVE",
"320 569 QCURVE SMOOTH",
"343 569 OFFCURVE",
"380 555 OFFCURVE",
"405 530 OFFCURVE",
"419 497 OFFCURVE",
"419 478 QCURVE SMOOTH"
);
}
);
width = 649;
},
{
layerId = "8ED872FE-1BCA-4686-B4C5-0573B67FF490";
paths = (
{
closed = 1;
nodes = (
"284 -2 LINE",
"455 253 LINE SMOOTH",
"474 281 OFFCURVE",
"509 336 OFFCURVE",
"535 391 OFFCURVE",
"550 449 OFFCURVE",
"550 480 QCURVE SMOOTH",
"550 535 OFFCURVE",
"512 623 OFFCURVE",
"443 686 OFFCURVE",
"350 720 OFFCURVE",
"294 720 QCURVE SMOOTH",
"242 720 OFFCURVE",
"152 685 OFFCURVE",
"85 623 OFFCURVE",
"47 537 OFFCURVE",
"47 486 QCURVE SMOOTH",
"47 437 OFFCURVE",
"81 357 OFFCURVE",
"141 300 OFFCURVE",
"222 268 OFFCURVE",
"268 268 QCURVE SMOOTH",
"302 268 OFFCURVE",
"350 284 OFFCURVE",
"377 304 QCURVE",
"172 -2 LINE"
);
},
{
closed = 1;
nodes = (
"446 463 OFFCURVE",
"424 412 OFFCURVE",
"384 374 OFFCURVE",
"330 352 OFFCURVE",
"297 352 QCURVE SMOOTH",
"264 352 OFFCURVE",
"210 373 OFFCURVE",
"171 411 OFFCURVE",
"150 462 OFFCURVE",
"150 492 QCURVE SMOOTH",
"150 522 OFFCURVE",
"171 573 OFFCURVE",
"210 612 OFFCURVE",
"263 634 OFFCURVE",
"296 634 QCURVE SMOOTH",
"327 634 OFFCURVE",
"382 612 OFFCURVE",
"422 573 OFFCURVE",
"446 522 OFFCURVE",
"446 492 QCURVE SMOOTH"
);
}
);
width = 597;
},
{
layerId = "4375AB62-CFBC-411E-9D12-25ECC6BFDF4C";
paths = (
{
closed = 1;
nodes = (
"269 -2 LINE",
"439 248 LINE SMOOTH",
"457 274 OFFCURVE",
"492 328 OFFCURVE",
"520 385 OFFCURVE",
"537 446 OFFCURVE",
"537 479 QCURVE SMOOTH",
"537 535 OFFCURVE",
"499 624 OFFCURVE",
"433 686 OFFCURVE",
"343 720 OFFCURVE",
"290 720 QCURVE SMOOTH",
"239 720 OFFCURVE",
"151 685 OFFCURVE",
"86 623 OFFCURVE",
"49 539 OFFCURVE",
"49 490 QCURVE SMOOTH",
"49 442 OFFCURVE",
"85 361 OFFCURVE",
"147 304 OFFCURVE",
"229 272 OFFCURVE",
"275 272 QCURVE SMOOTH",
"306 272 OFFCURVE",
"353 286 OFFCURVE",
"380 306 QCURVE",
"176 -2 LINE"
);
},
{
closed = 1;
nodes = (
"451 464 OFFCURVE",
"427 410 OFFCURVE",
"385 369 OFFCURVE",
"327 345 OFFCURVE",
"292 345 QCURVE SMOOTH",
"258 345 OFFCURVE",
"200 367 OFFCURVE",
"158 407 OFFCURVE",
"135 462 OFFCURVE",
"135 494 QCURVE SMOOTH",
"135 526 OFFCURVE",
"158 582 OFFCURVE",
"199 623 OFFCURVE",
"257 647 OFFCURVE",
"291 647 QCURVE SMOOTH",
"324 647 OFFCURVE",
"382 623 OFFCURVE",
"426 582 OFFCURVE",
"451 527 OFFCURVE",
"451 495 QCURVE SMOOTH"
);
}
);
width = 586;
}
);
unicode = 0039;
},
{
glyphname = colon;
layers = (
{
layerId = "6D82140E-0966-4184-BBA2-B1F9A77F6692";
paths = (
{
closed = 1;
nodes = (
"62 43 OFFCURVE",
"126 -13 OFFCURVE",
"174 -13 QCURVE SMOOTH",
"222 -13 OFFCURVE",
"287 43 OFFCURVE",
"287 97 QCURVE SMOOTH",
"287 151 OFFCURVE",
"222 206 OFFCURVE",
"174 206 QCURVE SMOOTH",
"126 206 OFFCURVE",
"62 151 OFFCURVE",
"62 97 QCURVE SMOOTH"
);
},
{
closed = 1;
nodes = (
"62 389 OFFCURVE",
"126 333 OFFCURVE",
"174 333 QCURVE SMOOTH",
"222 333 OFFCURVE",
"287 389 OFFCURVE",
"287 443 QCURVE SMOOTH",
"287 497 OFFCURVE",
"222 552 OFFCURVE",
"174 552 QCURVE SMOOTH",
"126 552 OFFCURVE",
"62 497 OFFCURVE",
"62 443 QCURVE SMOOTH"
);
}
);
width = 350;
},
{
layerId = "8ED872FE-1BCA-4686-B4C5-0573B67FF490";
paths = (
{
closed = 1;
nodes = (
"81 29 OFFCURVE",
"119 -11 OFFCURVE",
"151 -11 QCURVE SMOOTH",
"178 -11 OFFCURVE",
"219 29 OFFCURVE",
"219 59 QCURVE SMOOTH",
"219 88 OFFCURVE",
"178 127 OFFCURVE",
"151 127 QCURVE SMOOTH",
"119 127 OFFCURVE",
"81 88 OFFCURVE",
"81 59 QCURVE SMOOTH"
);
},
{
closed = 1;
nodes = (
"81 402 OFFCURVE",
"119 364 OFFCURVE",
"151 364 QCURVE SMOOTH",
"178 364 OFFCURVE",
"219 402 OFFCURVE",
"219 433 QCURVE SMOOTH",
"219 463 OFFCURVE",
"178 501 OFFCURVE",
"151 501 QCURVE SMOOTH",
"119 501 OFFCURVE",
"81 463 OFFCURVE",
"81 433 QCURVE SMOOTH"
);
}
);
width = 301;
},
{
layerId = "4375AB62-CFBC-411E-9D12-25ECC6BFDF4C";
paths = (
{
closed = 1;
nodes = (
"85 26 OFFCURVE",
"118 -10 OFFCURVE",
"146 -10 QCURVE SMOOTH",
"169 -10 OFFCURVE",
"205 26 OFFCURVE",
"205 51 QCURVE SMOOTH",
"205 76 OFFCURVE",
"169 111 OFFCURVE",
"146 111 QCURVE SMOOTH",
"118 111 OFFCURVE",
"85 76 OFFCURVE",
"85 52 QCURVE SMOOTH"
);
},
{
closed = 1;
nodes = (
"85 405 OFFCURVE",
"118 370 OFFCURVE",
"146 370 QCURVE SMOOTH",
"169 370 OFFCURVE",
"205 405 OFFCURVE",
"205 431 QCURVE SMOOTH",
"205 456 OFFCURVE",
"169 491 OFFCURVE",
"146 491 QCURVE SMOOTH",
"118 491 OFFCURVE",
"85 456 OFFCURVE",
"85 432 QCURVE SMOOTH"
);
}
);
width = 291;
}
);
unicode = 003A;
},
{
glyphname = semicolon;
layers = (
{
layerId = "6D82140E-0966-4184-BBA2-B1F9A77F6692";
paths = (
{
closed = 1;
nodes = (
"31 389 OFFCURVE",
"95 333 OFFCURVE",
"143 333 QCURVE SMOOTH",
"191 333 OFFCURVE",
"256 389 OFFCURVE",
"256 443 QCURVE SMOOTH",
"256 497 OFFCURVE",
"191 552 OFFCURVE",
"143 552 QCURVE SMOOTH",
"95 552 OFFCURVE",
"31 497 OFFCURVE",
"31 443 QCURVE SMOOTH"
);
},
{
closed = 1;
nodes = (
"240 197 LINE",
"69 197 LINE",
"7 -164 LINE",
"137 -164 LINE"
);
}
);
width = 297;
},
{
layerId = "8ED872FE-1BCA-4686-B4C5-0573B67FF490";
paths = (
{
closed = 1;
nodes = (
"58 402 OFFCURVE",
"97 364 OFFCURVE",
"127 364 QCURVE SMOOTH",
"155 364 OFFCURVE",
"196 402 OFFCURVE",
"196 433 QCURVE SMOOTH",
"196 463 OFFCURVE",
"155 501 OFFCURVE",
"127 501 QCURVE SMOOTH",
"97 501 OFFCURVE",
"58 463 OFFCURVE",
"58 433 QCURVE SMOOTH"
);
},
{
closed = 1;
nodes = (
"189 133 LINE",
"77 133 LINE",
"30 -143 LINE",
"110 -143 LINE"
);
}
);
width = 261;
},
{
layerId = "4375AB62-CFBC-411E-9D12-25ECC6BFDF4C";
paths = (
{
closed = 1;
nodes = (
"63 405 OFFCURVE",
"97 370 OFFCURVE",
"124 370 QCURVE SMOOTH",
"147 370 OFFCURVE",
"184 405 OFFCURVE",
"184 431 QCURVE SMOOTH",
"184 456 OFFCURVE",
"147 491 OFFCURVE",
"124 491 QCURVE SMOOTH",
"97 491 OFFCURVE",
"63 456 OFFCURVE",
"63 431 QCURVE SMOOTH"
);
},
{
closed = 1;
nodes = (
"179 120 LINE",
"78 120 LINE",
"35 -139 LINE",
"105 -139 LINE"
);
}
);
width = 254;
}
);
unicode = 003B;
},
{
glyphname = less;
layers = (
{
layerId = "6D82140E-0966-4184-BBA2-B1F9A77F6692";
paths = (
{
closed = 1;
nodes = (
"582 638 LINE",
"85 440 LINE",
"85 263 LINE",
"582 65 LINE",
"582 243 LINE",
"255 352 LINE",
"582 461 LINE"
);
}
);
width = 666;
},
{
layerId = "8ED872FE-1BCA-4686-B4C5-0573B67FF490";
paths = (
{
closed = 1;
nodes = (
"544 611 LINE",
"63 388 LINE",
"63 300 LINE",
"544 77 LINE",
"544 172 LINE",
"167 345 LINE",
"544 515 LINE"
);
}
);
width = 606;
},
{
layerId = "4375AB62-CFBC-411E-9D12-25ECC6BFDF4C";
paths = (
{
closed = 1;
nodes = (
"536 606 LINE",
"58 378 LINE",
"58 307 LINE",
"536 79 LINE",
"536 158 LINE",
"149 343 LINE",
"536 526 LINE"
);
}
);
width = 594;
}
);
unicode = 003C;
},
{
glyphname = equal;
layers = (
{
layerId = "6D82140E-0966-4184-BBA2-B1F9A77F6692";
paths = (
{
closed = 1;
nodes = (
"81 570 LINE",
"81 403 LINE",
"572 403 LINE",
"572 570 LINE"
);
},
{
closed = 1;
nodes = (
"81 301 LINE",
"81 134 LINE",
"572 134 LINE",
"572 301 LINE"
);
}
);
width = 653;
},
{
layerId = "8ED872FE-1BCA-4686-B4C5-0573B67FF490";
paths = (
{
closed = 1;
nodes = (
"53 523 LINE",
"53 432 LINE",
"530 432 LINE",
"530 523 LINE"
);
},
{
closed = 1;
nodes = (
"53 276 LINE",
"53 186 LINE",
"530 186 LINE",
"530 276 LINE"
);
}
);
width = 582;
},
{
layerId = "4375AB62-CFBC-411E-9D12-25ECC6BFDF4C";
paths = (
{
closed = 1;
nodes = (
"47 513 LINE",
"47 438 LINE",
"524 438 LINE",
"521 513 LINE"
);
},
{
closed = 1;
nodes = (
"47 271 LINE",
"47 196 LINE",
"521 196 LINE",
"521 271 LINE"
);
}
);
width = 568;
}
);
unicode = 003D;
},
{
glyphname = greater;
layers = (
{
layerId = "6D82140E-0966-4184-BBA2-B1F9A77F6692";
paths = (
{
closed = 1;
nodes = (
"85 460 LINE",
"412 351 LINE",
"85 242 LINE",
"85 65 LINE",
"582 263 LINE",
"582 440 LINE",
"85 638 LINE"
);
}
);
width = 667;
},
{
layerId = "8ED872FE-1BCA-4686-B4C5-0573B67FF490";
paths = (
{
closed = 1;
nodes = (
"63 514 LINE",
"439 344 LINE",
"63 174 LINE",
"63 78 LINE",
"543 299 LINE",
"543 389 LINE",
"63 611 LINE"
);
}
);
width = 605;
},
{
layerId = "4375AB62-CFBC-411E-9D12-25ECC6BFDF4C";
paths = (
{
closed = 1;
nodes = (
"58 525 LINE",
"444 342 LINE",
"58 160 LINE",
"58 80 LINE",
"535 306 LINE",
"535 379 LINE",
"58 606 LINE"
);
}
);
width = 593;
}
);
unicode = 003E;
},
{
glyphname = question;
layers = (
{
layerId = "6D82140E-0966-4184-BBA2-B1F9A77F6692";
paths = (
{
closed = 1;
nodes = (
"230 547 OFFCURVE",
"259 541 OFFCURVE",
"282 528 OFFCURVE",
"296 508 OFFCURVE",
"296 494 QCURVE SMOOTH",
"296 472 OFFCURVE",
"263 432 OFFCURVE",
"243 417 QCURVE SMOOTH",
"227 404 OFFCURVE",
"196 375 OFFCURVE",
"171 338 OFFCURVE",
"156 291 OFFCURVE",
"156 261 QCURVE SMOOTH",
"156 218 LINE",
"330 218 LINE",
"330 249 LINE SMOOTH",
"330 263 OFFCURVE",
"334 283 OFFCURVE",
"345 299 OFFCURVE",
"362 315 OFFCURVE",
"374 325 QCURVE SMOOTH",
"399 344 OFFCURVE",
"440 380 OFFCURVE",
"470 421 OFFCURVE",
"487 472 OFFCURVE",
"487 506 QCURVE SMOOTH",
"487 555 OFFCURVE",
"448 631 OFFCURVE",
"382 682 OFFCURVE",
"297 709 OFFCURVE",
"251 709 QCURVE SMOOTH",
"188 709 OFFCURVE",
"76 664 OFFCURVE",
"37 613 QCURVE",
"37 455 LINE",
"52 469 OFFCURVE",
"92 502 OFFCURVE",
"137 529 OFFCURVE",
"189 547 OFFCURVE",
"216 547 QCURVE SMOOTH"
);
},
{
closed = 1;
nodes = (
"143 36 OFFCURVE",
"205 -13 OFFCURVE",
"250 -13 QCURVE SMOOTH",
"295 -13 OFFCURVE",
"358 36 OFFCURVE",
"358 84 QCURVE SMOOTH",
"358 132 OFFCURVE",
"295 180 OFFCURVE",
"250 180 QCURVE SMOOTH",
"205 180 OFFCURVE",
"143 132 OFFCURVE",
"143 84 QCURVE SMOOTH"
);
}
);
width = 524;
},
{
layerId = "8ED872FE-1BCA-4686-B4C5-0573B67FF490";
paths = (
{
closed = 1;
nodes = (
"228 625 OFFCURVE",
"265 610 OFFCURVE",
"291 585 OFFCURVE",
"304 553 OFFCURVE",
"304 536 QCURVE SMOOTH",
"304 502 OFFCURVE",
"264 452 OFFCURVE",
"237 427 QCURVE SMOOTH",
"221 412 OFFCURVE",
"187 378 OFFCURVE",
"161 336 OFFCURVE",
"144 286 OFFCURVE",
"144 254 QCURVE SMOOTH",
"144 195 LINE",
"242 195 LINE",
"242 227 LINE SMOOTH",
"242 251 OFFCURVE",
"250 289 OFFCURVE",
"267 321 OFFCURVE",
"293 350 OFFCURVE",
"311 366 QCURVE SMOOTH",
"331 383 OFFCURVE",
"365 421 OFFCURVE",
"391 464 OFFCURVE",
"405 514 OFFCURVE",
"405 544 QCURVE SMOOTH",
"405 583 OFFCURVE",
"378 647 OFFCURVE",
"328 692 OFFCURVE",
"259 716 OFFCURVE",
"218 716 QCURVE SMOOTH",
"164 716 OFFCURVE",
"77 677 OFFCURVE",
"51 643 QCURVE",
"51 536 LINE",
"69 560 OFFCURVE",
"106 594 OFFCURVE",
"145 615 OFFCURVE",
"185 625 OFFCURVE",
"204 625 QCURVE SMOOTH"
);
},
{
closed = 1;
nodes = (
"131 25 OFFCURVE",
"171 -10 OFFCURVE",
"198 -10 QCURVE SMOOTH",
"227 -10 OFFCURVE",
"267 25 OFFCURVE",
"267 56 QCURVE SMOOTH",
"267 83 OFFCURVE",
"227 121 OFFCURVE",
"198 121 QCURVE SMOOTH",
"171 121 OFFCURVE",
"131 83 OFFCURVE",
"131 56 QCURVE SMOOTH"
);
}
);
width = 456;
},
{
layerId = "4375AB62-CFBC-411E-9D12-25ECC6BFDF4C";
paths = (
{
closed = 1;
nodes = (
"227 641 OFFCURVE",
"267 624 OFFCURVE",
"293 597 OFFCURVE",
"306 562 OFFCURVE",
"306 544 QCURVE SMOOTH",
"306 508 OFFCURVE",
"264 455 OFFCURVE",
"236 429 QCURVE SMOOTH",
"219 413 OFFCURVE",
"186 378 OFFCURVE",
"159 336 OFFCURVE",
"142 284 OFFCURVE",
"142 252 QCURVE SMOOTH",
"142 190 LINE",
"224 190 LINE",
"224 222 LINE SMOOTH",
"224 249 OFFCURVE",
"233 290 OFFCURVE",
"251 325 OFFCURVE",
"279 357 OFFCURVE",
"298 374 QCURVE SMOOTH",
"317 391 OFFCURVE",
"350 429 OFFCURVE",
"374 473 OFFCURVE",
"388 523 OFFCURVE",
"388 551 QCURVE SMOOTH",
"388 588 OFFCURVE",
"363 649 OFFCURVE",
"317 693 OFFCURVE",
"252 717 OFFCURVE",
"211 717 QCURVE SMOOTH",
"160 717 OFFCURVE",
"77 679 OFFCURVE",
"54 649 QCURVE",
"54 552 LINE",
"72 578 OFFCURVE",
"109 612 OFFCURVE",
"147 633 OFFCURVE",
"183 641 OFFCURVE",
"201 641 QCURVE SMOOTH"
);
},
{
closed = 1;
nodes = (
"128 23 OFFCURVE",
"164 -9 OFFCURVE",
"188 -9 QCURVE SMOOTH",
"213 -9 OFFCURVE",
"249 23 OFFCURVE",
"249 50 QCURVE SMOOTH",
"249 73 OFFCURVE",
"214 109 OFFCURVE",
"188 109 QCURVE SMOOTH",
"164 109 OFFCURVE",
"128 73 OFFCURVE",
"128 51 QCURVE SMOOTH"
);
}
);
width = 442;
}
);
unicode = 003F;
},
{
glyphname = at;
layers = (
{
layerId = "6D82140E-0966-4184-BBA2-B1F9A77F6692";
paths = (
{
closed = 1;
nodes = (
"502 385 OFFCURVE",
"543 344 OFFCURVE",
"543 309 QCURVE SMOOTH",
"543 285 OFFCURVE",
"528 243 OFFCURVE",
"502 212 OFFCURVE",
"467 194 OFFCURVE",
"447 194 QCURVE SMOOTH",
"415 194 OFFCURVE",
"374 234 OFFCURVE",
"374 272 QCURVE SMOOTH",
"374 296 OFFCURVE",
"389 337 OFFCURVE",
"415 367 OFFCURVE",
"450 385 OFFCURVE",
"470 385 QCURVE SMOOTH"
);
},
{
closed = 1;
nodes = (
"728 -55 LINE",
"671 -88 OFFCURVE",
"555 -112 OFFCURVE",
"483 -112 QCURVE SMOOTH",
"394 -112 OFFCURVE",
"248 -54 OFFCURVE",
"145 50 OFFCURVE",
"89 191 OFFCURVE",
"89 275 QCURVE SMOOTH",
"89 358 OFFCURVE",
"146 501 OFFCURVE",
"249 607 OFFCURVE",
"393 667 OFFCURVE",
"480 667 QCURVE SMOOTH",
"566 667 OFFCURVE",
"705 614 OFFCURVE",
"805 522 OFFCURVE",
"859 397 OFFCURVE",
"859 325 QCURVE SMOOTH",
"859 275 OFFCURVE",
"844 199 OFFCURVE",
"815 148 OFFCURVE",
"775 122 OFFCURVE",
"751 122 QCURVE SMOOTH",
"730 122 OFFCURVE",
"704 140 OFFCURVE",
"690 169 OFFCURVE",
"687 206 OFFCURVE",
"690 225 QCURVE SMOOTH",
"736 483 LINE",
"581 507 LINE",
"569 446 LINE",
"549 477 OFFCURVE",
"484 520 OFFCURVE",
"435 520 QCURVE SMOOTH",
"390 520 OFFCURVE",
"310 479 OFFCURVE",
"250 408 OFFCURVE",
"214 314 OFFCURVE",
"214 260 QCURVE SMOOTH",
"214 214 OFFCURVE",
"242 140 OFFCURVE",
"291 88 OFFCURVE",
"358 59 OFFCURVE",
"397 59 QCURVE SMOOTH",
"445 59 OFFCURVE",
"515 100 OFFCURVE",
"544 133 QCURVE",
"562 102 OFFCURVE",
"635 57 OFFCURVE",
"698 57 QCURVE SMOOTH",
"739 57 OFFCURVE",
"816 90 OFFCURVE",
"875 156 OFFCURVE",
"911 257 OFFCURVE",
"911 325 QCURVE SMOOTH",
"911 405 OFFCURVE",
"846 546 OFFCURVE",
"731 652 OFFCURVE",
"573 714 OFFCURVE",
"480 714 QCURVE SMOOTH",
"386 714 OFFCURVE",
"223 645 OFFCURVE",
"105 525 OFFCURVE",
"37 365 OFFCURVE",
"37 275 QCURVE SMOOTH",
"37 184 OFFCURVE",
"104 25 OFFCURVE",
"223 -94 OFFCURVE",
"386 -162 OFFCURVE",
"483 -162 QCURVE SMOOTH",
"561 -162 OFFCURVE",
"690 -122 OFFCURVE",
"748 -87 QCURVE"
);
}
);
width = 948;
},
{
layerId = "8ED872FE-1BCA-4686-B4C5-0573B67FF490";
paths = (
{
closed = 1;
nodes = (
"506 445 OFFCURVE",
"560 383 OFFCURVE",
"560 334 QCURVE SMOOTH",
"560 304 OFFCURVE",
"539 248 OFFCURVE",
"502 204 OFFCURVE",
"453 178 OFFCURVE",
"424 178 QCURVE SMOOTH",
"377 178 OFFCURVE",
"323 243 OFFCURVE",
"323 295 QCURVE SMOOTH",
"323 326 OFFCURVE",
"344 380 OFFCURVE",
"380 421 OFFCURVE",
"430 445 OFFCURVE",
"458 445 QCURVE SMOOTH"
);
},
{
closed = 1;
nodes = (
"721 13 LINE",
"664 -24 OFFCURVE",
"549 -60 OFFCURVE",
"479 -60 QCURVE SMOOTH",
"393 -60 OFFCURVE",
"253 -4 OFFCURVE",
"154 94 OFFCURVE",
"101 227 OFFCURVE",
"101 305 QCURVE SMOOTH",
"101 383 OFFCURVE",
"156 518 OFFCURVE",
"253 617 OFFCURVE",
"386 673 OFFCURVE",
"464 673 QCURVE SMOOTH",
"540 673 OFFCURVE",
"668 622 OFFCURVE",
"761 533 OFFCURVE",
"814 413 OFFCURVE",
"814 343 QCURVE SMOOTH",
"814 300 OFFCURVE",
"795 229 OFFCURVE",
"764 179 OFFCURVE",
"722 152 OFFCURVE",
"698 152 QCURVE SMOOTH",
"682 152 OFFCURVE",
"658 165 OFFCURVE",
"643 187 OFFCURVE",
"636 219 OFFCURVE",
"637 237 QCURVE",
"675 501 LINE",
"591 510 LINE",
"581 446 LINE",
"561 479 OFFCURVE",
"499 523 OFFCURVE",
"448 523 QCURVE SMOOTH",
"404 523 OFFCURVE",
"325 486 OFFCURVE",
"266 422 OFFCURVE",
"232 338 OFFCURVE",
"232 290 QCURVE SMOOTH",
"232 248 OFFCURVE",
"259 179 OFFCURVE",
"306 130 OFFCURVE",
"370 102 OFFCURVE",
"408 102 QCURVE SMOOTH",
"459 102 OFFCURVE",
"531 149 OFFCURVE",
"557 184 QCURVE",
"572 143 OFFCURVE",
"628 100 OFFCURVE",
"676 100 QCURVE SMOOTH",
"715 100 OFFCURVE",
"784 133 OFFCURVE",
"835 198 OFFCURVE",
"864 292 OFFCURVE",
"864 352 QCURVE SMOOTH",
"864 429 OFFCURVE",
"802 562 OFFCURVE",
"694 661 OFFCURVE",
"548 718 OFFCURVE",
"465 718 QCURVE SMOOTH",
"377 718 OFFCURVE",
"225 653 OFFCURVE",
"113 541 OFFCURVE",
"49 390 OFFCURVE",
"49 303 QCURVE SMOOTH",
"49 217 OFFCURVE",
"112 68 OFFCURVE",
"224 -42 OFFCURVE",
"379 -105 OFFCURVE",
"471 -105 QCURVE SMOOTH",
"549 -105 OFFCURVE",
"684 -62 OFFCURVE",
"745 -21 QCURVE"
);
}
);
width = 913;
},
{
layerId = "4375AB62-CFBC-411E-9D12-25ECC6BFDF4C";
paths = (
{
closed = 1;
nodes = (
"506 452 OFFCURVE",
"563 390 OFFCURVE",
"563 339 QCURVE SMOOTH",
"563 308 OFFCURVE",
"541 249 OFFCURVE",
"502 203 OFFCURVE",
"449 175 OFFCURVE",
"419 175 QCURVE SMOOTH",
"370 175 OFFCURVE",
"313 245 OFFCURVE",
"313 299 QCURVE SMOOTH",
"313 331 OFFCURVE",
"335 389 OFFCURVE",
"373 429 OFFCURVE",
"425 457 OFFCURVE",
"455 452 QCURVE"
);
},
{
closed = 1;
nodes = (
"720 26 LINE",
"662 -11 OFFCURVE",
"548 -49 OFFCURVE",
"478 -49 QCURVE SMOOTH",
"393 -49 OFFCURVE",
"254 6 OFFCURVE",
"156 103 OFFCURVE",
"103 235 OFFCURVE",
"103 312 QCURVE SMOOTH",
"103 388 OFFCURVE",
"157 521 OFFCURVE",
"253 618 OFFCURVE",
"384 674 OFFCURVE",
"461 674 QCURVE SMOOTH",
"535 674 OFFCURVE",
"660 624 OFFCURVE",
"753 535 OFFCURVE",
"805 415 OFFCURVE",
"805 347 QCURVE SMOOTH",
"805 304 OFFCURVE",
"786 235 OFFCURVE",
"753 185 OFFCURVE",
"711 158 OFFCURVE",
"687 158 QCURVE SMOOTH",
"672 158 OFFCURVE",
"649 170 OFFCURVE",
"634 191 OFFCURVE",
"626 221 OFFCURVE",
"626 239 QCURVE",
"663 505 LINE",
"593 511 LINE",
"583 446 LINE",
"564 479 OFFCURVE",
"502 524 OFFCURVE",
"451 524 QCURVE SMOOTH",
"407 524 OFFCURVE",
"328 488 OFFCURVE",
"269 425 OFFCURVE",
"235 343 OFFCURVE",
"235 296 QCURVE SMOOTH",
"235 255 OFFCURVE",
"262 187 OFFCURVE",
"308 138 OFFCURVE",
"373 111 OFFCURVE",
"410 111 QCURVE SMOOTH",
"461 111 OFFCURVE",
"535 159 OFFCURVE",
"560 194 QCURVE",
"574 152 OFFCURVE",
"626 109 OFFCURVE",
"671 109 QCURVE SMOOTH",
"710 109 OFFCURVE",
"776 142 OFFCURVE",
"826 206 OFFCURVE",
"854 298 OFFCURVE",
"854 357 QCURVE SMOOTH",
"854 433 OFFCURVE",
"793 565 OFFCURVE",
"686 663 OFFCURVE",
"543 719 OFFCURVE",
"462 719 QCURVE SMOOTH",
"375 719 OFFCURVE",
"225 655 OFFCURVE",
"114 544 OFFCURVE",
"51 395 OFFCURVE",
"51 309 QCURVE SMOOTH",
"51 224 OFFCURVE",
"113 77 OFFCURVE",
"224 -31 OFFCURVE",
"378 -93 OFFCURVE",
"469 -93 QCURVE SMOOTH",
"547 -93 OFFCURVE",
"683 -50 OFFCURVE",
"744 -8 QCURVE"
);
}
);
width = 906;
}
);
unicode = 0040;
},
{
glyphname = A;
layers = (
{
layerId = "6D82140E-0966-4184-BBA2-B1F9A77F6692";
paths = (
{
closed = 1;
nodes = (
"516 125 LINE",
"567 0 LINE",
"775 0 LINE",
"477 705 LINE",
"290 705 LINE",
"-8 0 LINE",
"196 0 LINE",
"246 125 LINE"
);
},
{
closed = 1;
nodes = (
"382 475 LINE",
"460 276 LINE",
"303 276 LINE"
);
}
);
width = 767;
},
{
layerId = "8ED872FE-1BCA-4686-B4C5-0573B67FF490";
paths = (
{
closed = 1;
nodes = (
"507 185 LINE",
"585 0 LINE",
"698 0 LINE",
"390 705 LINE",
"301 705 LINE",
"-6 0 LINE",
"104 0 LINE",
"184 185 LINE"
);
},
{
closed = 1;
nodes = (
"345 584 LINE",
"471 273 LINE",
"220 273 LINE"
);
}
);
width = 692;
},
{
layerId = "4375AB62-CFBC-411E-9D12-25ECC6BFDF4C";
paths = (
{
closed = 1;
nodes = (
"505 197 LINE",
"589 0 LINE",
"682 0 LINE",
"373 705 LINE",
"303 705 LINE",
"-5 0 LINE",
"86 0 LINE",
"171 197 LINE"
);
},
{
closed = 1;
nodes = (
"338 606 LINE",
"473 272 LINE",
"203 272 LINE"
);
}
);
width = 677;
}
);
unicode = 0041;
},
{
glyphname = B;
layers = (
{
layerId = "6D82140E-0966-4184-BBA2-B1F9A77F6692";
paths = (
{
closed = 1;
nodes = (
"58 0 LINE",
"417 0 LINE SMOOTH",
"480 0 OFFCURVE",
"580 27 OFFCURVE",
"648 78 OFFCURVE",
"684 150 OFFCURVE",
"684 195 QCURVE SMOOTH",
"684 266 OFFCURVE",
"609 347 OFFCURVE",
"545 366 QCURVE",
"593 386 OFFCURVE",
"653 463 OFFCURVE",
"653 524 QCURVE SMOOTH",
"653 566 OFFCURVE",
"620 631 OFFCURVE",
"558 676 OFFCURVE",
"470 700 OFFCURVE",
"415 700 QCURVE SMOOTH",
"58 700 LINE"
);
},
{
closed = 1;
nodes = (
"247 544 LINE",
"372 544 LINE SMOOTH",
"415 544 OFFCURVE",
"459 513 OFFCURVE",
"459 484 QCURVE SMOOTH",
"459 453 OFFCURVE",
"412 421 OFFCURVE",
"368 421 QCURVE SMOOTH",
"247 421 LINE"
);
},
{
closed = 1;
nodes = (
"247 285 LINE",
"394 285 LINE SMOOTH",
"418 285 OFFCURVE",
"454 276 OFFCURVE",
"478 260 OFFCURVE",
"490 236 OFFCURVE",
"490 222 QCURVE SMOOTH",
"490 191 OFFCURVE",
"441 156 OFFCURVE",
"396 156 QCURVE SMOOTH",
"247 156 LINE"
);
}
);
width = 718;
},
{
layerId = "8ED872FE-1BCA-4686-B4C5-0573B67FF490";
paths = (
{
closed = 1;
nodes = (
"76 0 LINE",
"327 0 LINE SMOOTH",
"401 0 OFFCURVE",
"507 31 OFFCURVE",
"575 83 OFFCURVE",
"607 154 OFFCURVE",
"607 194 QCURVE SMOOTH",
"607 259 OFFCURVE",
"529 353 OFFCURVE",
"445 366 QCURVE",
"496 385 OFFCURVE",
"548 470 OFFCURVE",
"548 527 QCURVE SMOOTH",
"548 575 OFFCURVE",
"507 643 OFFCURVE",
"440 685 OFFCURVE",
"351 704 OFFCURVE",
"303 704 QCURVE SMOOTH",
"76 704 LINE"
);
},
{
closed = 1;
nodes = (
"178 617 LINE",
"305 617 LINE SMOOTH",
"370 617 OFFCURVE",
"446 565 OFFCURVE",
"446 510 QCURVE SMOOTH",
"446 463 OFFCURVE",
"377 400 OFFCURVE",
"304 400 QCURVE SMOOTH",
"178 400 LINE"
);
},
{
closed = 1;
nodes = (
"178 316 LINE",
"307 316 LINE SMOOTH",
"361 316 OFFCURVE",
"436 301 OFFCURVE",
"483 272 OFFCURVE",
"504 229 OFFCURVE",
"504 202 QCURVE SMOOTH",
"504 147 OFFCURVE",
"423 88 OFFCURVE",
"335 88 QCURVE SMOOTH",
"178 88 LINE"
);
}
);
width = 651;
},
{
layerId = "4375AB62-CFBC-411E-9D12-25ECC6BFDF4C";
paths = (
{
closed = 1;
nodes = (
"80 0 LINE",
"309 0 LINE SMOOTH",
"385 0 OFFCURVE",
"492 31 OFFCURVE",
"560 84 OFFCURVE",
"591 155 OFFCURVE",
"591 194 QCURVE SMOOTH",
"591 258 OFFCURVE",
"513 354 OFFCURVE",
"425 366 QCURVE",
"476 385 OFFCURVE",
"527 470 OFFCURVE",
"527 527 QCURVE SMOOTH",
"527 577 OFFCURVE",
"485 645 OFFCURVE",
"416 687 OFFCURVE",
"328 705 OFFCURVE",
"281 705 QCURVE SMOOTH",
"80 705 LINE"
);
},
{
closed = 1;
nodes = (
"164 631 LINE",
"291 631 LINE SMOOTH",
"360 631 OFFCURVE",
"443 575 OFFCURVE",
"443 515 QCURVE SMOOTH",
"443 465 OFFCURVE",
"370 396 OFFCURVE",
"291 396 QCURVE SMOOTH",
"164 396 LINE"
);
},
{
closed = 1;
nodes = (
"164 322 LINE",
"290 322 LINE SMOOTH",
"350 322 OFFCURVE",
"433 306 OFFCURVE",
"484 274 OFFCURVE",
"507 228 OFFCURVE",
"507 198 QCURVE SMOOTH",
"507 138 OFFCURVE",
"420 74 OFFCURVE",
"323 74 QCURVE SMOOTH",
"164 74 LINE"
);
}
);
width = 637;
}
);
unicode = 0042;
},
{
glyphname = C;
layers = (
{
layerId = "6D82140E-0966-4184-BBA2-B1F9A77F6692";
paths = (
{
closed = 1;
nodes = (
"622 248 LINE",
"599 227 OFFCURVE",
"552 195 OFFCURVE",
"503 174 OFFCURVE",
"452 163 OFFCURVE",
"424 163 QCURVE SMOOTH",
"379 163 OFFCURVE",
"310 192 OFFCURVE",
"262 243 OFFCURVE",
"237 312 OFFCURVE",
"237 352 QCURVE SMOOTH",
"237 390 OFFCURVE",
"262 458 OFFCURVE",
"310 508 OFFCURVE",
"380 537 OFFCURVE",
"424 537 QCURVE SMOOTH",
"483 537 OFFCURVE",
"583 490 OFFCURVE",
"617 455 QCURVE",
"617 652 LINE",
"575 681 OFFCURVE",
"472 714 OFFCURVE",
"406 714 QCURVE SMOOTH",
"327 714 OFFCURVE",
"191 658 OFFCURVE",
"93 559 OFFCURVE",
"37 427 OFFCURVE",
"37 350 QCURVE SMOOTH",
"37 272 OFFCURVE",
"94 138 OFFCURVE",
"191 41 OFFCURVE",
"323 -14 OFFCURVE",
"398 -14 QCURVE SMOOTH",
"464 -14 OFFCURVE",
"573 20 OFFCURVE",
"622 54 QCURVE"
);
}
);
width = 665;
},
{
layerId = "8ED872FE-1BCA-4686-B4C5-0573B67FF490";
paths = (
{
closed = 1;
nodes = (
"643 187 LINE",
"618 165 OFFCURVE",
"567 126 OFFCURVE",
"512 97 OFFCURVE",
"449 80 OFFCURVE",
"412 80 QCURVE SMOOTH",
"355 80 OFFCURVE",
"260 123 OFFCURVE",
"192 196 OFFCURVE",
"155 295 OFFCURVE",
"155 352 QCURVE SMOOTH",
"155 408 OFFCURVE",
"192 508 OFFCURVE",
"260 582 OFFCURVE",
"355 625 OFFCURVE",
"412 625 QCURVE SMOOTH",
"490 625 OFFCURVE",
"593 573 OFFCURVE",
"630 532 QCURVE",
"630 645 LINE",
"588 677 OFFCURVE",
"484 718 OFFCURVE",
"414 718 QCURVE SMOOTH",
"335 718 OFFCURVE",
"201 661 OFFCURVE",
"104 562 OFFCURVE",
"49 428 OFFCURVE",
"49 351 QCURVE SMOOTH",
"49 273 OFFCURVE",
"104 140 OFFCURVE",
"202 42 OFFCURVE",
"334 -14 OFFCURVE",
"410 -14 QCURVE SMOOTH",
"484 -14 OFFCURVE",
"595 34 OFFCURVE",
"643 74 QCURVE"
);
}
);
width = 699;
},
{
layerId = "4375AB62-CFBC-411E-9D12-25ECC6BFDF4C";
paths = (
{
closed = 1;
nodes = (
"647 175 LINE",
"622 153 OFFCURVE",
"570 112 OFFCURVE",
"513 81 OFFCURVE",
"448 63 OFFCURVE",
"410 63 QCURVE SMOOTH",
"350 63 OFFCURVE",
"250 108 OFFCURVE",
"178 187 OFFCURVE",
"138 292 OFFCURVE",
"138 352 QCURVE SMOOTH",
"138 412 OFFCURVE",
"178 518 OFFCURVE",
"250 597 OFFCURVE",
"350 643 OFFCURVE",
"410 643 QCURVE SMOOTH",
"492 643 OFFCURVE",
"595 590 OFFCURVE",
"633 547 QCURVE",
"633 643 LINE",
"590 676 OFFCURVE",
"487 719 OFFCURVE",
"415 719 QCURVE SMOOTH",
"336 719 OFFCURVE",
"203 662 OFFCURVE",
"106 563 OFFCURVE",
"51 428 OFFCURVE",
"51 351 QCURVE SMOOTH",
"51 273 OFFCURVE",
"106 140 OFFCURVE",
"203 42 OFFCURVE",
"335 -14 OFFCURVE",
"412 -14 QCURVE SMOOTH",
"487 -14 OFFCURVE",
"599 36 OFFCURVE",
"647 78 QCURVE"
);
}
);
width = 706;
}
);
unicode = 0043;
},
{
glyphname = D;
layers = (
{
layerId = "6D82140E-0966-4184-BBA2-B1F9A77F6692";
paths = (
{
closed = 1;
nodes = (
"58 0 LINE",
"324 0 LINE SMOOTH",
"419 0 OFFCURVE",
"567 54 OFFCURVE",
"669 149 OFFCURVE",
"723 278 OFFCURVE",
"723 354 QCURVE SMOOTH",
"723 430 OFFCURVE",
"670 557 OFFCURVE",
"569 649 OFFCURVE",
"422 700 OFFCURVE",
"328 700 QCURVE SMOOTH",
"58 700 LINE"
);
},
{
closed = 1;
nodes = (
"252 528 LINE",
"331 528 LINE SMOOTH",
"374 528 OFFCURVE",
"445 504 OFFCURVE",
"496 459 OFFCURVE",
"524 393 OFFCURVE",
"524 351 QCURVE SMOOTH",
"524 309 OFFCURVE",
"496 242 OFFCURVE",
"446 196 OFFCURVE",
"375 172 OFFCURVE",
"331 172 QCURVE SMOOTH",
"252 172 LINE"
);
}
);
width = 761;
},
{
layerId = "8ED872FE-1BCA-4686-B4C5-0573B67FF490";
paths = (
{
closed = 1;
nodes = (
"76 0 LINE",
"304 0 LINE SMOOTH",
"391 0 OFFCURVE",
"531 52 OFFCURVE",
"631 146 OFFCURVE",
"685 276 OFFCURVE",
"685 353 QCURVE SMOOTH",
"685 433 OFFCURVE",
"628 562 OFFCURVE",
"528 654 OFFCURVE",
"389 704 OFFCURVE",
"306 704 QCURVE SMOOTH",
"76 704 LINE"
);
},
{
closed = 1;
nodes = (
"180 611 LINE",
"342 611 LINE SMOOTH",
"399 611 OFFCURVE",
"486 566 OFFCURVE",
"546 492 OFFCURVE",
"577 399 OFFCURVE",
"577 351 QCURVE SMOOTH",
"577 294 OFFCURVE",
"541 199 OFFCURVE",
"470 130 OFFCURVE",
"368 92 OFFCURVE",
"302 92 QCURVE SMOOTH",
"180 92 LINE"
);
}
);
width = 734;
},
{
layerId = "4375AB62-CFBC-411E-9D12-25ECC6BFDF4C";
paths = (
{
closed = 1;
nodes = (
"80 0 LINE",
"300 0 LINE SMOOTH",
"385 0 OFFCURVE",
"524 52 OFFCURVE",
"623 146 OFFCURVE",
"677 275 OFFCURVE",
"677 353 QCURVE SMOOTH",
"677 433 OFFCURVE",
"620 563 OFFCURVE",
"519 655 OFFCURVE",
"381 705 OFFCURVE",
"301 705 QCURVE SMOOTH",
"80 705 LINE"
);
},
{
closed = 1;
nodes = (
"165 628 LINE",
"344 628 LINE SMOOTH",
"403 628 OFFCURVE",
"494 578 OFFCURVE",
"556 499 OFFCURVE",
"587 400 OFFCURVE",
"587 351 QCURVE SMOOTH",
"587 291 OFFCURVE",
"549 190 OFFCURVE",
"475 117 OFFCURVE",
"367 76 OFFCURVE",
"296 76 QCURVE SMOOTH",
"165 76 LINE"
);
}
);
width = 729;
}
);
unicode = 0044;
},
{
glyphname = E;
layers = (
{
layerId = "6D82140E-0966-4184-BBA2-B1F9A77F6692";
paths = (
{
closed = 1;
nodes = (
"250 276 LINE",
"586 276 LINE",
"586 429 LINE",
"250 429 LINE",
"250 535 LINE",
"621 535 LINE",
"621 700 LINE",
"58 700 LINE",
"58 0 LINE",
"626 0 LINE",
"626 165 LINE",
"250 165 LINE"
);
}
);
width = 675;
},
{
layerId = "8ED872FE-1BCA-4686-B4C5-0573B67FF490";
paths = (
{
closed = 1;
nodes = (
"180 314 LINE",
"524 314 LINE",
"524 402 LINE",
"180 402 LINE",
"180 613 LINE",
"554 613 LINE",
"554 704 LINE",
"76 704 LINE",
"76 0 LINE",
"564 0 LINE",
"564 91 LINE",
"180 91 LINE"
);
}
);
width = 628;
},
{
layerId = "4375AB62-CFBC-411E-9D12-25ECC6BFDF4C";
paths = (
{
closed = 1;
nodes = (
"166 321 LINE",
"511 321 LINE",
"511 397 LINE",
"166 397 LINE",
"166 629 LINE",
"540 629 LINE",
"540 705 LINE",
"80 705 LINE",
"80 0 LINE",
"551 0 LINE",
"551 76 LINE",
"166 76 LINE"
);
}
);
width = 618;
}
);
unicode = 0045;
},
{
glyphname = F;
layers = (
{
layerId = "6D82140E-0966-4184-BBA2-B1F9A77F6692";
paths = (
{
closed = 1;
nodes = (
"252 250 LINE",
"583 250 LINE",
"583 411 LINE",
"252 411 LINE",
"252 530 LINE",
"618 530 LINE",
"618 700 LINE",
"58 700 LINE",
"58 0 LINE",
"252 0 LINE"
);
}
);
width = 659;
},
{
layerId = "8ED872FE-1BCA-4686-B4C5-0573B67FF490";
paths = (
{
closed = 1;
nodes = (
"180 303 LINE",
"519 303 LINE",
"519 393 LINE",
"180 393 LINE",
"180 613 LINE",
"551 613 LINE",
"551 704 LINE",
"76 704 LINE",
"76 -2 LINE",
"180 -2 LINE"
);
}
);
width = 601;
},
{
layerId = "4375AB62-CFBC-411E-9D12-25ECC6BFDF4C";
paths = (
{
closed = 1;
nodes = (
"165 313 LINE",
"506 313 LINE",
"506 389 LINE",
"165 389 LINE",
"165 629 LINE",
"537 629 LINE",
"537 705 LINE",
"80 705 LINE",
"80 0 LINE",
"165 0 LINE"
);
}
);
width = 589;
}
);
unicode = 0046;
},
{
glyphname = G;
layers = (
{
layerId = "6D82140E-0966-4184-BBA2-B1F9A77F6692";
paths = (
{
closed = 1;
nodes = (
"538 267 LINE",
"538 236 OFFCURVE",
"513 192 OFFCURVE",
"474 165 OFFCURVE",
"428 153 OFFCURVE",
"408 153 QCURVE SMOOTH",
"373 153 OFFCURVE",
"310 182 OFFCURVE",
"263 234 OFFCURVE",
"236 306 OFFCURVE",
"236 349 QCURVE SMOOTH",
"236 389 OFFCURVE",
"264 459 OFFCURVE",
"314 511 OFFCURVE",
"383 541 OFFCURVE",
"425 541 QCURVE SMOOTH",
"474 541 OFFCURVE",
"566 507 OFFCURVE",
"604 475 QCURVE",
"604 680 LINE",
"567 696 OFFCURVE",
"465 714 OFFCURVE",
"414 714 QCURVE SMOOTH",
"333 714 OFFCURVE",
"194 658 OFFCURVE",
"94 559 OFFCURVE",
"37 427 OFFCURVE",
"37 350 QCURVE SMOOTH",
"37 271 OFFCURVE",
"94 137 OFFCURVE",
"192 40 OFFCURVE",
"324 -14 OFFCURVE",
"398 -14 QCURVE SMOOTH",
"456 -14 OFFCURVE",
"572 21 OFFCURVE",
"664 108 OFFCURVE",
"722 256 OFFCURVE",
"722 369 QCURVE SMOOTH",
"722 409 LINE",
"400 409 LINE",
"400 267 LINE"
);
}
);
width = 759;
},
{
layerId = "8ED872FE-1BCA-4686-B4C5-0573B67FF490";
paths = (
{
closed = 1;
nodes = (
"673 312 LINE",
"673 258 OFFCURVE",
"634 171 OFFCURVE",
"566 110 OFFCURVE",
"474 77 OFFCURVE",
"422 77 QCURVE SMOOTH",
"365 77 OFFCURVE",
"266 119 OFFCURVE",
"194 192 OFFCURVE",
"153 293 OFFCURVE",
"153 352 QCURVE SMOOTH",
"153 408 OFFCURVE",
"198 507 OFFCURVE",
"276 582 OFFCURVE",
"379 626 OFFCURVE",
"437 626 QCURVE SMOOTH",
"506 626 OFFCURVE",
"615 578 OFFCURVE",
"653 540 QCURVE",
"653 653 LINE",
"602 688 OFFCURVE",
"488 718 OFFCURVE",
"430 718 QCURVE SMOOTH",
"351 718 OFFCURVE",
"212 661 OFFCURVE",
"108 562 OFFCURVE",
"49 429 OFFCURVE",
"49 352 QCURVE SMOOTH",
"49 275 OFFCURVE",
"104 141 OFFCURVE",
"202 41 OFFCURVE",
"337 -16 OFFCURVE",
"416 -16 QCURVE SMOOTH",
"503 -16 OFFCURVE",
"635 42 OFFCURVE",
"725 145 OFFCURVE",
"770 288 OFFCURVE",
"770 372 QCURVE SMOOTH",
"770 401 LINE",
"474 401 LINE",
"474 312 LINE"
);
}
);
width = 819;
},
{
layerId = "4375AB62-CFBC-411E-9D12-25ECC6BFDF4C";
paths = (
{
closed = 1;
nodes = (
"700 321 LINE",
"700 263 OFFCURVE",
"658 167 OFFCURVE",
"584 99 OFFCURVE",
"484 62 OFFCURVE",
"425 62 QCURVE SMOOTH",
"363 62 OFFCURVE",
"257 106 OFFCURVE",
"180 184 OFFCURVE",
"136 290 OFFCURVE",
"136 352 QCURVE SMOOTH",
"136 411 OFFCURVE",
"185 517 OFFCURVE",
"268 597 OFFCURVE",
"378 643 OFFCURVE",
"439 643 QCURVE SMOOTH",
"512 643 OFFCURVE",
"625 591 OFFCURVE",
"663 553 QCURVE",
"663 647 LINE",
"609 686 OFFCURVE",
"493 719 OFFCURVE",
"433 719 QCURVE SMOOTH",
"354 719 OFFCURVE",
"215 662 OFFCURVE",
"111 563 OFFCURVE",
"51 429 OFFCURVE",
"51 352 QCURVE SMOOTH",
"51 276 OFFCURVE",
"106 142 OFFCURVE",
"204 42 OFFCURVE",
"339 -16 OFFCURVE",
"419 -16 QCURVE SMOOTH",
"512 -16 OFFCURVE",
"648 47 OFFCURVE",
"737 153 OFFCURVE",
"780 294 OFFCURVE",
"780 373 QCURVE SMOOTH",
"780 399 LINE",
"489 399 LINE",
"489 321 LINE"
);
}
);
width = 831;
}
);
unicode = 0047;
},
{
glyphname = H;
layers = (
{
layerId = "6D82140E-0966-4184-BBA2-B1F9A77F6692";
paths = (
{
closed = 1;
nodes = (
"58 0 LINE",
"252 0 LINE",
"252 266 LINE",
"501 266 LINE",
"501 0 LINE",
"695 0 LINE",
"695 700 LINE",
"501 700 LINE",
"501 438 LINE",
"252 438 LINE",
"252 700 LINE",
"58 700 LINE"
);
}
);
width = 754;
},
{
layerId = "8ED872FE-1BCA-4686-B4C5-0573B67FF490";
paths = (
{
closed = 1;
nodes = (
"76 0 LINE",
"179 0 LINE",
"179 311 LINE",
"539 311 LINE",
"539 0 LINE",
"641 0 LINE",
"641 705 LINE",
"539 705 LINE",
"539 405 LINE",
"179 405 LINE",
"179 705 LINE",
"76 705 LINE"
);
}
);
width = 717;
},
{
layerId = "4375AB62-CFBC-411E-9D12-25ECC6BFDF4C";
paths = (
{
closed = 1;
nodes = (
"80 0 LINE",
"164 0 LINE",
"164 320 LINE",
"546 320 LINE",
"546 0 LINE",
"630 0 LINE",
"630 706 LINE",
"546 706 LINE",
"546 398 LINE",
"164 398 LINE",
"164 706 LINE",
"80 706 LINE"
);
}
);
width = 709;
}
);
unicode = 0048;
},
{
glyphname = J;
layers = (
{
layerId = "6D82140E-0966-4184-BBA2-B1F9A77F6692";
paths = (
{
closed = 1;
nodes = (
"0 41 LINE",
"35 17 OFFCURVE",
"111 -12 OFFCURVE",
"154 -12 QCURVE SMOOTH",
"217 -12 OFFCURVE",
"316 27 OFFCURVE",
"385 97 OFFCURVE",
"422 196 OFFCURVE",
"422 256 QCURVE SMOOTH",
"422 700 LINE",
"229 700 LINE",
"229 257 LINE SMOOTH",
"229 208 OFFCURVE",
"177 159 OFFCURVE",
"139 159 QCURVE SMOOTH",
"96 159 OFFCURVE",
"29 207 OFFCURVE",
"0 235 QCURVE"
);
}
);
width = 475;
},
{
layerId = "8ED872FE-1BCA-4686-B4C5-0573B67FF490";
paths = (
{
closed = 1;
nodes = (
"0 25 LINE",
"26 8 OFFCURVE",
"86 -11 OFFCURVE",
"117 -11 QCURVE SMOOTH",
"164 -11 OFFCURVE",
"239 19 OFFCURVE",
"290 76 OFFCURVE",
"317 162 OFFCURVE",
"317 217 QCURVE SMOOTH",
"317 704 LINE",
"213 704 LINE",
"213 215 LINE SMOOTH",
"213 141 OFFCURVE",
"163 81 OFFCURVE",
"117 81 QCURVE SMOOTH",
"83 81 OFFCURVE",
"27 107 OFFCURVE",
"0 124 QCURVE"
);
}
);
width = 386;
},
{
layerId = "4375AB62-CFBC-411E-9D12-25ECC6BFDF4C";
paths = (
{
closed = 1;
nodes = (
"0 22 LINE",
"24 6 OFFCURVE",
"81 -11 OFFCURVE",
"110 -11 QCURVE SMOOTH",
"154 -11 OFFCURVE",
"223 17 OFFCURVE",
"271 72 OFFCURVE",
"296 155 OFFCURVE",
"296 209 QCURVE SMOOTH",
"296 705 LINE",
"210 705 LINE",
"210 207 LINE SMOOTH",
"210 128 OFFCURVE",
"160 65 OFFCURVE",
"112 65 QCURVE SMOOTH",
"80 65 OFFCURVE",
"26 86 OFFCURVE",
"0 102 QCURVE"
);
}
);
width = 368;
}
);
unicode = 004A;
},
{
glyphname = K;
layers = (
{
layerId = "6D82140E-0966-4184-BBA2-B1F9A77F6692";
paths = (
{
closed = 1;
nodes = (
"252 700 LINE",
"58 700 LINE",
"58 0 LINE",
"252 0 LINE",
"252 368 LINE",
"499 0 LINE",
"732 0 LINE",
"458 399 LINE",
"723 700 LINE",
"493 700 LINE",
"252 416 LINE"
);
}
);
width = 724;
},
{
layerId = "8ED872FE-1BCA-4686-B4C5-0573B67FF490";
paths = (
{
closed = 1;
nodes = (
"179 704 LINE",
"76 704 LINE",
"76 0 LINE",
"179 0 LINE",
"179 336 LINE",
"466 0 LINE",
"595 0 LINE",
"273 379 LINE",
"570 704 LINE",
"441 704 LINE",
"179 410 LINE"
);
}
);
width = 593;
},
{
layerId = "4375AB62-CFBC-411E-9D12-25ECC6BFDF4C";
paths = (
{
closed = 1;
nodes = (
"164 705 LINE",
"80 705 LINE",
"80 0 LINE",
"164 0 LINE",
"164 330 LINE",
"459 0 LINE",
"567 0 LINE",
"236 375 LINE",
"539 705 LINE",
"431 705 LINE",
"164 409 LINE"
);
}
);
width = 567;
}
);
unicode = 004B;
},
{
glyphname = L;
layers = (
{
layerId = "6D82140E-0966-4184-BBA2-B1F9A77F6692";
paths = (
{
closed = 1;
nodes = (
"252 700 LINE",
"58 700 LINE",
"58 0 LINE",
"591 0 LINE",
"591 170 LINE",
"252 170 LINE"
);
}
);
width = 607;
},
{
layerId = "8ED872FE-1BCA-4686-B4C5-0573B67FF490";
paths = (
{
closed = 1;
nodes = (
"180 704 LINE",
"76 704 LINE",
"76 0 LINE",
"524 0 LINE",
"524 92 LINE",
"180 92 LINE"
);
}
);
width = 540;
},
{
layerId = "4375AB62-CFBC-411E-9D12-25ECC6BFDF4C";
paths = (
{
closed = 1;
nodes = (
"165 705 LINE",
"80 705 LINE",
"80 0 LINE",
"510 0 LINE",
"510 76 LINE",
"165 76 LINE"
);
}
);
width = 526;
}
);
unicode = 004C;
},
{
glyphname = M;
layers = (
{
layerId = "6D82140E-0966-4184-BBA2-B1F9A77F6692";
paths = (
{
closed = 1;
nodes = (
"388 128 LINE",
"569 402 LINE",
"569 0 LINE",
"762 0 LINE",
"762 700 LINE",
"557 700 LINE",
"390 429 LINE",
"223 700 LINE",
"18 700 LINE",
"18 0 LINE",
"208 0 LINE",
"208 400 LINE"
);
}
);
width = 780;
},
{
layerId = "8ED872FE-1BCA-4686-B4C5-0573B67FF490";
paths = (
{
closed = 1;
nodes = (
"386 149 LINE",
"643 538 LINE",
"643 0 LINE",
"745 0 LINE",
"745 700 LINE",
"643 700 LINE",
"386 304 LINE",
"129 700 LINE",
"26 700 LINE",
"26 0 LINE",
"128 0 LINE",
"128 538 LINE"
);
}
);
width = 773;
},
{
layerId = "4375AB62-CFBC-411E-9D12-25ECC6BFDF4C";
paths = (
{
closed = 1;
nodes = (
"385 153 LINE",
"658 565 LINE",
"658 0 LINE",
"742 0 LINE",
"742 700 LINE",
"660 700 LINE",
"385 279 LINE",
"110 700 LINE",
"28 700 LINE",
"28 0 LINE",
"112 0 LINE",
"112 565 LINE"
);
}
);
width = 771;
}
);
unicode = 004D;
},
{
glyphname = N;
layers = (
{
layerId = "6D82140E-0966-4184-BBA2-B1F9A77F6692";
paths = (
{
closed = 1;
nodes = (
"239 700 LINE",
"58 700 LINE",
"58 0 LINE",
"250 0 LINE",
"250 384 LINE",
"549 0 LINE",
"719 0 LINE",
"719 700 LINE",
"527 700 LINE",
"527 330 LINE"
);
}
);
width = 778;
},
{
layerId = "8ED872FE-1BCA-4686-B4C5-0573B67FF490";
paths = (
{
closed = 1;
nodes = (
"177 700 LINE",
"76 700 LINE",
"76 0 LINE",
"177 0 LINE",
"177 545 LINE",
"577 0 LINE",
"675 0 LINE",
"675 704 LINE",
"575 704 LINE",
"575 160 LINE"
);
}
);
width = 751;
},
{
layerId = "4375AB62-CFBC-411E-9D12-25ECC6BFDF4C";
paths = (
{
closed = 1;
nodes = (
"165 700 LINE",
"80 700 LINE",
"80 0 LINE",
"162 0 LINE",
"162 577 LINE",
"582 0 LINE",
"666 0 LINE",
"666 705 LINE",
"584 705 LINE",
"584 126 LINE"
);
}
);
width = 746;
}
);
unicode = 004E;
},
{
glyphname = O;
layers = (
{
layerId = "6D82140E-0966-4184-BBA2-B1F9A77F6692";
paths = (
{
closed = 1;
nodes = (
"791 427 OFFCURVE",
"734 559 OFFCURVE",
"633 657 OFFCURVE",
"495 714 OFFCURVE",
"414 714 QCURVE SMOOTH",
"333 714 OFFCURVE",
"195 657 OFFCURVE",
"94 558 OFFCURVE",
"37 425 OFFCURVE",
"37 350 QCURVE SMOOTH",
"37 275 OFFCURVE",
"94 142 OFFCURVE",
"194 43 OFFCURVE",
"332 -14 OFFCURVE",
"413 -14 QCURVE SMOOTH",
"494 -14 OFFCURVE",
"632 44 OFFCURVE",
"733 143 OFFCURVE",
"791 277 OFFCURVE",
"791 352 QCURVE SMOOTH"
);
},
{
closed = 1;
nodes = (
"592 313 OFFCURVE",
"566 244 OFFCURVE",
"520 192 OFFCURVE",
"454 161 OFFCURVE",
"414 161 QCURVE SMOOTH",
"375 161 OFFCURVE",
"309 192 OFFCURVE",
"262 245 OFFCURVE",
"236 314 OFFCURVE",
"236 352 QCURVE SMOOTH",
"236 390 OFFCURVE",
"262 458 OFFCURVE",
"308 509 OFFCURVE",
"373 539 OFFCURVE",
"413 539 QCURVE SMOOTH",
"453 539 OFFCURVE",
"519 508 OFFCURVE",
"566 456 OFFCURVE",
"592 388 OFFCURVE",
"592 350 QCURVE SMOOTH"
);
}
);
width = 828;
},
{
layerId = "8ED872FE-1BCA-4686-B4C5-0573B67FF490";
paths = (
{
closed = 1;
nodes = (
"784 429 OFFCURVE",
"729 561 OFFCURVE",
"632 660 OFFCURVE",
"498 718 OFFCURVE",
"418 718 QCURVE SMOOTH",
"338 718 OFFCURVE",
"203 660 OFFCURVE",
"104 561 OFFCURVE",
"49 427 OFFCURVE",
"49 351 QCURVE SMOOTH",
"49 275 OFFCURVE",
"104 142 OFFCURVE",
"201 43 OFFCURVE",
"336 -14 OFFCURVE",
"416 -14 QCURVE SMOOTH",
"496 -14 OFFCURVE",
"630 44 OFFCURVE",
"729 144 OFFCURVE",
"784 278 OFFCURVE",
"784 354 QCURVE SMOOTH"
);
},
{
closed = 1;
nodes = (
"678 294 OFFCURVE",
"639 195 OFFCURVE",
"570 122 OFFCURVE",
"474 79 OFFCURVE",
"417 79 QCURVE SMOOTH",
"359 79 OFFCURVE",
"262 122 OFFCURVE",
"193 196 OFFCURVE",
"154 296 OFFCURVE",
"154 354 QCURVE SMOOTH",
"154 410 OFFCURVE",
"193 509 OFFCURVE",
"262 583 OFFCURVE",
"359 625 OFFCURVE",
"417 625 QCURVE SMOOTH",
"474 625 OFFCURVE",
"570 582 OFFCURVE",
"639 507 OFFCURVE",
"678 407 OFFCURVE",
"678 350 QCURVE SMOOTH"
);
}
);
width = 832;
},
{
layerId = "4375AB62-CFBC-411E-9D12-25ECC6BFDF4C";
paths = (
{
closed = 1;
nodes = (
"782 429 OFFCURVE",
"728 561 OFFCURVE",
"631 661 OFFCURVE",
"498 719 OFFCURVE",
"419 719 QCURVE SMOOTH",
"339 719 OFFCURVE",
"204 661 OFFCURVE",
"106 562 OFFCURVE",
"51 428 OFFCURVE",
"51 352 QCURVE SMOOTH",
"51 276 OFFCURVE",
"105 142 OFFCURVE",
"203 43 OFFCURVE",
"337 -14 OFFCURVE",
"417 -14 QCURVE SMOOTH",
"496 -14 OFFCURVE",
"630 44 OFFCURVE",
"727 144 OFFCURVE",
"782 278 OFFCURVE",
"782 354 QCURVE SMOOTH"
);
},
{
closed = 1;
nodes = (
"695 290 OFFCURVE",
"654 186 OFFCURVE",
"580 108 OFFCURVE",
"478 63 OFFCURVE",
"418 63 QCURVE SMOOTH",
"356 63 OFFCURVE",
"253 108 OFFCURVE",
"179 186 OFFCURVE",
"138 292 OFFCURVE",
"138 354 QCURVE SMOOTH",
"138 414 OFFCURVE",
"179 519 OFFCURVE",
"253 597 OFFCURVE",
"356 642 OFFCURVE",
"417 642 QCURVE SMOOTH",
"478 642 OFFCURVE",
"580 596 OFFCURVE",
"654 517 OFFCURVE",
"695 411 OFFCURVE",
"695 350 QCURVE SMOOTH"
);
}
);
width = 833;
}
);
unicode = 004F;
},
{
glyphname = P;
layers = (
{
layerId = "6D82140E-0966-4184-BBA2-B1F9A77F6692";
paths = (
{
closed = 1;
nodes = (
"58 0 LINE",
"252 0 LINE",
"252 200 LINE",
"348 200 LINE SMOOTH",
"413 200 OFFCURVE",
"524 233 OFFCURVE",
"604 297 OFFCURVE",
"649 392 OFFCURVE",
"649 454 QCURVE SMOOTH",
"649 513 OFFCURVE",
"608 604 OFFCURVE",
"532 667 OFFCURVE",
"424 700 OFFCURVE",
"358 700 QCURVE SMOOTH",
"58 700 LINE"
);
},
{
closed = 1;
nodes = (
"252 537 LINE",
"343 537 LINE SMOOTH",
"397 537 OFFCURVE",
"455 490 OFFCURVE",
"455 445 QCURVE SMOOTH",
"455 403 OFFCURVE",
"396 352 OFFCURVE",
"344 352 QCURVE SMOOTH",
"252 352 LINE"
);
}
);
width = 672;
},
{
layerId = "8ED872FE-1BCA-4686-B4C5-0573B67FF490";
paths = (
{
closed = 1;
nodes = (
"76 -2 LINE",
"180 -2 LINE",
"180 266 LINE",
"308 266 LINE SMOOTH",
"364 266 OFFCURVE",
"461 296 OFFCURVE",
"532 353 OFFCURVE",
"573 436 OFFCURVE",
"573 490 QCURVE SMOOTH",
"573 541 OFFCURVE",
"536 620 OFFCURVE",
"469 675 OFFCURVE",
"374 704 OFFCURVE",
"316 704 QCURVE SMOOTH",
"76 704 LINE"
);
},
{
closed = 1;
nodes = (
"180 614 LINE",
"307 614 LINE SMOOTH",
"385 614 OFFCURVE",
"469 550 OFFCURVE",
"469 485 QCURVE SMOOTH",
"469 423 OFFCURVE",
"383 355 OFFCURVE",
"306 355 QCURVE SMOOTH",
"180 355 LINE"
);
}
);
width = 602;
},
{
layerId = "4375AB62-CFBC-411E-9D12-25ECC6BFDF4C";
paths = (
{
closed = 1;
nodes = (
"80 -2 LINE",
"166 -2 LINE",
"166 279 LINE",
"300 279 LINE SMOOTH",
"354 279 OFFCURVE",
"448 308 OFFCURVE",
"518 364 OFFCURVE",
"558 445 OFFCURVE",
"558 497 QCURVE SMOOTH",
"558 546 OFFCURVE",
"522 623 OFFCURVE",
"456 677 OFFCURVE",
"363 705 OFFCURVE",
"307 705 QCURVE SMOOTH",
"80 705 LINE"
);
},
{
closed = 1;
nodes = (
"166 629 LINE",
"300 629 LINE SMOOTH",
"382 629 OFFCURVE",
"472 562 OFFCURVE",
"472 493 QCURVE SMOOTH",
"472 427 OFFCURVE",
"380 355 OFFCURVE",
"298 355 QCURVE SMOOTH",
"166 355 LINE"
);
}
);
width = 588;
}
);
unicode = 0050;
},
{
glyphname = Q;
layers = (
{
layerId = "6D82140E-0966-4184-BBA2-B1F9A77F6692";
paths = (
{
closed = 1;
nodes = (
"847 -148 LINE",
"847 52 LINE",
"737 163 LINE",
"766 206 OFFCURVE",
"791 293 OFFCURVE",
"791 350 QCURVE SMOOTH",
"791 426 OFFCURVE",
"734 559 OFFCURVE",
"633 657 OFFCURVE",
"495 714 OFFCURVE",
"414 714 QCURVE SMOOTH",
"333 714 OFFCURVE",
"195 657 OFFCURVE",
"94 558 OFFCURVE",
"37 425 OFFCURVE",
"37 350 QCURVE SMOOTH",
"37 274 OFFCURVE",
"94 141 OFFCURVE",
"194 43 OFFCURVE",
"332 -14 OFFCURVE",
"413 -14 QCURVE SMOOTH",
"445 -14 OFFCURVE",
"509 -4 OFFCURVE",
"568 14 OFFCURVE",
"618 39 OFFCURVE",
"635 55 QCURVE"
);
},
{
closed = 1;
nodes = (
"592 311 OFFCURVE",
"566 243 OFFCURVE",
"520 191 OFFCURVE",
"454 161 OFFCURVE",
"414 161 QCURVE SMOOTH",
"375 161 OFFCURVE",
"309 192 OFFCURVE",
"262 244 OFFCURVE",
"236 313 OFFCURVE",
"236 350 QCURVE SMOOTH",
"236 389 OFFCURVE",
"262 457 OFFCURVE",
"308 509 OFFCURVE",
"373 539 OFFCURVE",
"413 539 QCURVE SMOOTH",
"453 539 OFFCURVE",
"519 508 OFFCURVE",
"566 456 OFFCURVE",
"592 388 OFFCURVE",
"592 350 QCURVE SMOOTH"
);
}
);
width = 884;
},
{
layerId = "8ED872FE-1BCA-4686-B4C5-0573B67FF490";
paths = (
{
closed = 1;
nodes = (
"791 -91 LINE",
"791 34 LINE",
"695 114 LINE",
"737 162 OFFCURVE",
"784 281 OFFCURVE",
"784 353 QCURVE SMOOTH",
"784 428 OFFCURVE",
"729 561 OFFCURVE",
"632 660 OFFCURVE",
"498 718 OFFCURVE",
"418 718 QCURVE SMOOTH",
"338 718 OFFCURVE",
"203 660 OFFCURVE",
"104 561 OFFCURVE",
"49 427 OFFCURVE",
"49 350 QCURVE SMOOTH",
"49 275 OFFCURVE",
"104 142 OFFCURVE",
"201 43 OFFCURVE",
"336 -14 OFFCURVE",
"416 -14 QCURVE SMOOTH",
"446 -14 OFFCURVE",
"501 -5 OFFCURVE",
"551 10 OFFCURVE",
"599 33 OFFCURVE",
"621 46 QCURVE"
);
},
{
closed = 1;
nodes = (
"678 294 OFFCURVE",
"639 195 OFFCURVE",
"570 122 OFFCURVE",
"474 79 OFFCURVE",
"417 79 QCURVE SMOOTH",
"359 79 OFFCURVE",
"262 122 OFFCURVE",
"193 196 OFFCURVE",
"154 296 OFFCURVE",
"154 353 QCURVE SMOOTH",
"154 410 OFFCURVE",
"193 509 OFFCURVE",
"262 582 OFFCURVE",
"359 625 OFFCURVE",
"417 625 QCURVE SMOOTH",
"474 625 OFFCURVE",
"570 582 OFFCURVE",
"639 507 OFFCURVE",
"678 407 OFFCURVE",
"678 350 QCURVE SMOOTH"
);
}
);
width = 837;
},
{
layerId = "4375AB62-CFBC-411E-9D12-25ECC6BFDF4C";
paths = (
{
closed = 1;
nodes = (
"780 -79 LINE",
"780 30 LINE",
"686 104 LINE",
"731 153 OFFCURVE",
"782 279 OFFCURVE",
"782 354 QCURVE SMOOTH",
"782 429 OFFCURVE",
"728 561 OFFCURVE",
"631 661 OFFCURVE",
"498 719 OFFCURVE",
"419 719 QCURVE SMOOTH",
"339 719 OFFCURVE",
"204 661 OFFCURVE",
"106 561 OFFCURVE",
"51 427 OFFCURVE",
"51 350 QCURVE SMOOTH",
"51 275 OFFCURVE",
"105 142 OFFCURVE",
"203 43 OFFCURVE",
"337 -14 OFFCURVE",
"417 -14 QCURVE SMOOTH",
"447 -14 OFFCURVE",
"499 -6 OFFCURVE",
"548 9 OFFCURVE",
"594 31 OFFCURVE",
"618 44 QCURVE"
);
},
{
closed = 1;
nodes = (
"695 290 OFFCURVE",
"654 186 OFFCURVE",
"580 108 OFFCURVE",
"478 63 OFFCURVE",
"418 63 QCURVE SMOOTH",
"356 63 OFFCURVE",
"253 108 OFFCURVE",
"179 186 OFFCURVE",
"138 293 OFFCURVE",
"138 354 QCURVE SMOOTH",
"138 414 OFFCURVE",
"179 519 OFFCURVE",
"253 597 OFFCURVE",
"356 642 OFFCURVE",
"418 642 QCURVE SMOOTH",
"478 642 OFFCURVE",
"580 596 OFFCURVE",
"654 517 OFFCURVE",
"695 411 OFFCURVE",
"695 350 QCURVE SMOOTH"
);
}
);
width = 828;
}
);
unicode = 0051;
},
{
glyphname = R;
layers = (
{
layerId = "6D82140E-0966-4184-BBA2-B1F9A77F6692";
paths = (
{
closed = 1;
nodes = (
"253 0 LINE",
"253 212 LINE",
"338 212 LINE",
"478 0 LINE",
"702 0 LINE",
"535 244 LINE",
"601 272 OFFCURVE",
"679 380 OFFCURVE",
"679 461 QCURVE SMOOTH",
"679 515 OFFCURVE",
"643 603 OFFCURVE",
"571 666 OFFCURVE",
"462 700 OFFCURVE",
"389 700 QCURVE SMOOTH",
"58 700 LINE",
"58 0 LINE"
);
},
{
closed = 1;
nodes = (
"253 364 LINE",
"253 532 LINE",
"379 532 LINE SMOOTH",
"428 532 OFFCURVE",
"484 491 OFFCURVE",
"484 449 QCURVE SMOOTH",
"484 430 OFFCURVE",
"470 399 OFFCURVE",
"443 376 OFFCURVE",
"405 364 OFFCURVE",
"380 364 QCURVE SMOOTH"
);
}
);
width = 695;
},
{
layerId = "8ED872FE-1BCA-4686-B4C5-0573B67FF490";
paths = (
{
closed = 1;
nodes = (
"181 0 LINE",
"181 285 LINE",
"270 285 LINE",
"476 0 LINE",
"599 0 LINE",
"380 294 LINE",
"465 311 OFFCURVE",
"566 415 OFFCURVE",
"566 496 QCURVE SMOOTH",
"566 543 OFFCURVE",
"530 619 OFFCURVE",
"464 674 OFFCURVE",
"371 704 OFFCURVE",
"314 704 QCURVE SMOOTH",
"76 704 LINE",
"76 0 LINE"
);
},
{
closed = 1;
nodes = (
"181 367 LINE",
"181 613 LINE",
"304 613 LINE SMOOTH",
"379 613 OFFCURVE",
"462 555 OFFCURVE",
"462 492 QCURVE SMOOTH",
"462 459 OFFCURVE",
"436 411 OFFCURVE",
"390 381 OFFCURVE",
"327 367 OFFCURVE",
"290 367 QCURVE SMOOTH"
);
}
);
width = 604;
},
{
layerId = "4375AB62-CFBC-411E-9D12-25ECC6BFDF4C";
paths = (
{
closed = 1;
nodes = (
"166 0 LINE",
"166 299 LINE",
"256 299 LINE",
"475 0 LINE",
"578 0 LINE",
"349 304 LINE",
"437 319 OFFCURVE",
"543 422 OFFCURVE",
"543 503 QCURVE SMOOTH",
"543 548 OFFCURVE",
"507 622 OFFCURVE",
"443 676 OFFCURVE",
"353 705 OFFCURVE",
"299 705 QCURVE SMOOTH",
"80 705 LINE",
"80 0 LINE"
);
},
{
closed = 1;
nodes = (
"166 368 LINE",
"166 629 LINE",
"289 629 LINE SMOOTH",
"370 629 OFFCURVE",
"457 567 OFFCURVE",
"457 500 QCURVE SMOOTH",
"457 464 OFFCURVE",
"429 414 OFFCURVE",
"379 382 OFFCURVE",
"311 368 OFFCURVE",
"272 368 QCURVE SMOOTH"
);
}
);
width = 586;
}
);
unicode = 0052;
},
{
glyphname = S;
layers = (
{
layerId = "6D82140E-0966-4184-BBA2-B1F9A77F6692";
paths = (
{
closed = 1;
nodes = (
"301 149 OFFCURVE",
"213 169 OFFCURVE",
"128 204 OFFCURVE",
"50 251 OFFCURVE",
"18 278 QCURVE",
"18 104 LINE",
"84 44 OFFCURVE",
"258 -12 OFFCURVE",
"346 -12 QCURVE SMOOTH",
"405 -12 OFFCURVE",
"502 14 OFFCURVE",
"576 64 OFFCURVE",
"621 135 OFFCURVE",
"627 181 QCURVE",
"633 256 OFFCURVE",
"581 348 OFFCURVE",
"497 402 OFFCURVE",
"395 430 OFFCURVE",
"307 452 OFFCURVE",
"247 479 OFFCURVE",
"247 506 QCURVE SMOOTH",
"247 524 OFFCURVE",
"289 556 OFFCURVE",
"337 556 QCURVE SMOOTH",
"371 556 OFFCURVE",
"445 538 OFFCURVE",
"517 506 OFFCURVE",
"583 465 OFFCURVE",
"610 442 QCURVE",
"610 619 LINE",
"553 665 OFFCURVE",
"413 712 OFFCURVE",
"322 712 QCURVE SMOOTH",
"269 712 OFFCURVE",
"171 685 OFFCURVE",
"96 629 OFFCURVE",
"51 545 OFFCURVE",
"51 488 QCURVE SMOOTH",
"51 424 OFFCURVE",
"108 345 OFFCURVE",
"192 298 OFFCURVE",
"292 273 OFFCURVE",
"376 251 OFFCURVE",
"433 223 OFFCURVE",
"433 197 QCURVE SMOOTH",
"433 180 OFFCURVE",
"414 161 OFFCURVE",
"387 151 OFFCURVE",
"355 149 OFFCURVE",
"343 149 QCURVE SMOOTH"
);
}
);
width = 657;
},
{
layerId = "8ED872FE-1BCA-4686-B4C5-0573B67FF490";
paths = (
{
closed = 1;
nodes = (
"242 77 OFFCURVE",
"181 89 OFFCURVE",
"120 114 OFFCURVE",
"58 155 OFFCURVE",
"29 183 QCURVE",
"29 77 LINE",
"80 28 OFFCURVE",
"199 -12 OFFCURVE",
"266 -12 QCURVE SMOOTH",
"313 -12 OFFCURVE",
"402 9 OFFCURVE",
"471 55 OFFCURVE",
"514 128 OFFCURVE",
"515 179 QCURVE SMOOTH",
"516 238 OFFCURVE",
"463 318 OFFCURVE",
"382 376 OFFCURVE",
"287 418 OFFCURVE",
"205 460 OFFCURVE",
"151 509 OFFCURVE",
"151 544 QCURVE SMOOTH",
"151 585 OFFCURVE",
"220 629 OFFCURVE",
"276 629 QCURVE SMOOTH",
"299 629 OFFCURVE",
"347 620 OFFCURVE",
"395 599 OFFCURVE",
"442 564 OFFCURVE",
"463 539 QCURVE",
"463 654 LINE",
"425 687 OFFCURVE",
"329 717 OFFCURVE",
"273 717 QCURVE SMOOTH",
"229 717 OFFCURVE",
"147 694 OFFCURVE",
"84 650 OFFCURVE",
"47 585 OFFCURVE",
"47 543 QCURVE SMOOTH",
"47 487 OFFCURVE",
"101 411 OFFCURVE",
"182 355 OFFCURVE",
"276 312 OFFCURVE",
"357 267 OFFCURVE",
"411 214 OFFCURVE",
"411 175 QCURVE SMOOTH",
"411 147 OFFCURVE",
"385 109 OFFCURVE",
"344 87 OFFCURVE",
"294 77 OFFCURVE",
"271 77 QCURVE SMOOTH"
);
}
);
width = 557;
},
{
layerId = "4375AB62-CFBC-411E-9D12-25ECC6BFDF4C";
paths = (
{
closed = 1;
nodes = (
"230 63 OFFCURVE",
"175 73 OFFCURVE",
"118 96 OFFCURVE",
"60 135 OFFCURVE",
"31 164 QCURVE",
"31 71 LINE",
"79 25 OFFCURVE",
"187 -12 OFFCURVE",
"250 -12 QCURVE SMOOTH",
"295 -12 OFFCURVE",
"381 8 OFFCURVE",
"450 53 OFFCURVE",
"492 126 OFFCURVE",
"492 178 QCURVE SMOOTH",
"492 234 OFFCURVE",
"439 312 OFFCURVE",
"359 371 OFFCURVE",
"265 416 OFFCURVE",
"185 462 OFFCURVE",
"132 515 OFFCURVE",
"132 552 QCURVE SMOOTH",
"132 597 OFFCURVE",
"207 643 OFFCURVE",
"264 643 QCURVE SMOOTH",
"284 643 OFFCURVE",
"327 636 OFFCURVE",
"371 617 OFFCURVE",
"414 584 OFFCURVE",
"434 558 QCURVE",
"434 661 LINE",
"399 691 OFFCURVE",
"312 718 OFFCURVE",
"263 718 QCURVE SMOOTH",
"221 718 OFFCURVE",
"142 696 OFFCURVE",
"82 654 OFFCURVE",
"46 593 OFFCURVE",
"46 554 QCURVE SMOOTH",
"46 500 OFFCURVE",
"99 424 OFFCURVE",
"179 366 OFFCURVE",
"273 319 OFFCURVE",
"353 270 OFFCURVE",
"406 211 OFFCURVE",
"406 170 QCURVE SMOOTH",
"406 140 OFFCURVE",
"378 99 OFFCURVE",
"335 74 OFFCURVE",
"282 63 OFFCURVE",
"256 63 QCURVE SMOOTH"
);
}
);
width = 537;
}
);
unicode = 0053;
},
{
glyphname = T;
layers = (
{
layerId = "6D82140E-0966-4184-BBA2-B1F9A77F6692";
paths = (
{
closed = 1;
nodes = (
"415 530 LINE",
"625 530 LINE",
"625 700 LINE",
"11 700 LINE",
"11 530 LINE",
"221 530 LINE",
"221 0 LINE",
"415 0 LINE"
);
}
);
width = 637;
},
{
layerId = "8ED872FE-1BCA-4686-B4C5-0573B67FF490";
paths = (
{
closed = 1;
nodes = (
"321 613 LINE",
"531 613 LINE",
"531 704 LINE",
"9 704 LINE",
"9 613 LINE",
"219 613 LINE",
"219 0 LINE",
"321 0 LINE"
);
}
);
width = 540;
},
{
layerId = "4375AB62-CFBC-411E-9D12-25ECC6BFDF4C";
paths = (
{
closed = 1;
nodes = (
"302 629 LINE",
"512 629 LINE",
"512 705 LINE",
"8 705 LINE",
"8 629 LINE",
"218 629 LINE",
"218 0 LINE",
"302 0 LINE"
);
}
);
width = 520;
}
);
unicode = 0054;
},
{
glyphname = U;
layers = (
{
layerId = "6D82140E-0966-4184-BBA2-B1F9A77F6692";
paths = (
{
closed = 1;
nodes = (
"451 -13 OFFCURVE",
"572 25 OFFCURVE",
"657 105 OFFCURVE",
"704 227 OFFCURVE",
"704 312 QCURVE SMOOTH",
"704 700 LINE",
"507 700 LINE",
"507 306 LINE SMOOTH",
"507 231 OFFCURVE",
"438 162 OFFCURVE",
"378 162 QCURVE SMOOTH",
"318 162 OFFCURVE",
"249 235 OFFCURVE",
"249 311 QCURVE SMOOTH",
"249 700 LINE",
"52 700 LINE",
"52 307 LINE SMOOTH",
"52 225 OFFCURVE",
"97 104 OFFCURVE",
"181 25 OFFCURVE",
"301 -13 OFFCURVE",
"376 -13 QCURVE SMOOTH"
);
}
);
width = 758;
},
{
layerId = "8ED872FE-1BCA-4686-B4C5-0573B67FF490";
paths = (
{
closed = 1;
nodes = (
"426 -15 OFFCURVE",
"533 26 OFFCURVE",
"605 105 OFFCURVE",
"642 219 OFFCURVE",
"642 291 QCURVE SMOOTH",
"642 705 LINE",
"540 705 LINE",
"540 289 LINE SMOOTH",
"540 183 OFFCURVE",
"444 80 OFFCURVE",
"356 80 QCURVE SMOOTH",
"262 80 OFFCURVE",
"171 192 OFFCURVE",
"171 292 QCURVE SMOOTH",
"171 705 LINE",
"68 705 LINE",
"68 288 LINE SMOOTH",
"68 218 OFFCURVE",
"105 106 OFFCURVE",
"178 27 OFFCURVE",
"286 -15 OFFCURVE",
"356 -15 QCURVE SMOOTH"
);
}
);
width = 711;
},
{
layerId = "4375AB62-CFBC-411E-9D12-25ECC6BFDF4C";
paths = (
{
closed = 1;
nodes = (
"421 -15 OFFCURVE",
"525 27 OFFCURVE",
"595 105 OFFCURVE",
"630 217 OFFCURVE",
"630 287 QCURVE SMOOTH",
"630 706 LINE",
"546 706 LINE",
"546 285 LINE SMOOTH",
"546 173 OFFCURVE",
"445 63 OFFCURVE",
"351 63 QCURVE SMOOTH",
"251 63 OFFCURVE",
"155 183 OFFCURVE",
"155 288 QCURVE SMOOTH",
"155 706 LINE",
"71 706 LINE",
"71 284 LINE SMOOTH",
"71 217 OFFCURVE",
"107 107 OFFCURVE",
"178 28 OFFCURVE",
"283 -15 OFFCURVE",
"352 -15 QCURVE SMOOTH"
);
}
);
width = 702;
}
);
unicode = 0055;
},
{
glyphname = V;
layers = (
{
layerId = "6D82140E-0966-4184-BBA2-B1F9A77F6692";
paths = (
{
closed = 1;
nodes = (
"-8 700 LINE",
"276 -5 LINE",
"456 -5 LINE",
"740 700 LINE",
"527 700 LINE",
"368 257 LINE",
"209 700 LINE"
);
}
);
width = 733;
},
{
layerId = "8ED872FE-1BCA-4686-B4C5-0573B67FF490";
paths = (
{
closed = 1;
nodes = (
"-5 704 LINE",
"274 -1 LINE",
"388 -1 LINE",
"664 704 LINE",
"552 704 LINE",
"332 116 LINE",
"110 704 LINE"
);
}
);
width = 661;
},
{
layerId = "4375AB62-CFBC-411E-9D12-25ECC6BFDF4C";
paths = (
{
closed = 1;
nodes = (
"-4 705 LINE",
"273 0 LINE",
"374 0 LINE",
"649 705 LINE",
"557 705 LINE",
"325 88 LINE",
"90 705 LINE"
);
}
);
width = 646;
}
);
unicode = 0056;
},
{
glyphname = W;
layers = (
{
layerId = "6D82140E-0966-4184-BBA2-B1F9A77F6692";
paths = (
{
closed = 1;
nodes = (
"202 700 LINE",
"-3 700 LINE",
"231 -5 LINE",
"400 -5 LINE",
"540 398 LINE",
"681 -5 LINE",
"850 -5 LINE",
"1084 700 LINE",
"883 700 LINE",
"761 295 LINE",
"626 702 LINE",
"459 702 LINE",
"324 295 LINE"
);
}
);
width = 1081;
},
{
layerId = "8ED872FE-1BCA-4686-B4C5-0573B67FF490";
paths = (
{
closed = 1;
nodes = (
"113 704 LINE",
"3 704 LINE",
"239 -1 LINE",
"336 -1 LINE",
"503 551 LINE",
"676 -1 LINE",
"771 -1 LINE",
"1005 704 LINE",
"898 704 LINE",
"724 154 LINE",
"554 705 LINE",
"458 705 LINE",
"292 154 LINE"
);
}
);
width = 1008;
},
{
layerId = "4375AB62-CFBC-411E-9D12-25ECC6BFDF4C";
paths = (
{
closed = 1;
nodes = (
"95 705 LINE",
"4 705 LINE",
"241 0 LINE",
"323 0 LINE",
"496 582 LINE",
"675 0 LINE",
"755 0 LINE",
"989 705 LINE",
"901 705 LINE",
"717 126 LINE",
"539 706 LINE",
"458 706 LINE",
"285 126 LINE"
);
}
);
width = 993;
}
);
unicode = 0057;
},
{
glyphname = X;
layers = (
{
layerId = "6D82140E-0966-4184-BBA2-B1F9A77F6692";
paths = (
{
closed = 1;
nodes = (
"10 700 LINE",
"240 356 LINE",
"0 0 LINE",
"218 0 LINE",
"353 211 LINE",
"487 0 LINE",
"710 0 LINE",
"470 358 LINE",
"700 700 LINE",
"482 700 LINE",
"357 503 LINE",
"233 700 LINE"
);
}
);
width = 710;
},
{
layerId = "8ED872FE-1BCA-4686-B4C5-0573B67FF490";
paths = (
{
closed = 1;
nodes = (
"20 704 LINE",
"261 360 LINE",
"8 0 LINE",
"127 0 LINE",
"320 282 LINE",
"514 0 LINE",
"632 0 LINE",
"381 362 LINE",
"619 704 LINE",
"503 704 LINE",
"323 439 LINE",
"140 704 LINE"
);
}
);
width = 641;
},
{
layerId = "4375AB62-CFBC-411E-9D12-25ECC6BFDF4C";
paths = (
{
closed = 1;
nodes = (
"22 705 LINE",
"265 361 LINE",
"10 0 LINE",
"109 0 LINE",
"313 296 LINE",
"519 0 LINE",
"616 0 LINE",
"363 363 LINE",
"603 705 LINE",
"507 705 LINE",
"316 426 LINE",
"121 705 LINE"
);
}
);
width = 627;
}
);
unicode = 0058;
},
{
glyphname = Y;
layers = (
{
layerId = "6D82140E-0966-4184-BBA2-B1F9A77F6692";
paths = (
{
closed = 1;
nodes = (
"454 265 LINE",
"720 700 LINE",
"503 700 LINE",
"358 445 LINE",
"214 700 LINE",
"-7 700 LINE",
"259 262 LINE",
"259 0 LINE",
"454 0 LINE"
);
}
);
width = 713;
},
{
layerId = "8ED872FE-1BCA-4686-B4C5-0573B67FF490";
paths = (
{
closed = 1;
nodes = (
"370 278 LINE",
"639 704 LINE",
"524 704 LINE",
"321 373 LINE",
"117 704 LINE",
"-3 704 LINE",
"267 277 LINE",
"267 0 LINE",
"370 0 LINE"
);
}
);
width = 636;
},
{
layerId = "4375AB62-CFBC-411E-9D12-25ECC6BFDF4C";
paths = (
{
closed = 1;
nodes = (
"353 281 LINE",
"623 705 LINE",
"528 705 LINE",
"314 358 LINE",
"98 705 LINE",
"-2 705 LINE",
"269 280 LINE",
"269 0 LINE",
"353 0 LINE"
);
}
);
width = 621;
}
);
unicode = 0059;
},
{
glyphname = Z;
layers = (
{
layerId = "6D82140E-0966-4184-BBA2-B1F9A77F6692";
paths = (
{
closed = 1;
nodes = (
"615 559 LINE",
"615 700 LINE",
"8 700 LINE",
"8 536 LINE",
"347 536 LINE",
"-4 141 LINE",
"-4 0 LINE",
"615 0 LINE",
"615 164 LINE",
"264 164 LINE"
);
}
);
width = 624;
},
{
layerId = "8ED872FE-1BCA-4686-B4C5-0573B67FF490";
paths = (
{
closed = 1;
nodes = (
"617 620 LINE",
"617 704 LINE",
"36 704 LINE",
"36 614 LINE",
"486 614 LINE",
"11 84 LINE",
"11 0 LINE",
"599 0 LINE",
"599 90 LINE",
"147 90 LINE"
);
}
);
width = 639;
},
{
layerId = "4375AB62-CFBC-411E-9D12-25ECC6BFDF4C";
paths = (
{
closed = 1;
nodes = (
"617 632 LINE",
"617 705 LINE",
"42 705 LINE",
"42 630 LINE",
"514 630 LINE",
"14 72 LINE",
"14 0 LINE",
"596 0 LINE",
"596 75 LINE",
"124 75 LINE"
);
}
);
width = 642;
}
);
unicode = 005A;
},
{
glyphname = bracketleft;
layers = (
{
layerId = "6D82140E-0966-4184-BBA2-B1F9A77F6692";
paths = (
{
closed = 1;
nodes = (
"411 700 LINE",
"65 700 LINE",
"65 -130 LINE",
"411 -130 LINE",
"411 -1 LINE",
"235 -1 LINE",
"235 571 LINE",
"411 571 LINE"
);
}
);
width = 459;
},
{
layerId = "8ED872FE-1BCA-4686-B4C5-0573B67FF490";
paths = (
{
closed = 1;
nodes = (
"338 722 LINE",
"80 722 LINE",
"80 -153 LINE",
"338 -153 LINE",
"338 -77 LINE",
"173 -77 LINE",
"173 645 LINE",
"338 645 LINE"
);
}
);
width = 391;
},
{
layerId = "4375AB62-CFBC-411E-9D12-25ECC6BFDF4C";
paths = (
{
closed = 1;
nodes = (
"323 726 LINE",
"83 726 LINE",
"83 -158 LINE",
"323 -158 LINE",
"323 -92 LINE",
"160 -92 LINE",
"160 660 LINE",
"323 660 LINE"
);
}
);
width = 377;
}
);
unicode = 005B;
},
{
glyphname = backslash;
layers = (
{
layerId = "6D82140E-0966-4184-BBA2-B1F9A77F6692";
paths = (
{
closed = 1;
nodes = (
"431 -128 LINE",
"573 -103 LINE",
"142 798 LINE",
"-1 776 LINE"
);
}
);
width = 572;
},
{
layerId = "8ED872FE-1BCA-4686-B4C5-0573B67FF490";
paths = (
{
closed = 1;
nodes = (
"416 -119 LINE",
"501 -110 LINE",
"85 784 LINE",
"2 774 LINE"
);
}
);
width = 502;
},
{
layerId = "4375AB62-CFBC-411E-9D12-25ECC6BFDF4C";
paths = (
{
closed = 1;
nodes = (
"413 -117 LINE",
"486 -111 LINE",
"74 781 LINE",
"2 773 LINE"
);
}
);
width = 488;
}
);
unicode = 005C;
},
{
glyphname = bracketright;
layers = (
{
layerId = "6D82140E-0966-4184-BBA2-B1F9A77F6692";
paths = (
{
closed = 1;
nodes = (
"50 -130 LINE",
"396 -130 LINE",
"396 700 LINE",
"50 700 LINE",
"50 571 LINE",
"226 571 LINE",
"226 -1 LINE",
"50 -1 LINE"
);
}
);
width = 460;
},
{
layerId = "8ED872FE-1BCA-4686-B4C5-0573B67FF490";
paths = (
{
closed = 1;
nodes = (
"53 -154 LINE",
"313 -154 LINE",
"313 722 LINE",
"53 722 LINE",
"53 644 LINE",
"219 644 LINE",
"219 -77 LINE",
"53 -77 LINE"
);
}
);
width = 393;
},
{
layerId = "4375AB62-CFBC-411E-9D12-25ECC6BFDF4C";
paths = (
{
closed = 1;
nodes = (
"54 -159 LINE",
"296 -159 LINE",
"296 726 LINE",
"54 726 LINE",
"54 659 LINE",
"217 659 LINE",
"217 -92 LINE",
"54 -92 LINE"
);
}
);
width = 380;
}
);
unicode = 005D;
},
{
glyphname = asciicircum;
layers = (
{
layerId = "6D82140E-0966-4184-BBA2-B1F9A77F6692";
paths = (
{
closed = 1;
nodes = (
"22 493 LINE",
"153 493 LINE",
"229 590 LINE",
"305 493 LINE",
"438 493 LINE",
"294 699 LINE",
"166 699 LINE"
);
}
);
width = 459;
},
{
layerId = "8ED872FE-1BCA-4686-B4C5-0573B67FF490";
paths = (
{
closed = 1;
nodes = (
"31 431 LINE",
"114 431 LINE",
"244 633 LINE",
"374 431 LINE",
"460 431 LINE",
"285 705 LINE",
"204 705 LINE"
);
}
);
width = 491;
},
{
layerId = "4375AB62-CFBC-411E-9D12-25ECC6BFDF4C";
paths = (
{
closed = 1;
nodes = (
"33 418 LINE",
"106 418 LINE",
"247 642 LINE",
"388 418 LINE",
"464 418 LINE",
"283 706 LINE",
"211 706 LINE"
);
}
);
width = 497;
}
);
unicode = 005E;
},
{
glyphname = underscore;
layers = (
{
layerId = "6D82140E-0966-4184-BBA2-B1F9A77F6692";
paths = (
{
closed = 1;
nodes = (
"0 -160 LINE",
"604 -160 LINE",
"604 -44 LINE",
"0 -44 LINE"
);
}
);
width = 604;
},
{
layerId = "8ED872FE-1BCA-4686-B4C5-0573B67FF490";
paths = (
{
closed = 1;
nodes = (
"0 -149 LINE",
"568 -149 LINE",
"568 -76 LINE",
"0 -76 LINE"
);
}
);
width = 568;
},
{
layerId = "4375AB62-CFBC-411E-9D12-25ECC6BFDF4C";
paths = (
{
closed = 1;
nodes = (
"0 -147 LINE",
"561 -147 LINE",
"561 -82 LINE",
"0 -82 LINE"
);
}
);
width = 561;
}
);
unicode = 005F;
},
{
glyphname = grave;
layers = (
{
layerId = "6D82140E-0966-4184-BBA2-B1F9A77F6692";
paths = (
{
closed = 1;
nodes = (
"131 616 LINE",
"265 616 LINE",
"161 801 LINE",
"-16 744 LINE"
);
}
);
width = 269;
},
{
layerId = "8ED872FE-1BCA-4686-B4C5-0573B67FF490";
paths = (
{
closed = 1;
nodes = (
"147 616 LINE",
"222 616 LINE",
"125 771 LINE",
"17 745 LINE"
);
}
);
width = 242;
},
{
layerId = "4375AB62-CFBC-411E-9D12-25ECC6BFDF4C";
paths = (
{
closed = 1;
nodes = (
"150 616 LINE",
"213 616 LINE",
"118 765 LINE",
"24 745 LINE"
);
}
);
width = 237;
}
);
unicode = 0060;
},
{
glyphname = a;
layers = (
{
layerId = "6D82140E-0966-4184-BBA2-B1F9A77F6692";
paths = (
{
closed = 1;
nodes = (
"373 139 LINE",
"353 122 OFFCURVE",
"309 107 OFFCURVE",
"286 107 QCURVE SMOOTH",
"271 107 OFFCURVE",
"245 116 OFFCURVE",
"226 133 OFFCURVE",
"214 156 OFFCURVE",
"214 170 QCURVE SMOOTH",
"214 184 OFFCURVE",
"226 207 OFFCURVE",
"248 225 OFFCURVE",
"281 235 OFFCURVE",
"302 235 QCURVE SMOOTH",
"322 235 OFFCURVE",
"360 227 OFFCURVE",
"373 221 QCURVE"
);
},
{
closed = 1;
nodes = (
"558 -12 LINE",
"558 311 LINE SMOOTH",
"558 369 OFFCURVE",
"527 458 OFFCURVE",
"462 518 OFFCURVE",
"361 549 OFFCURVE",
"290 549 QCURVE SMOOTH",
"224 549 OFFCURVE",
"124 526 OFFCURVE",
"76 507 QCURVE",
"76 373 LINE",
"121 390 OFFCURVE",
"200 404 OFFCURVE",
"240 404 QCURVE SMOOTH",
"307 404 OFFCURVE",
"373 362 OFFCURVE",
"373 315 QCURVE SMOOTH",
"373 306 LINE",
"350 314 OFFCURVE",
"280 327 OFFCURVE",
"241 327 QCURVE SMOOTH",
"194 327 OFFCURVE",
"116 305 OFFCURVE",
"60 263 OFFCURVE",
"29 199 OFFCURVE",
"29 157 QCURVE SMOOTH",
"29 117 OFFCURVE",
"57 54 OFFCURVE",
"107 10 OFFCURVE",
"175 -12 OFFCURVE",
"214 -12 QCURVE SMOOTH",
"268 -12 OFFCURVE",
"344 25 OFFCURVE",
"372 56 QCURVE"
);
}
);
width = 611;
},
{
layerId = "8ED872FE-1BCA-4686-B4C5-0573B67FF490";
paths = (
{
closed = 1;
nodes = (
"394 125 LINE",
"370 97 OFFCURVE",
"304 65 OFFCURVE",
"259 65 QCURVE SMOOTH",
"234 65 OFFCURVE",
"188 77 OFFCURVE",
"154 101 OFFCURVE",
"133 138 OFFCURVE",
"133 163 QCURVE SMOOTH",
"133 189 OFFCURVE",
"157 226 OFFCURVE",
"194 250 OFFCURVE",
"241 261 OFFCURVE",
"265 261 QCURVE SMOOTH",
"309 261 OFFCURVE",
"371 240 OFFCURVE",
"394 227 QCURVE"
);
},
{
closed = 1;
nodes = (
"493 -2 LINE",
"493 309 LINE SMOOTH",
"493 357 OFFCURVE",
"457 429 OFFCURVE",
"395 478 OFFCURVE",
"311 502 OFFCURVE",
"263 502 QCURVE SMOOTH",
"204 502 OFFCURVE",
"105 475 OFFCURVE",
"69 460 QCURVE",
"69 372 LINE",
"114 398 OFFCURVE",
"205 419 OFFCURVE",
"252 419 QCURVE SMOOTH",
"316 419 OFFCURVE",
"394 373 OFFCURVE",
"394 318 QCURVE SMOOTH",
"394 300 LINE",
"363 317 OFFCURVE",
"287 332 OFFCURVE",
"245 332 QCURVE SMOOTH",
"206 332 OFFCURVE",
"130 316 OFFCURVE",
"71 278 OFFCURVE",
"34 215 OFFCURVE",
"34 169 QCURVE SMOOTH",
"34 126 OFFCURVE",
"69 58 OFFCURVE",
"125 13 OFFCURVE",
"196 -11 OFFCURVE",
"232 -11 QCURVE SMOOTH",
"283 -11 OFFCURVE",
"359 20 OFFCURVE",
"392 50 QCURVE"
);
}
);
width = 559;
},
{
layerId = "4375AB62-CFBC-411E-9D12-25ECC6BFDF4C";
paths = (
{
closed = 1;
nodes = (
"398 122 LINE",
"373 92 OFFCURVE",
"302 57 OFFCURVE",
"253 57 QCURVE SMOOTH",
"226 57 OFFCURVE",
"177 70 OFFCURVE",
"139 95 OFFCURVE",
"117 134 OFFCURVE",
"117 161 QCURVE SMOOTH",
"117 190 OFFCURVE",
"143 230 OFFCURVE",
"183 255 OFFCURVE",
"234 266 OFFCURVE",
"258 266 QCURVE SMOOTH",
"306 266 OFFCURVE",
"373 242 OFFCURVE",
"398 228 QCURVE"
);
},
{
closed = 1;
nodes = (
"480 0 LINE",
"480 308 LINE SMOOTH",
"480 354 OFFCURVE",
"443 423 OFFCURVE",
"381 469 OFFCURVE",
"301 492 OFFCURVE",
"257 492 QCURVE SMOOTH",
"200 492 OFFCURVE",
"101 465 OFFCURVE",
"67 450 QCURVE",
"67 372 LINE",
"112 399 OFFCURVE",
"206 422 OFFCURVE",
"254 422 QCURVE SMOOTH",
"317 422 OFFCURVE",
"398 375 OFFCURVE",
"398 318 QCURVE SMOOTH",
"398 299 LINE",
"366 318 OFFCURVE",
"289 333 OFFCURVE",
"246 333 QCURVE SMOOTH",
"209 333 OFFCURVE",
"133 318 OFFCURVE",
"73 280 OFFCURVE",
"35 218 OFFCURVE",
"35 171 QCURVE SMOOTH",
"35 127 OFFCURVE",
"71 59 OFFCURVE",
"128 13 OFFCURVE",
"199 -11 OFFCURVE",
"235 -11 QCURVE SMOOTH",
"286 -11 OFFCURVE",
"362 19 OFFCURVE",
"396 49 QCURVE"
);
}
);
width = 548;
}
);
unicode = 0061;
},
{
glyphname = b;
layers = (
{
layerId = "6D82140E-0966-4184-BBA2-B1F9A77F6692";
paths = (
{
closed = 1;
nodes = (
"455 -12 OFFCURVE",
"542 27 OFFCURVE",
"607 100 OFFCURVE",
"646 205 OFFCURVE",
"646 271 QCURVE SMOOTH",
"646 337 OFFCURVE",
"607 441 OFFCURVE",
"541 514 OFFCURVE",
"454 553 OFFCURVE",
"406 553 QCURVE SMOOTH",
"345 553 OFFCURVE",
"270 503 OFFCURVE",
"242 469 QCURVE",
"242 730 LINE",
"52 730 LINE",
"52 -12 LINE",
"242 66 LINE",
"268 35 OFFCURVE",
"345 -12 OFFCURVE",
"407 -12 QCURVE SMOOTH"
);
},
{
closed = 1;
nodes = (
"459 244 OFFCURVE",
"442 198 OFFCURVE",
"412 165 OFFCURVE",
"371 147 OFFCURVE",
"348 147 QCURVE SMOOTH",
"325 147 OFFCURVE",
"285 165 OFFCURVE",
"256 198 OFFCURVE",
"239 243 OFFCURVE",
"239 270 QCURVE SMOOTH",
"239 297 OFFCURVE",
"256 343 OFFCURVE",
"285 376 OFFCURVE",
"325 394 OFFCURVE",
"348 394 QCURVE SMOOTH",
"371 394 OFFCURVE",
"412 376 OFFCURVE",
"442 343 OFFCURVE",
"459 299 OFFCURVE",
"459 272 QCURVE SMOOTH"
);
}
);
width = 675;
},
{
layerId = "8ED872FE-1BCA-4686-B4C5-0573B67FF490";
paths = (
{
closed = 1;
nodes = (
"395 -10 OFFCURVE",
"482 27 OFFCURVE",
"546 94 OFFCURVE",
"584 188 OFFCURVE",
"584 246 QCURVE SMOOTH",
"584 305 OFFCURVE",
"547 400 OFFCURVE",
"482 467 OFFCURVE",
"396 504 OFFCURVE",
"347 504 QCURVE SMOOTH",
"287 504 OFFCURVE",
"197 450 OFFCURVE",
"165 407 QCURVE",
"165 732 LINE",
"65 732 LINE",
"65 -1 LINE",
"172 70 LINE",
"200 36 OFFCURVE",
"286 -10 OFFCURVE",
"345 -10 QCURVE SMOOTH"
);
},
{
closed = 1;
nodes = (
"485 208 OFFCURVE",
"461 145 OFFCURVE",
"417 99 OFFCURVE",
"358 74 OFFCURVE",
"323 74 QCURVE SMOOTH",
"290 74 OFFCURVE",
"231 100 OFFCURVE",
"188 146 OFFCURVE",
"162 209 OFFCURVE",
"162 246 QCURVE SMOOTH",
"162 284 OFFCURVE",
"188 346 OFFCURVE",
"231 392 OFFCURVE",
"290 417 OFFCURVE",
"323 417 QCURVE SMOOTH",
"359 417 OFFCURVE",
"419 391 OFFCURVE",
"461 344 OFFCURVE",
"485 281 OFFCURVE",
"485 245 QCURVE SMOOTH"
);
}
);
width = 618;
},
{
layerId = "4375AB62-CFBC-411E-9D12-25ECC6BFDF4C";
paths = (
{
closed = 1;
nodes = (
"383 -10 OFFCURVE",
"470 26 OFFCURVE",
"534 92 OFFCURVE",
"572 185 OFFCURVE",
"572 241 QCURVE SMOOTH",
"572 298 OFFCURVE",
"535 391 OFFCURVE",
"470 458 OFFCURVE",
"384 494 OFFCURVE",
"335 494 QCURVE SMOOTH",
"275 494 OFFCURVE",
"181 439 OFFCURVE",
"149 394 QCURVE",
"149 732 LINE",
"67 732 LINE",
"67 1 LINE",
"158 71 LINE",
"186 36 OFFCURVE",
"274 -10 OFFCURVE",
"333 -10 QCURVE SMOOTH"
);
},
{
closed = 1;
nodes = (
"490 200 OFFCURVE",
"464 134 OFFCURVE",
"418 86 OFFCURVE",
"355 59 OFFCURVE",
"318 59 QCURVE SMOOTH",
"283 59 OFFCURVE",
"220 87 OFFCURVE",
"173 136 OFFCURVE",
"146 202 OFFCURVE",
"146 241 QCURVE SMOOTH",
"146 280 OFFCURVE",
"173 347 OFFCURVE",
"220 395 OFFCURVE",
"283 422 OFFCURVE",
"318 422 QCURVE SMOOTH",
"357 422 OFFCURVE",
"420 394 OFFCURVE",
"465 345 OFFCURVE",
"490 278 OFFCURVE",
"490 240 QCURVE SMOOTH"
);
}
);
width = 606;
}
);
unicode = 0062;
},
{
glyphname = c;
layers = (
{
layerId = "6D82140E-0966-4184-BBA2-B1F9A77F6692";
paths = (
{
closed = 1;
nodes = (
"432 537 LINE",
"409 545 OFFCURVE",
"348 552 OFFCURVE",
"320 552 QCURVE SMOOTH",
"256 552 OFFCURVE",
"149 507 OFFCURVE",
"73 429 OFFCURVE",
"30 327 OFFCURVE",
"30 270 QCURVE SMOOTH",
"30 212 OFFCURVE",
"74 109 OFFCURVE",
"152 32 OFFCURVE",
"257 -13 OFFCURVE",
"318 -13 QCURVE SMOOTH",
"348 -13 OFFCURVE",
"412 -3 OFFCURVE",
"437 6 QCURVE",
"437 183 LINE",
"412 163 OFFCURVE",
"361 147 OFFCURVE",
"338 147 QCURVE SMOOTH",
"312 147 OFFCURVE",
"267 166 OFFCURVE",
"234 199 OFFCURVE",
"215 244 OFFCURVE",
"215 270 QCURVE SMOOTH",
"215 296 OFFCURVE",
"233 340 OFFCURVE",
"264 373 OFFCURVE",
"308 392 OFFCURVE",
"335 392 QCURVE SMOOTH",
"364 392 OFFCURVE",
"410 372 OFFCURVE",
"432 355 QCURVE"
);
}
);
width = 473;
},
{
layerId = "8ED872FE-1BCA-4686-B4C5-0573B67FF490";
paths = (
{
closed = 1;
nodes = (
"422 466 LINE",
"396 485 OFFCURVE",
"325 502 OFFCURVE",
"290 502 QCURVE SMOOTH",
"233 502 OFFCURVE",
"138 461 OFFCURVE",
"71 391 OFFCURVE",
"34 298 OFFCURVE",
"34 245 QCURVE SMOOTH",
"34 191 OFFCURVE",
"72 98 OFFCURVE",
"139 29 OFFCURVE",
"231 -10 OFFCURVE",
"284 -10 QCURVE SMOOTH",
"327 -10 OFFCURVE",
"398 13 OFFCURVE",
"427 30 QCURVE",
"427 135 LINE",
"401 107 OFFCURVE",
"334 75 OFFCURVE",
"295 75 QCURVE SMOOTH",
"261 75 OFFCURVE",
"202 103 OFFCURVE",
"159 151 OFFCURVE",
"134 214 OFFCURVE",
"134 250 QCURVE SMOOTH",
"134 286 OFFCURVE",
"158 348 OFFCURVE",
"200 393 OFFCURVE",
"258 418 OFFCURVE",
"292 418 QCURVE SMOOTH",
"330 418 OFFCURVE",
"395 387 OFFCURVE",
"422 358 QCURVE"
);
}
);
width = 471;
},
{
layerId = "4375AB62-CFBC-411E-9D12-25ECC6BFDF4C";
paths = (
{
closed = 1;
nodes = (
"420 452 LINE",
"393 472 OFFCURVE",
"320 492 OFFCURVE",
"284 492 QCURVE SMOOTH",
"229 492 OFFCURVE",
"136 452 OFFCURVE",
"71 384 OFFCURVE",
"35 292 OFFCURVE",
"35 240 QCURVE SMOOTH",
"35 187 OFFCURVE",
"72 96 OFFCURVE",
"137 29 OFFCURVE",
"225 -9 OFFCURVE",
"277 -9 QCURVE SMOOTH",
"322 -9 OFFCURVE",
"396 17 OFFCURVE",
"425 35 QCURVE",
"425 125 LINE",
"398 96 OFFCURVE",
"328 60 OFFCURVE",
"286 60 QCURVE SMOOTH",
"250 60 OFFCURVE",
"189 90 OFFCURVE",
"144 141 OFFCURVE",
"118 209 OFFCURVE",
"118 247 QCURVE SMOOTH",
"118 284 OFFCURVE",
"143 349 OFFCURVE",
"186 396 OFFCURVE",
"247 423 OFFCURVE",
"283 423 QCURVE SMOOTH",
"323 423 OFFCURVE",
"392 389 OFFCURVE",
"420 359 QCURVE"
);
}
);
width = 470;
}
);
unicode = 0063;
},
{
glyphname = d;
layers = (
{
layerId = "6D82140E-0966-4184-BBA2-B1F9A77F6692";
paths = (
{
closed = 1;
nodes = (
"623 -12 LINE",
"623 730 LINE",
"433 730 LINE",
"433 475 LINE",
"406 506 OFFCURVE",
"329 553 OFFCURVE",
"268 553 QCURVE SMOOTH",
"220 553 OFFCURVE",
"133 514 OFFCURVE",
"68 441 OFFCURVE",
"29 336 OFFCURVE",
"29 270 QCURVE SMOOTH",
"29 204 OFFCURVE",
"68 100 OFFCURVE",
"134 27 OFFCURVE",
"221 -12 OFFCURVE",
"269 -12 QCURVE SMOOTH",
"329 -12 OFFCURVE",
"405 38 OFFCURVE",
"433 72 QCURVE"
);
},
{
closed = 1;
nodes = (
"216 298 OFFCURVE",
"234 343 OFFCURVE",
"264 376 OFFCURVE",
"304 394 OFFCURVE",
"326 394 QCURVE SMOOTH",
"349 394 OFFCURVE",
"389 376 OFFCURVE",
"419 343 OFFCURVE",
"436 299 OFFCURVE",
"436 272 QCURVE SMOOTH",
"436 244 OFFCURVE",
"419 198 OFFCURVE",
"389 165 OFFCURVE",
"349 147 OFFCURVE",
"326 147 QCURVE SMOOTH",
"304 147 OFFCURVE",
"264 165 OFFCURVE",
"234 198 OFFCURVE",
"216 243 OFFCURVE",
"216 270 QCURVE SMOOTH"
);
}
);
width = 675;
},
{
layerId = "8ED872FE-1BCA-4686-B4C5-0573B67FF490";
paths = (
{
closed = 1;
nodes = (
"552 -1 LINE",
"552 732 LINE",
"452 732 LINE",
"452 411 LINE",
"422 453 OFFCURVE",
"332 504 OFFCURVE",
"271 504 QCURVE SMOOTH",
"223 504 OFFCURVE",
"137 468 OFFCURVE",
"72 400 OFFCURVE",
"34 305 OFFCURVE",
"34 246 QCURVE SMOOTH",
"34 187 OFFCURVE",
"72 92 OFFCURVE",
"137 26 OFFCURVE",
"224 -10 OFFCURVE",
"273 -10 QCURVE SMOOTH",
"332 -10 OFFCURVE",
"412 38 OFFCURVE",
"444 76 QCURVE"
);
},
{
closed = 1;
nodes = (
"134 286 OFFCURVE",
"159 349 OFFCURVE",
"202 394 OFFCURVE",
"259 419 OFFCURVE",
"291 419 QCURVE SMOOTH",
"324 419 OFFCURVE",
"383 393 OFFCURVE",
"428 347 OFFCURVE",
"455 284 OFFCURVE",
"455 247 QCURVE SMOOTH",
"455 210 OFFCURVE",
"429 146 OFFCURVE",
"384 101 OFFCURVE",
"324 75 OFFCURVE",
"291 75 QCURVE SMOOTH",
"258 75 OFFCURVE",
"200 100 OFFCURVE",
"158 146 OFFCURVE",
"134 209 OFFCURVE",
"134 247 QCURVE SMOOTH"
);
}
);
width = 618;
},
{
layerId = "4375AB62-CFBC-411E-9D12-25ECC6BFDF4C";
paths = (
{
closed = 1;
nodes = (
"538 1 LINE",
"538 732 LINE",
"456 732 LINE",
"456 398 LINE",
"425 443 OFFCURVE",
"332 494 OFFCURVE",
"271 494 QCURVE SMOOTH",
"223 494 OFFCURVE",
"137 458 OFFCURVE",
"73 392 OFFCURVE",
"35 298 OFFCURVE",
"35 241 QCURVE SMOOTH",
"35 184 OFFCURVE",
"73 91 OFFCURVE",
"138 25 OFFCURVE",
"225 -10 OFFCURVE",
"274 -10 QCURVE SMOOTH",
"333 -10 OFFCURVE",
"413 37 OFFCURVE",
"446 77 QCURVE"
);
},
{
closed = 1;
nodes = (
"118 283 OFFCURVE",
"144 350 OFFCURVE",
"189 398 OFFCURVE",
"250 424 OFFCURVE",
"284 424 QCURVE SMOOTH",
"319 424 OFFCURVE",
"382 397 OFFCURVE",
"430 348 OFFCURVE",
"459 281 OFFCURVE",
"459 242 QCURVE SMOOTH",
"459 203 OFFCURVE",
"431 136 OFFCURVE",
"383 87 OFFCURVE",
"320 60 OFFCURVE",
"284 60 QCURVE SMOOTH",
"248 60 OFFCURVE",
"188 87 OFFCURVE",
"143 135 OFFCURVE",
"118 202 OFFCURVE",
"118 242 QCURVE SMOOTH"
);
}
);
width = 606;
}
);
unicode = 0064;
},
{
glyphname = e;
layers = (
{
layerId = "6D82140E-0966-4184-BBA2-B1F9A77F6692";
paths = (
{
closed = 1;
nodes = (
"288 121 OFFCURVE",
"243 133 OFFCURVE",
"225 148 QCURVE",
"580 240 LINE",
"580 300 OFFCURVE",
"546 412 OFFCURVE",
"478 497 OFFCURVE",
"378 548 OFFCURVE",
"312 548 QCURVE SMOOTH",
"251 548 OFFCURVE",
"147 506 OFFCURVE",
"72 431 OFFCURVE",
"30 329 OFFCURVE",
"30 269 QCURVE SMOOTH",
"30 207 OFFCURVE",
"71 102 OFFCURVE",
"146 26 OFFCURVE",
"249 -17 OFFCURVE",
"312 -17 QCURVE SMOOTH",
"334 -17 OFFCURVE",
"387 -11 OFFCURVE",
"444 2 OFFCURVE",
"501 25 OFFCURVE",
"527 42 QCURVE",
"527 190 LINE",
"508 173 OFFCURVE",
"455 147 OFFCURVE",
"398 130 OFFCURVE",
"340 121 OFFCURVE",
"315 121 QCURVE SMOOTH"
);
},
{
closed = 1;
nodes = (
"210 275 LINE SMOOTH",
"210 297 OFFCURVE",
"219 344 OFFCURVE",
"240 382 OFFCURVE",
"275 407 OFFCURVE",
"301 407 QCURVE SMOOTH",
"336 407 OFFCURVE",
"385 361 OFFCURVE",
"394 319 QCURVE",
"210 272 LINE"
);
}
);
width = 609;
},
{
layerId = "8ED872FE-1BCA-4686-B4C5-0573B67FF490";
paths = (
{
closed = 1;
nodes = (
"234 69 OFFCURVE",
"158 126 OFFCURVE",
"141 171 QCURVE",
"513 262 LINE",
"508 311 OFFCURVE",
"472 399 OFFCURVE",
"412 465 OFFCURVE",
"328 504 OFFCURVE",
"274 504 QCURVE SMOOTH",
"220 504 OFFCURVE",
"132 464 OFFCURVE",
"69 394 OFFCURVE",
"34 299 OFFCURVE",
"34 244 QCURVE SMOOTH",
"34 188 OFFCURVE",
"73 94 OFFCURVE",
"141 26 OFFCURVE",
"235 -12 OFFCURVE",
"290 -12 QCURVE SMOOTH",
"316 -12 OFFCURVE",
"365 -4 OFFCURVE",
"410 11 OFFCURVE",
"450 31 OFFCURVE",
"467 44 QCURVE",
"467 142 LINE",
"452 127 OFFCURVE",
"415 101 OFFCURVE",
"372 81 OFFCURVE",
"322 69 OFFCURVE",
"294 69 QCURVE SMOOTH"
);
},
{
closed = 1;
nodes = (
"131 252 LINE",
"131 284 OFFCURVE",
"149 345 OFFCURVE",
"185 393 OFFCURVE",
"239 422 OFFCURVE",
"274 422 QCURVE SMOOTH",
"328 422 OFFCURVE",
"400 362 OFFCURVE",
"412 317 QCURVE",
"134 245 LINE"
);
}
);
width = 546;
},
{
layerId = "4375AB62-CFBC-411E-9D12-25ECC6BFDF4C";
paths = (
{
closed = 1;
nodes = (
"224 59 OFFCURVE",
"141 124 OFFCURVE",
"124 175 QCURVE",
"499 266 LINE",
"493 313 OFFCURVE",
"458 396 OFFCURVE",
"399 458 OFFCURVE",
"318 495 OFFCURVE",
"266 495 QCURVE SMOOTH",
"214 495 OFFCURVE",
"128 455 OFFCURVE",
"68 386 OFFCURVE",
"35 293 OFFCURVE",
"35 239 QCURVE SMOOTH",
"35 184 OFFCURVE",
"73 92 OFFCURVE",
"140 26 OFFCURVE",
"231 -11 OFFCURVE",
"285 -11 QCURVE SMOOTH",
"312 -11 OFFCURVE",
"360 -3 OFFCURVE",
"403 12 OFFCURVE",
"440 32 OFFCURVE",
"455 44 QCURVE",
"455 132 LINE",
"441 118 OFFCURVE",
"407 92 OFFCURVE",
"365 71 OFFCURVE",
"318 59 OFFCURVE",
"290 59 QCURVE SMOOTH"
);
},
{
closed = 1;
nodes = (
"115 249 LINE",
"115 281 OFFCURVE",
"135 345 OFFCURVE",
"174 395 OFFCURVE",
"232 425 OFFCURVE",
"269 425 QCURVE SMOOTH",
"326 425 OFFCURVE",
"403 362 OFFCURVE",
"416 316 QCURVE",
"119 240 LINE"
);
}
);
width = 533;
}
);
unicode = 0065;
},
{
glyphname = f;
layers = (
{
layerId = "6D82140E-0966-4184-BBA2-B1F9A77F6692";
paths = (
{
closed = 1;
nodes = (
"401 722 LINE",
"378 729 OFFCURVE",
"322 737 OFFCURVE",
"285 737 QCURVE SMOOTH",
"194 737 OFFCURVE",
"90 648 OFFCURVE",
"90 550 QCURVE SMOOTH",
"90 535 LINE",
"7 389 LINE",
"90 389 LINE",
"90 0 LINE",
"279 0 LINE",
"279 389 LINE",
"400 389 LINE",
"400 535 LINE",
"246 535 LINE",
"246 548 LINE SMOOTH",
"246 561 OFFCURVE",
"261 580 OFFCURVE",
"283 593 OFFCURVE",
"311 599 OFFCURVE",
"324 599 QCURVE SMOOTH",
"341 599 OFFCURVE",
"384 593 OFFCURVE",
"401 588 QCURVE"
);
}
);
width = 399;
},
{
layerId = "8ED872FE-1BCA-4686-B4C5-0573B67FF490";
paths = (
{
closed = 1;
nodes = (
"339 725 LINE",
"325 730 OFFCURVE",
"290 736 OFFCURVE",
"268 736 QCURVE SMOOTH",
"194 736 OFFCURVE",
"107 652 OFFCURVE",
"107 556 QCURVE SMOOTH",
"107 493 LINE",
"11 409 LINE",
"107 409 LINE",
"107 0 LINE",
"204 0 LINE",
"204 409 LINE",
"325 409 LINE",
"325 491 LINE",
"199 491 LINE",
"199 552 LINE SMOOTH",
"199 578 OFFCURVE",
"209 617 OFFCURVE",
"230 644 OFFCURVE",
"261 657 OFFCURVE",
"283 657 QCURVE SMOOTH",
"297 657 OFFCURVE",
"325 651 OFFCURVE",
"339 646 QCURVE"
);
}
);
width = 335;
},
{
layerId = "4375AB62-CFBC-411E-9D12-25ECC6BFDF4C";
paths = (
{
closed = 1;
nodes = (
"326 726 LINE",
"314 730 OFFCURVE",
"283 736 OFFCURVE",
"265 736 QCURVE SMOOTH",
"194 736 OFFCURVE",
"110 653 OFFCURVE",
"110 557 QCURVE SMOOTH",
"110 484 LINE",
"12 413 LINE",
"110 413 LINE",
"110 0 LINE",
"189 0 LINE",
"189 413 LINE",
"310 413 LINE",
"310 482 LINE",
"189 482 LINE",
"189 553 LINE SMOOTH",
"189 581 OFFCURVE",
"198 624 OFFCURVE",
"219 653 OFFCURVE",
"251 668 OFFCURVE",
"275 668 QCURVE SMOOTH",
"288 668 OFFCURVE",
"313 663 OFFCURVE",
"326 658 QCURVE"
);
}
);
width = 322;
}
);
unicode = 0066;
},
{
glyphname = g;
layers = (
{
layerId = "6D82140E-0966-4184-BBA2-B1F9A77F6692";
paths = (
{
closed = 1;
nodes = (
"222 322 OFFCURVE",
"238 361 OFFCURVE",
"267 389 OFFCURVE",
"308 405 OFFCURVE",
"332 405 QCURVE SMOOTH",
"356 405 OFFCURVE",
"396 389 OFFCURVE",
"426 362 OFFCURVE",
"442 324 OFFCURVE",
"442 302 QCURVE SMOOTH",
"442 279 OFFCURVE",
"426 240 OFFCURVE",
"396 212 OFFCURVE",
"356 196 OFFCURVE",
"332 196 QCURVE SMOOTH",
"308 196 OFFCURVE",
"267 212 OFFCURVE",
"238 239 OFFCURVE",
"222 277 OFFCURVE",
"222 299 QCURVE SMOOTH"
);
},
{
closed = 1;
nodes = (
"253 -25 OFFCURVE",
"187 -11 OFFCURVE",
"125 11 OFFCURVE",
"71 37 OFFCURVE",
"50 50 QCURVE",
"50 -100 LINE",
"80 -115 OFFCURVE",
"134 -138 OFFCURVE",
"191 -154 OFFCURVE",
"252 -162 OFFCURVE",
"288 -162 QCURVE SMOOTH",
"362 -162 OFFCURVE",
"487 -126 OFFCURVE",
"578 -53 OFFCURVE",
"629 57 OFFCURVE",
"629 131 QCURVE SMOOTH",
"629 541 LINE",
"439 477 LINE",
"408 509 OFFCURVE",
"332 553 OFFCURVE",
"275 553 QCURVE SMOOTH",
"226 553 OFFCURVE",
"139 518 OFFCURVE",
"73 453 OFFCURVE",
"35 360 OFFCURVE",
"35 301 QCURVE SMOOTH",
"35 243 OFFCURVE",
"73 149 OFFCURVE",
"138 83 OFFCURVE",
"225 48 OFFCURVE",
"274 48 QCURVE SMOOTH",
"335 48 OFFCURVE",
"413 96 OFFCURVE",
"442 130 QCURVE",
"442 109 LINE SMOOTH",
"442 43 OFFCURVE",
"359 -25 OFFCURVE",
"286 -25 QCURVE SMOOTH"
);
}
);
width = 680;
},
{
layerId = "8ED872FE-1BCA-4686-B4C5-0573B67FF490";
paths = (
{
closed = 1;
nodes = (
"140 300 OFFCURVE",
"163 357 OFFCURVE",
"205 398 OFFCURVE",
"262 421 OFFCURVE",
"296 421 QCURVE SMOOTH",
"330 421 OFFCURVE",
"389 398 OFFCURVE",
"433 356 OFFCURVE",
"458 298 OFFCURVE",
"458 263 QCURVE SMOOTH",
"458 229 OFFCURVE",
"433 172 OFFCURVE",
"389 130 OFFCURVE",
"330 107 OFFCURVE",
"297 107 QCURVE SMOOTH",
"263 107 OFFCURVE",
"205 131 OFFCURVE",
"163 173 OFFCURVE",
"140 231 OFFCURVE",
"140 265 QCURVE SMOOTH"
);
},
{
closed = 1;
nodes = (
"247 -108 OFFCURVE",
"193 -99 OFFCURVE",
"142 -81 OFFCURVE",
"96 -55 OFFCURVE",
"75 -39 QCURVE",
"75 -139 LINE",
"95 -150 OFFCURVE",
"140 -168 OFFCURVE",
"190 -182 OFFCURVE",
"246 -189 OFFCURVE",
"276 -189 QCURVE SMOOTH",
"338 -189 OFFCURVE",
"441 -156 OFFCURVE",
"516 -91 OFFCURVE",
"557 5 OFFCURVE",
"557 69 QCURVE SMOOTH",
"557 492 LINE",
"448 423 LINE",
"417 459 OFFCURVE",
"334 504 OFFCURVE",
"274 504 QCURVE SMOOTH",
"226 504 OFFCURVE",
"140 469 OFFCURVE",
"76 405 OFFCURVE",
"38 316 OFFCURVE",
"38 261 QCURVE SMOOTH",
"38 209 OFFCURVE",
"74 122 OFFCURVE",
"138 59 OFFCURVE",
"224 24 OFFCURVE",
"274 24 QCURVE SMOOTH",
"335 24 OFFCURVE",
"423 75 OFFCURVE",
"458 118 QCURVE",
"458 64 LINE SMOOTH",
"458 -27 OFFCURVE",
"364 -108 OFFCURVE",
"276 -108 QCURVE SMOOTH"
);
}
);
width = 623;
},
{
layerId = "4375AB62-CFBC-411E-9D12-25ECC6BFDF4C";
paths = (
{
closed = 1;
nodes = (
"123 295 OFFCURVE",
"148 356 OFFCURVE",
"192 400 OFFCURVE",
"253 424 OFFCURVE",
"289 424 QCURVE SMOOTH",
"325 424 OFFCURVE",
"388 399 OFFCURVE",
"434 354 OFFCURVE",
"461 292 OFFCURVE",
"461 255 QCURVE SMOOTH",
"461 219 OFFCURVE",
"434 158 OFFCURVE",
"388 114 OFFCURVE",
"325 89 OFFCURVE",
"290 89 QCURVE SMOOTH",
"254 89 OFFCURVE",
"193 114 OFFCURVE",
"148 159 OFFCURVE",
"123 221 OFFCURVE",
"123 258 QCURVE SMOOTH"
);
},
{
closed = 1;
nodes = (
"246 -124 OFFCURVE",
"194 -116 OFFCURVE",
"146 -99 OFFCURVE",
"101 -74 OFFCURVE",
"80 -57 QCURVE",
"80 -147 LINE",
"98 -157 OFFCURVE",
"141 -174 OFFCURVE",
"190 -187 OFFCURVE",
"245 -194 OFFCURVE",
"274 -194 QCURVE SMOOTH",
"333 -194 OFFCURVE",
"432 -162 OFFCURVE",
"503 -99 OFFCURVE",
"542 -6 OFFCURVE",
"542 56 QCURVE SMOOTH",
"542 482 LINE",
"450 412 LINE",
"419 449 OFFCURVE",
"334 494 OFFCURVE",
"274 494 QCURVE SMOOTH",
"226 494 OFFCURVE",
"141 459 OFFCURVE",
"76 396 OFFCURVE",
"39 307 OFFCURVE",
"39 253 QCURVE SMOOTH",
"39 202 OFFCURVE",
"75 116 OFFCURVE",
"138 54 OFFCURVE",
"224 19 OFFCURVE",
"274 19 QCURVE SMOOTH",
"335 19 OFFCURVE",
"426 70 OFFCURVE",
"461 115 QCURVE",
"461 55 LINE SMOOTH",
"461 -42 OFFCURVE",
"365 -124 OFFCURVE",
"274 -124 QCURVE SMOOTH"
);
}
);
width = 611;
}
);
unicode = 0067;
},
{
glyphname = h;
layers = (
{
layerId = "6D82140E-0966-4184-BBA2-B1F9A77F6692";
paths = (
{
closed = 1;
nodes = (
"345 553 OFFCURVE",
"267 501 OFFCURVE",
"241 467 QCURVE",
"241 730 LINE",
"51 730 LINE",
"51 0 LINE",
"241 0 LINE",
"241 293 LINE SMOOTH",
"241 315 OFFCURVE",
"254 349 OFFCURVE",
"276 372 OFFCURVE",
"305 384 OFFCURVE",
"321 384 QCURVE SMOOTH",
"353 384 OFFCURVE",
"397 338 OFFCURVE",
"397 293 QCURVE SMOOTH",
"397 0 LINE",
"587 0 LINE",
"587 354 LINE SMOOTH",
"587 400 OFFCURVE",
"560 474 OFFCURVE",
"511 525 OFFCURVE",
"444 553 OFFCURVE",
"403 553 QCURVE SMOOTH"
);
}
);
width = 635;
},
{
layerId = "8ED872FE-1BCA-4686-B4C5-0573B67FF490";
paths = (
{
closed = 1;
nodes = (
"269 503 OFFCURVE",
"184 457 OFFCURVE",
"158 425 QCURVE",
"158 732 LINE",
"64 732 LINE",
"64 0 LINE",
"164 0 LINE",
"164 282 LINE SMOOTH",
"164 314 OFFCURVE",
"186 360 OFFCURVE",
"222 392 OFFCURVE",
"269 407 OFFCURVE",
"294 407 QCURVE SMOOTH",
"346 407 OFFCURVE",
"399 345 OFFCURVE",
"399 282 QCURVE SMOOTH",
"399 0 LINE",
"499 0 LINE",
"499 312 LINE SMOOTH",
"499 361 OFFCURVE",
"474 433 OFFCURVE",
"429 480 OFFCURVE",
"365 503 OFFCURVE",
"325 503 QCURVE SMOOTH"
);
}
);
width = 558;
},
{
layerId = "4375AB62-CFBC-411E-9D12-25ECC6BFDF4C";
paths = (
{
closed = 1;
nodes = (
"254 493 OFFCURVE",
"167 448 OFFCURVE",
"141 416 QCURVE",
"141 732 LINE",
"67 732 LINE",
"67 0 LINE",
"149 0 LINE",
"149 280 LINE SMOOTH",
"149 313 OFFCURVE",
"172 363 OFFCURVE",
"211 396 OFFCURVE",
"261 412 OFFCURVE",
"288 412 QCURVE SMOOTH",
"345 412 OFFCURVE",
"399 346 OFFCURVE",
"399 280 QCURVE SMOOTH",
"399 0 LINE",
"481 0 LINE",
"481 303 LINE SMOOTH",
"481 353 OFFCURVE",
"457 425 OFFCURVE",
"412 471 OFFCURVE",
"349 493 OFFCURVE",
"309 493 QCURVE SMOOTH"
);
}
);
width = 542;
}
);
unicode = 0068;
},
{
glyphname = i;
layers = (
{
layerId = "6D82140E-0966-4184-BBA2-B1F9A77F6692";
paths = (
{
closed = 1;
nodes = (
"241 541 LINE",
"51 541 LINE",
"51 0 LINE",
"241 0 LINE"
);
},
{
closed = 1;
nodes = (
"38 636 OFFCURVE",
"100 587 OFFCURVE",
"145 587 QCURVE SMOOTH",
"190 587 OFFCURVE",
"253 636 OFFCURVE",
"253 684 QCURVE SMOOTH",
"253 732 OFFCURVE",
"190 780 OFFCURVE",
"145 780 QCURVE SMOOTH",
"100 780 OFFCURVE",
"38 732 OFFCURVE",
"38 684 QCURVE SMOOTH"
);
}
);
width = 291;
},
{
layerId = "8ED872FE-1BCA-4686-B4C5-0573B67FF490";
paths = (
{
closed = 1;
nodes = (
"169 492 LINE",
"70 492 LINE",
"70 0 LINE",
"169 0 LINE"
);
},
{
closed = 1;
nodes = (
"51 617 OFFCURVE",
"91 580 OFFCURVE",
"118 580 QCURVE SMOOTH",
"148 580 OFFCURVE",
"187 617 OFFCURVE",
"187 645 QCURVE SMOOTH",
"187 676 OFFCURVE",
"148 712 OFFCURVE",
"118 712 QCURVE SMOOTH",
"91 712 OFFCURVE",
"51 676 OFFCURVE",
"51 645 QCURVE SMOOTH"
);
}
);
width = 239;
},
{
layerId = "4375AB62-CFBC-411E-9D12-25ECC6BFDF4C";
paths = (
{
closed = 1;
nodes = (
"155 482 LINE",
"74 482 LINE",
"74 0 LINE",
"155 0 LINE"
);
},
{
closed = 1;
nodes = (
"53 614 OFFCURVE",
"89 578 OFFCURVE",
"113 578 QCURVE SMOOTH",
"139 578 OFFCURVE",
"174 614 OFFCURVE",
"174 637 QCURVE SMOOTH",
"174 664 OFFCURVE",
"139 698 OFFCURVE",
"113 698 QCURVE SMOOTH",
"89 698 OFFCURVE",
"53 664 OFFCURVE",
"53 637 QCURVE SMOOTH"
);
}
);
width = 229;
}
);
unicode = 0069;
},
{
glyphname = j;
layers = (
{
layerId = "6D82140E-0966-4184-BBA2-B1F9A77F6692";
paths = (
{
closed = 1;
nodes = (
"38 -156 LINE",
"55 -159 OFFCURVE",
"93 -163 OFFCURVE",
"116 -163 QCURVE SMOOTH",
"162 -163 OFFCURVE",
"234 -143 OFFCURVE",
"283 -99 OFFCURVE",
"309 -27 OFFCURVE",
"309 24 QCURVE SMOOTH",
"309 541 LINE",
"119 541 LINE",
"119 32 LINE SMOOTH",
"119 -3 OFFCURVE",
"94 -31 OFFCURVE",
"76 -31 QCURVE SMOOTH",
"67 -31 OFFCURVE",
"49 -27 OFFCURVE",
"38 -23 QCURVE"
);
},
{
closed = 1;
nodes = (
"106 636 OFFCURVE",
"168 587 OFFCURVE",
"213 587 QCURVE SMOOTH",
"258 587 OFFCURVE",
"321 636 OFFCURVE",
"321 684 QCURVE SMOOTH",
"321 732 OFFCURVE",
"258 780 OFFCURVE",
"213 780 QCURVE SMOOTH",
"168 780 OFFCURVE",
"106 732 OFFCURVE",
"106 684 QCURVE SMOOTH"
);
}
);
width = 359;
},
{
layerId = "8ED872FE-1BCA-4686-B4C5-0573B67FF490";
paths = (
{
closed = 1;
nodes = (
"51 -182 LINE",
"63 -185 OFFCURVE",
"88 -189 OFFCURVE",
"105 -189 QCURVE SMOOTH",
"144 -189 OFFCURVE",
"194 -165 OFFCURVE",
"222 -122 OFFCURVE",
"232 -62 OFFCURVE",
"232 -27 QCURVE SMOOTH",
"232 492 LINE",
"133 492 LINE",
"133 -46 LINE SMOOTH",
"133 -72 OFFCURVE",
"114 -109 OFFCURVE",
"84 -109 QCURVE SMOOTH",
"76 -109 OFFCURVE",
"59 -106 OFFCURVE",
"51 -103 QCURVE"
);
},
{
closed = 1;
nodes = (
"111 617 OFFCURVE",
"150 580 OFFCURVE",
"179 580 QCURVE SMOOTH",
"206 580 OFFCURVE",
"247 617 OFFCURVE",
"247 645 QCURVE SMOOTH",
"247 676 OFFCURVE",
"206 712 OFFCURVE",
"179 712 QCURVE SMOOTH",
"150 712 OFFCURVE",
"111 676 OFFCURVE",
"111 645 QCURVE SMOOTH"
);
}
);
width = 299;
},
{
layerId = "4375AB62-CFBC-411E-9D12-25ECC6BFDF4C";
paths = (
{
closed = 1;
nodes = (
"53 -187 LINE",
"64 -190 OFFCURVE",
"88 -194 OFFCURVE",
"103 -194 QCURVE SMOOTH",
"141 -194 OFFCURVE",
"186 -169 OFFCURVE",
"210 -126 OFFCURVE",
"217 -69 OFFCURVE",
"217 -37 QCURVE SMOOTH",
"217 482 LINE",
"136 482 LINE",
"136 -62 LINE SMOOTH",
"136 -86 OFFCURVE",
"118 -125 OFFCURVE",
"86 -125 QCURVE SMOOTH",
"78 -125 OFFCURVE",
"61 -122 OFFCURVE",
"53 -119 QCURVE"
);
},
{
closed = 1;
nodes = (
"112 614 OFFCURVE",
"147 578 OFFCURVE",
"172 578 QCURVE SMOOTH",
"195 578 OFFCURVE",
"232 614 OFFCURVE",
"232 637 QCURVE SMOOTH",
"232 664 OFFCURVE",
"195 698 OFFCURVE",
"172 698 QCURVE SMOOTH",
"147 698 OFFCURVE",
"112 664 OFFCURVE",
"112 637 QCURVE SMOOTH"
);
}
);
width = 287;
}
);
unicode = 006A;
},
{
glyphname = k;
layers = (
{
layerId = "6D82140E-0966-4184-BBA2-B1F9A77F6692";
paths = (
{
closed = 1;
nodes = (
"241 730 LINE",
"51 730 LINE",
"51 0 LINE",
"241 0 LINE",
"241 283 LINE",
"399 0 LINE",
"608 0 LINE",
"415 324 LINE",
"603 541 LINE",
"388 541 LINE",
"241 360 LINE"
);
}
);
width = 608;
},
{
layerId = "8ED872FE-1BCA-4686-B4C5-0573B67FF490";
paths = (
{
closed = 1;
nodes = (
"164 732 LINE",
"64 732 LINE",
"64 0 LINE",
"164 0 LINE",
"164 227 LINE",
"355 0 LINE",
"474 0 LINE",
"252 266 LINE",
"466 492 LINE",
"342 492 LINE",
"164 294 LINE"
);
}
);
width = 474;
},
{
layerId = "4375AB62-CFBC-411E-9D12-25ECC6BFDF4C";
paths = (
{
closed = 1;
nodes = (
"149 732 LINE",
"67 732 LINE",
"67 0 LINE",
"149 0 LINE",
"149 216 LINE",
"346 0 LINE",
"447 0 LINE",
"219 254 LINE",
"438 482 LINE",
"333 482 LINE",
"149 281 LINE"
);
}
);
width = 447;
}
);
unicode = 006B;
},
{
glyphname = l;
layers = (
{
layerId = "6D82140E-0966-4184-BBA2-B1F9A77F6692";
paths = (
{
closed = 1;
nodes = (
"241 730 LINE",
"51 730 LINE",
"51 0 LINE",
"241 0 LINE"
);
}
);
width = 293;
},
{
layerId = "8ED872FE-1BCA-4686-B4C5-0573B67FF490";
paths = (
{
closed = 1;
nodes = (
"164 732 LINE",
"64 732 LINE",
"64 0 LINE",
"164 0 LINE"
);
}
);
width = 230;
},
{
layerId = "4375AB62-CFBC-411E-9D12-25ECC6BFDF4C";
paths = (
{
closed = 1;
nodes = (
"148 732 LINE",
"67 732 LINE",
"67 0 LINE",
"148 0 LINE"
);
}
);
width = 217;
}
);
unicode = 006C;
},
{
glyphname = m;
layers = (
{
layerId = "6D82140E-0966-4184-BBA2-B1F9A77F6692";
paths = (
{
closed = 1;
nodes = (
"924 0 LINE",
"924 355 LINE SMOOTH",
"924 395 OFFCURVE",
"899 467 OFFCURVE",
"851 521 OFFCURVE",
"783 553 OFFCURVE",
"740 553 QCURVE SMOOTH",
"680 553 OFFCURVE",
"593 507 OFFCURVE",
"558 465 QCURVE",
"536 510 OFFCURVE",
"452 553 OFFCURVE",
"404 553 QCURVE SMOOTH",
"353 553 OFFCURVE",
"273 507 OFFCURVE",
"241 467 QCURVE",
"51 541 LINE",
"51 0 LINE",
"241 0 LINE",
"241 294 LINE SMOOTH",
"241 316 OFFCURVE",
"253 350 OFFCURVE",
"274 372 OFFCURVE",
"302 384 OFFCURVE",
"318 384 QCURVE SMOOTH",
"334 384 OFFCURVE",
"361 372 OFFCURVE",
"381 350 OFFCURVE",
"392 316 OFFCURVE",
"392 294 QCURVE SMOOTH",
"392 0 LINE",
"582 0 LINE",
"582 294 LINE SMOOTH",
"582 312 OFFCURVE",
"592 344 OFFCURVE",
"612 369 OFFCURVE",
"641 384 OFFCURVE",
"660 384 QCURVE SMOOTH",
"692 384 OFFCURVE",
"734 339 OFFCURVE",
"734 294 QCURVE SMOOTH",
"734 0 LINE"
);
}
);
width = 971;
},
{
layerId = "8ED872FE-1BCA-4686-B4C5-0573B67FF490";
paths = (
{
closed = 1;
nodes = (
"801 0 LINE",
"801 313 LINE SMOOTH",
"801 353 OFFCURVE",
"780 423 OFFCURVE",
"738 474 OFFCURVE",
"674 503 OFFCURVE",
"631 503 QCURVE SMOOTH",
"576 503 OFFCURVE",
"489 457 OFFCURVE",
"463 414 QCURVE",
"443 462 OFFCURVE",
"364 503 OFFCURVE",
"315 503 QCURVE SMOOTH",
"270 503 OFFCURVE",
"189 468 OFFCURVE",
"162 431 QCURVE",
"64 491 LINE",
"64 0 LINE",
"164 0 LINE",
"164 282 LINE SMOOTH",
"164 309 OFFCURVE",
"179 358 OFFCURVE",
"209 394 OFFCURVE",
"252 415 OFFCURVE",
"280 415 QCURVE SMOOTH",
"308 415 OFFCURVE",
"347 395 OFFCURVE",
"371 359 OFFCURVE",
"382 311 OFFCURVE",
"382 282 QCURVE SMOOTH",
"382 0 LINE",
"482 0 LINE",
"482 282 LINE SMOOTH",
"482 309 OFFCURVE",
"497 357 OFFCURVE",
"526 393 OFFCURVE",
"570 415 OFFCURVE",
"598 415 QCURVE SMOOTH",
"646 415 OFFCURVE",
"701 352 OFFCURVE",
"701 282 QCURVE SMOOTH",
"701 0 LINE"
);
}
);
width = 859;
},
{
layerId = "4375AB62-CFBC-411E-9D12-25ECC6BFDF4C";
paths = (
{
closed = 1;
nodes = (
"776 0 LINE",
"776 304 LINE SMOOTH",
"776 344 OFFCURVE",
"756 413 OFFCURVE",
"715 464 OFFCURVE",
"652 493 OFFCURVE",
"609 493 QCURVE SMOOTH",
"555 493 OFFCURVE",
"467 447 OFFCURVE",
"444 404 QCURVE",
"424 452 OFFCURVE",
"346 493 OFFCURVE",
"297 493 QCURVE SMOOTH",
"254 493 OFFCURVE",
"172 460 OFFCURVE",
"146 424 QCURVE",
"67 481 LINE",
"67 0 LINE",
"149 0 LINE",
"149 279 LINE SMOOTH",
"149 308 OFFCURVE",
"165 359 OFFCURVE",
"196 398 OFFCURVE",
"242 421 OFFCURVE",
"272 421 QCURVE SMOOTH",
"302 421 OFFCURVE",
"344 399 OFFCURVE",
"369 361 OFFCURVE",
"380 309 OFFCURVE",
"380 279 QCURVE SMOOTH",
"380 0 LINE",
"462 0 LINE",
"462 279 LINE SMOOTH",
"462 308 OFFCURVE",
"478 359 OFFCURVE",
"509 398 OFFCURVE",
"556 421 OFFCURVE",
"586 421 QCURVE SMOOTH",
"637 421 OFFCURVE",
"694 354 OFFCURVE",
"694 279 QCURVE SMOOTH",
"694 0 LINE"
);
}
);
width = 836;
}
);
unicode = 006D;
},
{
glyphname = n;
layers = (
{
layerId = "6D82140E-0966-4184-BBA2-B1F9A77F6692";
paths = (
{
closed = 1;
nodes = (
"345 553 OFFCURVE",
"267 499 OFFCURVE",
"241 465 QCURVE",
"51 541 LINE",
"51 0 LINE",
"241 0 LINE",
"241 293 LINE SMOOTH",
"241 315 OFFCURVE",
"254 349 OFFCURVE",
"276 372 OFFCURVE",
"305 384 OFFCURVE",
"321 384 QCURVE SMOOTH",
"337 384 OFFCURVE",
"365 372 OFFCURVE",
"385 349 OFFCURVE",
"397 315 OFFCURVE",
"397 293 QCURVE SMOOTH",
"397 0 LINE",
"587 0 LINE",
"587 354 LINE SMOOTH",
"587 400 OFFCURVE",
"559 474 OFFCURVE",
"510 525 OFFCURVE",
"442 553 OFFCURVE",
"403 553 QCURVE SMOOTH"
);
}
);
width = 635;
},
{
layerId = "8ED872FE-1BCA-4686-B4C5-0573B67FF490";
paths = (
{
closed = 1;
nodes = (
"271 503 OFFCURVE",
"193 461 OFFCURVE",
"166 428 QCURVE",
"64 492 LINE",
"64 0 LINE",
"164 0 LINE",
"164 282 LINE SMOOTH",
"164 320 OFFCURVE",
"188 371 OFFCURVE",
"224 402 OFFCURVE",
"268 415 OFFCURVE",
"288 415 QCURVE SMOOTH",
"308 415 OFFCURVE",
"348 402 OFFCURVE",
"380 370 OFFCURVE",
"399 320 OFFCURVE",
"399 282 QCURVE SMOOTH",
"399 0 LINE",
"499 0 LINE",
"499 312 LINE SMOOTH",
"499 359 OFFCURVE",
"474 430 OFFCURVE",
"428 478 OFFCURVE",
"363 503 OFFCURVE",
"323 503 QCURVE SMOOTH"
);
}
);
width = 558;
},
{
layerId = "4375AB62-CFBC-411E-9D12-25ECC6BFDF4C";
paths = (
{
closed = 1;
nodes = (
"255 493 OFFCURVE",
"178 453 OFFCURVE",
"151 421 QCURVE",
"67 482 LINE",
"67 0 LINE",
"149 0 LINE",
"149 280 LINE SMOOTH",
"149 321 OFFCURVE",
"175 376 OFFCURVE",
"214 408 OFFCURVE",
"260 421 OFFCURVE",
"281 421 QCURVE SMOOTH",
"302 421 OFFCURVE",
"345 407 OFFCURVE",
"378 375 OFFCURVE",
"399 321 OFFCURVE",
"399 280 QCURVE SMOOTH",
"399 0 LINE",
"481 0 LINE",
"481 303 LINE SMOOTH",
"481 350 OFFCURVE",
"456 421 OFFCURVE",
"411 469 OFFCURVE",
"347 493 OFFCURVE",
"307 493 QCURVE SMOOTH"
);
}
);
width = 542;
}
);
unicode = 006E;
},
{
glyphname = o;
layers = (
{
layerId = "6D82140E-0966-4184-BBA2-B1F9A77F6692";
paths = (
{
closed = 1;
nodes = (
"628 330 OFFCURVE",
"584 432 OFFCURVE",
"504 509 OFFCURVE",
"395 553 OFFCURVE",
"330 553 QCURVE SMOOTH",
"265 553 OFFCURVE",
"155 508 OFFCURVE",
"75 431 OFFCURVE",
"30 328 OFFCURVE",
"30 270 QCURVE SMOOTH",
"30 212 OFFCURVE",
"74 109 OFFCURVE",
"154 32 OFFCURVE",
"263 -13 OFFCURVE",
"328 -13 QCURVE SMOOTH",
"393 -13 OFFCURVE",
"503 33 OFFCURVE",
"583 111 OFFCURVE",
"628 214 OFFCURVE",
"628 272 QCURVE SMOOTH"
);
},
{
closed = 1;
nodes = (
"443 246 OFFCURVE",
"427 201 OFFCURVE",
"398 168 OFFCURVE",
"356 148 OFFCURVE",
"330 148 QCURVE SMOOTH",
"305 148 OFFCURVE",
"263 168 OFFCURVE",
"232 202 OFFCURVE",
"215 247 OFFCURVE",
"215 272 QCURVE SMOOTH",
"215 296 OFFCURVE",
"231 340 OFFCURVE",
"260 373 OFFCURVE",
"302 392 OFFCURVE",
"328 392 QCURVE SMOOTH",
"353 392 OFFCURVE",
"395 372 OFFCURVE",
"426 339 OFFCURVE",
"443 295 OFFCURVE",
"443 270 QCURVE SMOOTH"
);
}
);
width = 657;
},
{
layerId = "8ED872FE-1BCA-4686-B4C5-0573B67FF490";
paths = (
{
closed = 1;
nodes = (
"564 301 OFFCURVE",
"524 394 OFFCURVE",
"453 464 OFFCURVE",
"355 504 OFFCURVE",
"298 504 QCURVE SMOOTH",
"241 504 OFFCURVE",
"144 464 OFFCURVE",
"73 393 OFFCURVE",
"34 299 OFFCURVE",
"34 245 QCURVE SMOOTH",
"34 191 OFFCURVE",
"73 98 OFFCURVE",
"144 29 OFFCURVE",
"240 -11 OFFCURVE",
"297 -11 QCURVE SMOOTH",
"355 -11 OFFCURVE",
"453 30 OFFCURVE",
"524 100 OFFCURVE",
"564 194 OFFCURVE",
"564 247 QCURVE SMOOTH"
);
},
{
closed = 1;
nodes = (
"464 211 OFFCURVE",
"439 149 OFFCURVE",
"395 102 OFFCURVE",
"334 74 OFFCURVE",
"298 74 QCURVE SMOOTH",
"263 74 OFFCURVE",
"203 101 OFFCURVE",
"159 147 OFFCURVE",
"134 210 OFFCURVE",
"134 247 QCURVE SMOOTH",
"134 283 OFFCURVE",
"157 346 OFFCURVE",
"200 393 OFFCURVE",
"260 420 OFFCURVE",
"297 420 QCURVE SMOOTH",
"334 420 OFFCURVE",
"395 392 OFFCURVE",
"439 345 OFFCURVE",
"464 282 OFFCURVE",
"464 246 QCURVE SMOOTH"
);
}
);
width = 598;
},
{
layerId = "4375AB62-CFBC-411E-9D12-25ECC6BFDF4C";
paths = (
{
closed = 1;
nodes = (
"551 295 OFFCURVE",
"512 387 OFFCURVE",
"443 455 OFFCURVE",
"348 494 OFFCURVE",
"292 494 QCURVE SMOOTH",
"236 494 OFFCURVE",
"142 455 OFFCURVE",
"73 386 OFFCURVE",
"35 293 OFFCURVE",
"35 240 QCURVE SMOOTH",
"35 187 OFFCURVE",
"73 96 OFFCURVE",
"142 28 OFFCURVE",
"235 -10 OFFCURVE",
"291 -10 QCURVE SMOOTH",
"347 -10 OFFCURVE",
"443 29 OFFCURVE",
"512 98 OFFCURVE",
"551 190 OFFCURVE",
"551 242 QCURVE SMOOTH"
);
},
{
closed = 1;
nodes = (
"468 204 OFFCURVE",
"442 138 OFFCURVE",
"395 88 OFFCURVE",
"330 59 OFFCURVE",
"292 59 QCURVE SMOOTH",
"255 59 OFFCURVE",
"191 87 OFFCURVE",
"145 136 OFFCURVE",
"118 203 OFFCURVE",
"118 242 QCURVE SMOOTH",
"118 280 OFFCURVE",
"143 347 OFFCURVE",
"188 396 OFFCURVE",
"252 425 OFFCURVE",
"291 425 QCURVE SMOOTH",
"330 425 OFFCURVE",
"395 396 OFFCURVE",
"442 346 OFFCURVE",
"468 279 OFFCURVE",
"468 241 QCURVE SMOOTH"
);
}
);
width = 586;
}
);
unicode = 006F;
},
{
glyphname = p;
layers = (
{
layerId = "6D82140E-0966-4184-BBA2-B1F9A77F6692";
paths = (
{
closed = 1;
nodes = (
"242 66 LINE",
"268 35 OFFCURVE",
"345 -12 OFFCURVE",
"407 -12 QCURVE SMOOTH",
"455 -12 OFFCURVE",
"542 27 OFFCURVE",
"607 100 OFFCURVE",
"646 205 OFFCURVE",
"646 271 QCURVE SMOOTH",
"646 337 OFFCURVE",
"607 441 OFFCURVE",
"541 514 OFFCURVE",
"454 553 OFFCURVE",
"406 553 QCURVE SMOOTH",
"345 553 OFFCURVE",
"270 503 OFFCURVE",
"242 469 QCURVE",
"52 541 LINE",
"52 -160 LINE",
"242 -160 LINE"
);
},
{
closed = 1;
nodes = (
"459 244 OFFCURVE",
"442 198 OFFCURVE",
"412 165 OFFCURVE",
"371 147 OFFCURVE",
"348 147 QCURVE SMOOTH",
"325 147 OFFCURVE",
"285 165 OFFCURVE",
"256 198 OFFCURVE",
"239 243 OFFCURVE",
"239 270 QCURVE SMOOTH",
"239 298 OFFCURVE",
"256 343 OFFCURVE",
"285 376 OFFCURVE",
"325 394 OFFCURVE",
"348 394 QCURVE SMOOTH",
"371 394 OFFCURVE",
"412 376 OFFCURVE",
"442 343 OFFCURVE",
"459 299 OFFCURVE",
"459 272 QCURVE SMOOTH"
);
}
);
width = 675;
},
{
layerId = "8ED872FE-1BCA-4686-B4C5-0573B67FF490";
paths = (
{
closed = 1;
nodes = (
"165 81 LINE",
"197 38 OFFCURVE",
"287 -10 OFFCURVE",
"347 -10 QCURVE SMOOTH",
"394 -10 OFFCURVE",
"480 26 OFFCURVE",
"546 94 OFFCURVE",
"585 189 OFFCURVE",
"585 247 QCURVE SMOOTH",
"585 306 OFFCURVE",
"547 400 OFFCURVE",
"482 468 OFFCURVE",
"395 504 OFFCURVE",
"347 504 QCURVE SMOOTH",
"287 504 OFFCURVE",
"206 455 OFFCURVE",
"174 417 QCURVE",
"65 492 LINE",
"65 -183 LINE",
"165 -183 LINE"
);
},
{
closed = 1;
nodes = (
"486 208 OFFCURVE",
"461 144 OFFCURVE",
"418 99 OFFCURVE",
"359 74 OFFCURVE",
"326 74 QCURVE SMOOTH",
"293 74 OFFCURVE",
"234 100 OFFCURVE",
"189 146 OFFCURVE",
"162 209 OFFCURVE",
"162 246 QCURVE SMOOTH",
"162 284 OFFCURVE",
"188 346 OFFCURVE",
"232 392 OFFCURVE",
"291 417 OFFCURVE",
"324 417 QCURVE SMOOTH",
"359 417 OFFCURVE",
"418 392 OFFCURVE",
"462 347 OFFCURVE",
"486 285 OFFCURVE",
"486 247 QCURVE SMOOTH"
);
}
);
width = 618;
},
{
layerId = "4375AB62-CFBC-411E-9D12-25ECC6BFDF4C";
paths = (
{
closed = 1;
nodes = (
"150 84 LINE",
"183 39 OFFCURVE",
"275 -10 OFFCURVE",
"335 -10 QCURVE SMOOTH",
"382 -10 OFFCURVE",
"468 26 OFFCURVE",
"534 92 OFFCURVE",
"573 185 OFFCURVE",
"573 242 QCURVE SMOOTH",
"573 299 OFFCURVE",
"535 392 OFFCURVE",
"470 458 OFFCURVE",
"383 494 OFFCURVE",
"335 494 QCURVE SMOOTH",
"275 494 OFFCURVE",
"194 445 OFFCURVE",
"160 406 QCURVE",
"68 482 LINE",
"68 -188 LINE",
"150 -188 LINE"
);
},
{
closed = 1;
nodes = (
"491 201 OFFCURVE",
"465 133 OFFCURVE",
"419 85 OFFCURVE",
"357 59 OFFCURVE",
"322 59 QCURVE SMOOTH",
"287 59 OFFCURVE",
"223 87 OFFCURVE",
"175 136 OFFCURVE",
"146 202 OFFCURVE",
"146 241 QCURVE SMOOTH",
"146 280 OFFCURVE",
"174 347 OFFCURVE",
"221 395 OFFCURVE",
"284 422 OFFCURVE",
"319 422 QCURVE SMOOTH",
"356 422 OFFCURVE",
"419 396 OFFCURVE",
"465 348 OFFCURVE",
"491 282 OFFCURVE",
"491 242 QCURVE SMOOTH"
);
}
);
width = 607;
}
);
unicode = 0070;
},
{
glyphname = q;
layers = (
{
layerId = "6D82140E-0966-4184-BBA2-B1F9A77F6692";
paths = (
{
closed = 1;
nodes = (
"623 -160 LINE",
"623 541 LINE",
"433 475 LINE",
"406 506 OFFCURVE",
"329 553 OFFCURVE",
"268 553 QCURVE SMOOTH",
"220 553 OFFCURVE",
"133 514 OFFCURVE",
"68 441 OFFCURVE",
"29 336 OFFCURVE",
"29 270 QCURVE SMOOTH",
"29 205 OFFCURVE",
"68 101 OFFCURVE",
"134 27 OFFCURVE",
"221 -12 OFFCURVE",
"269 -12 QCURVE SMOOTH",
"329 -12 OFFCURVE",
"405 38 OFFCURVE",
"433 72 QCURVE",
"433 -160 LINE"
);
},
{
closed = 1;
nodes = (
"216 299 OFFCURVE",
"234 344 OFFCURVE",
"264 376 OFFCURVE",
"304 394 OFFCURVE",
"326 394 QCURVE SMOOTH",
"349 394 OFFCURVE",
"389 376 OFFCURVE",
"419 343 OFFCURVE",
"436 299 OFFCURVE",
"436 272 QCURVE SMOOTH",
"436 245 OFFCURVE",
"419 199 OFFCURVE",
"389 166 OFFCURVE",
"349 147 OFFCURVE",
"326 147 QCURVE SMOOTH",
"304 147 OFFCURVE",
"264 166 OFFCURVE",
"234 199 OFFCURVE",
"216 245 OFFCURVE",
"216 272 QCURVE SMOOTH"
);
}
);
width = 675;
},
{
layerId = "8ED872FE-1BCA-4686-B4C5-0573B67FF490";
paths = (
{
closed = 1;
nodes = (
"552 -183 LINE",
"552 492 LINE",
"444 421 LINE",
"412 457 OFFCURVE",
"333 504 OFFCURVE",
"273 504 QCURVE SMOOTH",
"224 504 OFFCURVE",
"137 468 OFFCURVE",
"72 400 OFFCURVE",
"34 305 OFFCURVE",
"34 246 QCURVE SMOOTH",
"34 189 OFFCURVE",
"72 94 OFFCURVE",
"136 27 OFFCURVE",
"224 -11 OFFCURVE",
"273 -11 QCURVE SMOOTH",
"332 -11 OFFCURVE",
"420 42 OFFCURVE",
"452 85 QCURVE",
"452 -183 LINE"
);
},
{
closed = 1;
nodes = (
"134 286 OFFCURVE",
"158 349 OFFCURVE",
"201 394 OFFCURVE",
"260 419 OFFCURVE",
"294 419 QCURVE SMOOTH",
"327 419 OFFCURVE",
"386 393 OFFCURVE",
"431 347 OFFCURVE",
"457 284 OFFCURVE",
"457 247 QCURVE SMOOTH",
"457 210 OFFCURVE",
"431 147 OFFCURVE",
"386 100 OFFCURVE",
"327 74 OFFCURVE",
"294 74 QCURVE SMOOTH",
"260 74 OFFCURVE",
"202 100 OFFCURVE",
"159 147 OFFCURVE",
"134 211 OFFCURVE",
"134 248 QCURVE SMOOTH"
);
}
);
width = 618;
},
{
layerId = "4375AB62-CFBC-411E-9D12-25ECC6BFDF4C";
paths = (
{
closed = 1;
nodes = (
"538 -188 LINE",
"538 482 LINE",
"446 410 LINE",
"413 447 OFFCURVE",
"334 494 OFFCURVE",
"274 494 QCURVE SMOOTH",
"225 494 OFFCURVE",
"137 458 OFFCURVE",
"73 392 OFFCURVE",
"35 298 OFFCURVE",
"35 241 QCURVE SMOOTH",
"35 186 OFFCURVE",
"72 93 OFFCURVE",
"137 26 OFFCURVE",
"224 -11 OFFCURVE",
"274 -11 QCURVE SMOOTH",
"333 -11 OFFCURVE",
"422 42 OFFCURVE",
"456 87 QCURVE",
"456 -188 LINE"
);
},
{
closed = 1;
nodes = (
"118 284 OFFCURVE",
"144 350 OFFCURVE",
"189 398 OFFCURVE",
"251 424 OFFCURVE",
"287 424 QCURVE SMOOTH",
"323 424 OFFCURVE",
"386 397 OFFCURVE",
"433 348 OFFCURVE",
"461 281 OFFCURVE",
"461 242 QCURVE SMOOTH",
"461 203 OFFCURVE",
"433 136 OFFCURVE",
"385 87 OFFCURVE",
"322 59 OFFCURVE",
"287 59 QCURVE SMOOTH",
"251 59 OFFCURVE",
"189 87 OFFCURVE",
"144 136 OFFCURVE",
"118 204 OFFCURVE",
"118 243 QCURVE SMOOTH"
);
}
);
width = 606;
}
);
unicode = 0071;
},
{
glyphname = r;
layers = (
{
layerId = "6D82140E-0966-4184-BBA2-B1F9A77F6692";
paths = (
{
closed = 1;
nodes = (
"412 550 LINE",
"410 550 OFFCURVE",
"405 550 OFFCURVE",
"403 550 QCURVE",
"339 550 OFFCURVE",
"264 486 OFFCURVE",
"241 432 QCURVE",
"51 541 LINE",
"51 0 LINE",
"241 0 LINE",
"241 168 LINE SMOOTH",
"241 215 OFFCURVE",
"262 283 OFFCURVE",
"301 328 OFFCURVE",
"359 350 OFFCURVE",
"396 350 QCURVE SMOOTH",
"401 350 OFFCURVE",
"410 350 OFFCURVE",
"412 350 QCURVE"
);
}
);
width = 417;
},
{
layerId = "8ED872FE-1BCA-4686-B4C5-0573B67FF490";
paths = (
{
closed = 1;
nodes = (
"353 497 LINE",
"345 499 OFFCURVE",
"327 501 OFFCURVE",
"316 501 QCURVE SMOOTH",
"273 501 OFFCURVE",
"193 464 OFFCURVE",
"166 429 QCURVE",
"64 492 LINE",
"64 0 LINE",
"164 0 LINE",
"164 254 LINE SMOOTH",
"164 295 OFFCURVE",
"191 354 OFFCURVE",
"234 391 OFFCURVE",
"288 408 OFFCURVE",
"314 408 QCURVE SMOOTH",
"325 408 OFFCURVE",
"345 405 OFFCURVE",
"353 400 QCURVE"
);
}
);
width = 355;
},
{
layerId = "4375AB62-CFBC-411E-9D12-25ECC6BFDF4C";
paths = (
{
closed = 1;
nodes = (
"341 486 LINE",
"331 488 OFFCURVE",
"311 491 OFFCURVE",
"299 491 QCURVE SMOOTH",
"260 491 OFFCURVE",
"179 459 OFFCURVE",
"151 428 QCURVE",
"67 482 LINE",
"67 0 LINE",
"149 0 LINE",
"149 271 LINE SMOOTH",
"149 311 OFFCURVE",
"177 367 OFFCURVE",
"221 403 OFFCURVE",
"273 419 OFFCURVE",
"297 419 QCURVE SMOOTH",
"310 419 OFFCURVE",
"331 415 OFFCURVE",
"341 410 QCURVE"
);
}
);
width = 343;
}
);
unicode = 0072;
},
{
glyphname = s;
layers = (
{
layerId = "6D82140E-0966-4184-BBA2-B1F9A77F6692";
paths = (
{
closed = 1;
nodes = (
"215 121 OFFCURVE",
"164 132 OFFCURVE",
"110 151 OFFCURVE",
"56 178 OFFCURVE",
"33 193 QCURVE",
"33 38 LINE",
"90 15 OFFCURVE",
"191 -12 OFFCURVE",
"248 -12 QCURVE SMOOTH",
"298 -12 OFFCURVE",
"379 12 OFFCURVE",
"437 57 OFFCURVE",
"469 122 OFFCURVE",
"469 164 QCURVE SMOOTH",
"469 211 OFFCURVE",
"428 271 OFFCURVE",
"366 310 OFFCURVE",
"293 333 OFFCURVE",
"231 352 OFFCURVE",
"190 374 OFFCURVE",
"190 391 QCURVE SMOOTH",
"190 404 OFFCURVE",
"212 419 OFFCURVE",
"234 419 QCURVE SMOOTH",
"251 419 OFFCURVE",
"299 409 OFFCURVE",
"351 393 OFFCURVE",
"402 372 OFFCURVE",
"423 360 QCURVE",
"423 513 LINE",
"377 531 OFFCURVE",
"295 552 OFFCURVE",
"236 552 QCURVE SMOOTH",
"189 552 OFFCURVE",
"109 528 OFFCURVE",
"51 482 OFFCURVE",
"18 416 OFFCURVE",
"18 373 QCURVE SMOOTH",
"18 325 OFFCURVE",
"59 263 OFFCURVE",
"121 224 OFFCURVE",
"194 202 OFFCURVE",
"256 185 OFFCURVE",
"297 167 OFFCURVE",
"297 152 QCURVE SMOOTH",
"297 136 OFFCURVE",
"259 121 OFFCURVE",
"236 121 QCURVE SMOOTH"
);
}
);
width = 500;
},
{
layerId = "8ED872FE-1BCA-4686-B4C5-0573B67FF490";
paths = (
{
closed = 1;
nodes = (
"167 69 OFFCURVE",
"121 81 OFFCURVE",
"78 102 OFFCURVE",
"38 129 OFFCURVE",
"21 144 QCURVE",
"21 45 LINE",
"55 24 OFFCURVE",
"137 -10 OFFCURVE",
"194 -10 QCURVE SMOOTH",
"235 -10 OFFCURVE",
"299 13 OFFCURVE",
"345 53 OFFCURVE",
"369 107 OFFCURVE",
"369 138 QCURVE SMOOTH",
"369 178 OFFCURVE",
"333 233 OFFCURVE",
"278 272 OFFCURVE",
"215 299 OFFCURVE",
"160 326 OFFCURVE",
"124 355 OFFCURVE",
"124 376 QCURVE SMOOTH",
"124 395 OFFCURVE",
"159 424 OFFCURVE",
"192 424 QCURVE SMOOTH",
"211 424 OFFCURVE",
"247 414 OFFCURVE",
"283 398 OFFCURVE",
"316 375 OFFCURVE",
"332 363 QCURVE",
"332 463 LINE",
"301 484 OFFCURVE",
"229 503 OFFCURVE",
"191 503 QCURVE SMOOTH",
"154 503 OFFCURVE",
"94 485 OFFCURVE",
"52 452 OFFCURVE",
"30 405 OFFCURVE",
"30 376 QCURVE SMOOTH",
"30 337 OFFCURVE",
"66 286 OFFCURVE",
"121 250 OFFCURVE",
"184 224 OFFCURVE",
"239 197 OFFCURVE",
"275 162 OFFCURVE",
"275 135 QCURVE SMOOTH",
"275 100 OFFCURVE",
"224 69 OFFCURVE",
"190 69 QCURVE SMOOTH"
);
}
);
width = 400;
},
{
layerId = "4375AB62-CFBC-411E-9D12-25ECC6BFDF4C";
paths = (
{
closed = 1;
nodes = (
"157 58 OFFCURVE",
"113 71 OFFCURVE",
"72 92 OFFCURVE",
"35 119 OFFCURVE",
"19 134 QCURVE",
"19 46 LINE",
"48 26 OFFCURVE",
"126 -10 OFFCURVE",
"183 -10 QCURVE SMOOTH",
"222 -10 OFFCURVE",
"283 13 OFFCURVE",
"326 52 OFFCURVE",
"349 104 OFFCURVE",
"349 133 QCURVE SMOOTH",
"349 172 OFFCURVE",
"314 225 OFFCURVE",
"261 264 OFFCURVE",
"199 293 OFFCURVE",
"146 320 OFFCURVE",
"111 351 OFFCURVE",
"111 373 QCURVE SMOOTH",
"111 393 OFFCURVE",
"148 425 OFFCURVE",
"184 425 QCURVE SMOOTH",
"203 425 OFFCURVE",
"237 415 OFFCURVE",
"269 398 OFFCURVE",
"299 376 OFFCURVE",
"314 363 QCURVE",
"314 453 LINE",
"286 475 OFFCURVE",
"216 493 OFFCURVE",
"182 493 QCURVE SMOOTH",
"147 493 OFFCURVE",
"91 476 OFFCURVE",
"52 446 OFFCURVE",
"32 403 OFFCURVE",
"32 376 QCURVE SMOOTH",
"32 339 OFFCURVE",
"67 290 OFFCURVE",
"120 255 OFFCURVE",
"182 229 OFFCURVE",
"235 199 OFFCURVE",
"270 160 OFFCURVE",
"270 131 QCURVE SMOOTH",
"270 93 OFFCURVE",
"217 58 OFFCURVE",
"181 58 QCURVE SMOOTH"
);
}
);
width = 380;
}
);
unicode = 0073;
},
{
glyphname = t;
layers = (
{
layerId = "6D82140E-0966-4184-BBA2-B1F9A77F6692";
paths = (
{
closed = 1;
nodes = (
"114 168 LINE SMOOTH",
"114 119 OFFCURVE",
"139 50 OFFCURVE",
"164 30 QCURVE SMOOTH",
"189 10 OFFCURVE",
"254 -11 OFFCURVE",
"296 -11 QCURVE SMOOTH",
"336 -11 OFFCURVE",
"402 6 OFFCURVE",
"428 20 QCURVE",
"428 169 LINE",
"409 161 OFFCURVE",
"375 151 OFFCURVE",
"356 151 QCURVE SMOOTH",
"330 151 OFFCURVE",
"304 176 OFFCURVE",
"304 205 QCURVE SMOOTH",
"304 388 LINE",
"430 388 LINE",
"430 541 LINE",
"304 541 LINE",
"304 708 LINE",
"10 388 LINE",
"114 388 LINE"
);
}
);
width = 441;
},
{
layerId = "8ED872FE-1BCA-4686-B4C5-0573B67FF490";
paths = (
{
closed = 1;
nodes = (
"113 128 LINE SMOOTH",
"113 101 OFFCURVE",
"125 58 OFFCURVE",
"137 41 QCURVE SMOOTH",
"153 16 OFFCURVE",
"205 -11 OFFCURVE",
"239 -11 QCURVE SMOOTH",
"257 -11 OFFCURVE",
"287 -5 OFFCURVE",
"301 3 QCURVE",
"301 85 LINE",
"289 79 OFFCURVE",
"267 74 OFFCURVE",
"257 74 QCURVE SMOOTH",
"232 74 OFFCURVE",
"212 106 OFFCURVE",
"212 128 QCURVE SMOOTH",
"212 408 LINE",
"339 408 LINE",
"339 492 LINE",
"212 492 LINE",
"212 659 LINE",
"14 408 LINE",
"113 408 LINE"
);
}
);
width = 353;
},
{
layerId = "4375AB62-CFBC-411E-9D12-25ECC6BFDF4C";
paths = (
{
closed = 1;
nodes = (
"113 120 LINE SMOOTH",
"113 97 OFFCURVE",
"122 59 OFFCURVE",
"131 43 QCURVE SMOOTH",
"145 17 OFFCURVE",
"195 -11 OFFCURVE",
"227 -11 QCURVE SMOOTH",
"241 -11 OFFCURVE",
"265 -6 OFFCURVE",
"276 -1 QCURVE",
"276 68 LINE",
"265 63 OFFCURVE",
"245 59 OFFCURVE",
"237 59 QCURVE SMOOTH",
"213 59 OFFCURVE",
"193 92 OFFCURVE",
"193 112 QCURVE SMOOTH",
"193 412 LINE",
"321 412 LINE",
"321 482 LINE",
"193 482 LINE",
"193 649 LINE",
"15 412 LINE",
"113 412 LINE"
);
}
);
width = 335;
}
);
unicode = 0074;
},
{
glyphname = u;
layers = (
{
layerId = "6D82140E-0966-4184-BBA2-B1F9A77F6692";
paths = (
{
closed = 1;
nodes = (
"290 -12 OFFCURVE",
"371 31 OFFCURVE",
"394 62 QCURVE",
"584 -12 LINE",
"584 541 LINE",
"394 541 LINE",
"394 248 LINE SMOOTH",
"394 226 OFFCURVE",
"382 192 OFFCURVE",
"361 169 OFFCURVE",
"332 157 OFFCURVE",
"315 157 QCURVE SMOOTH",
"298 157 OFFCURVE",
"269 169 OFFCURVE",
"249 192 OFFCURVE",
"238 226 OFFCURVE",
"238 248 QCURVE SMOOTH",
"238 541 LINE",
"48 541 LINE",
"48 187 LINE SMOOTH",
"48 93 OFFCURVE",
"144 -12 OFFCURVE",
"232 -12 QCURVE SMOOTH"
);
}
);
width = 631;
},
{
layerId = "8ED872FE-1BCA-4686-B4C5-0573B67FF490";
paths = (
{
closed = 1;
nodes = (
"289 -10 OFFCURVE",
"365 30 OFFCURVE",
"392 62 QCURVE",
"493 -2 LINE",
"493 493 LINE",
"393 493 LINE",
"393 211 LINE SMOOTH",
"393 173 OFFCURVE",
"370 122 OFFCURVE",
"334 91 OFFCURVE",
"291 78 OFFCURVE",
"270 78 QCURVE SMOOTH",
"249 78 OFFCURVE",
"210 91 OFFCURVE",
"178 123 OFFCURVE",
"159 174 OFFCURVE",
"159 211 QCURVE SMOOTH",
"159 493 LINE",
"59 493 LINE",
"59 181 LINE SMOOTH",
"59 86 OFFCURVE",
"153 -10 OFFCURVE",
"235 -10 QCURVE SMOOTH"
);
}
);
width = 551;
},
{
layerId = "4375AB62-CFBC-411E-9D12-25ECC6BFDF4C";
paths = (
{
closed = 1;
nodes = (
"289 -10 OFFCURVE",
"364 30 OFFCURVE",
"391 62 QCURVE",
"475 0 LINE",
"475 483 LINE",
"393 483 LINE",
"393 203 LINE SMOOTH",
"393 162 OFFCURVE",
"368 107 OFFCURVE",
"329 75 OFFCURVE",
"282 62 OFFCURVE",
"261 62 QCURVE SMOOTH",
"240 62 OFFCURVE",
"197 76 OFFCURVE",
"164 108 OFFCURVE",
"143 163 OFFCURVE",
"143 203 QCURVE SMOOTH",
"143 483 LINE",
"61 483 LINE",
"61 180 LINE SMOOTH",
"61 84 OFFCURVE",
"154 -10 OFFCURVE",
"235 -10 QCURVE SMOOTH"
);
}
);
width = 535;
}
);
unicode = 0075;
},
{
glyphname = v;
layers = (
{
layerId = "6D82140E-0966-4184-BBA2-B1F9A77F6692";
paths = (
{
closed = 1;
nodes = (
"599 541 LINE",
"402 541 LINE",
"298 225 LINE",
"194 541 LINE",
"-6 541 LINE",
"210 -4 LINE",
"383 -4 LINE"
);
}
);
width = 595;
},
{
layerId = "8ED872FE-1BCA-4686-B4C5-0573B67FF490";
paths = (
{
closed = 1;
nodes = (
"501 491 LINE",
"396 491 LINE",
"250 113 LINE",
"104 491 LINE",
"-4 491 LINE",
"200 -1 LINE",
"296 -1 LINE"
);
}
);
width = 497;
},
{
layerId = "4375AB62-CFBC-411E-9D12-25ECC6BFDF4C";
paths = (
{
closed = 1;
nodes = (
"481 481 LINE",
"395 481 LINE",
"240 91 LINE",
"86 481 LINE",
"-4 481 LINE",
"198 0 LINE",
"279 0 LINE"
);
}
);
width = 477;
}
);
unicode = 0076;
},
{
glyphname = w;
layers = (
{
layerId = "6D82140E-0966-4184-BBA2-B1F9A77F6692";
paths = (
{
closed = 1;
nodes = (
"-11 541 LINE",
"154 -4 LINE",
"317 -4 LINE",
"407 277 LINE",
"495 -4 LINE",
"659 -4 LINE",
"826 541 LINE",
"643 541 LINE",
"570 267 LINE",
"486 543 LINE",
"329 543 LINE",
"246 269 LINE",
"175 541 LINE"
);
}
);
width = 815;
},
{
layerId = "8ED872FE-1BCA-4686-B4C5-0573B67FF490";
paths = (
{
closed = 1;
nodes = (
"-1 492 LINE",
"164 -1 LINE",
"256 -1 LINE",
"372 375 LINE",
"489 -1 LINE",
"584 -1 LINE",
"749 492 LINE",
"646 492 LINE",
"534 128 LINE",
"423 493 LINE",
"327 493 LINE",
"215 127 LINE",
"101 492 LINE"
);
}
);
width = 748;
},
{
layerId = "4375AB62-CFBC-411E-9D12-25ECC6BFDF4C";
paths = (
{
closed = 1;
nodes = (
"1 482 LINE",
"166 0 LINE",
"244 0 LINE",
"365 395 LINE",
"488 0 LINE",
"569 0 LINE",
"733 482 LINE",
"647 482 LINE",
"527 100 LINE",
"410 483 LINE",
"327 483 LINE",
"209 99 LINE",
"86 482 LINE"
);
}
);
width = 734;
}
);
unicode = 0077;
},
{
glyphname = x;
layers = (
{
layerId = "6D82140E-0966-4184-BBA2-B1F9A77F6692";
paths = (
{
closed = 1;
nodes = (
"1 0 LINE",
"201 0 LINE",
"286 139 LINE",
"370 0 LINE",
"574 0 LINE",
"392 274 LINE",
"570 541 LINE",
"369 541 LINE",
"289 408 LINE",
"209 541 LINE",
"4 541 LINE",
"183 273 LINE"
);
}
);
width = 576;
},
{
layerId = "8ED872FE-1BCA-4686-B4C5-0573B67FF490";
paths = (
{
closed = 1;
nodes = (
"6 0 LINE",
"116 0 LINE",
"252 183 LINE",
"388 0 LINE",
"500 0 LINE",
"310 255 LINE",
"488 491 LINE",
"379 491 LINE",
"254 324 LINE",
"130 491 LINE",
"17 491 LINE",
"198 253 LINE"
);
}
);
width = 506;
},
{
layerId = "4375AB62-CFBC-411E-9D12-25ECC6BFDF4C";
paths = (
{
closed = 1;
nodes = (
"7 0 LINE",
"99 0 LINE",
"245 192 LINE",
"392 0 LINE",
"485 0 LINE",
"293 251 LINE",
"471 481 LINE",
"381 481 LINE",
"247 307 LINE",
"114 481 LINE",
"20 481 LINE",
"201 249 LINE"
);
}
);
width = 492;
}
);
unicode = 0078;
},
{
glyphname = y;
layers = (
{
layerId = "6D82140E-0966-4184-BBA2-B1F9A77F6692";
paths = (
{
closed = 1;
nodes = (
"222 -6 LINE",
"173 -160 LINE",
"334 -160 LINE",
"598 541 LINE",
"403 541 LINE",
"301 195 LINE",
"193 541 LINE",
"-6 541 LINE"
);
}
);
width = 593;
},
{
layerId = "8ED872FE-1BCA-4686-B4C5-0573B67FF490";
paths = (
{
closed = 1;
nodes = (
"215 -1 LINE",
"145 -183 LINE",
"237 -183 LINE",
"504 491 LINE",
"400 491 LINE",
"259 114 LINE",
"103 491 LINE",
"-4 491 LINE"
);
}
);
width = 500;
},
{
layerId = "4375AB62-CFBC-411E-9D12-25ECC6BFDF4C";
paths = (
{
closed = 1;
nodes = (
"214 0 LINE",
"139 -188 LINE",
"217 -188 LINE",
"485 481 LINE",
"399 481 LINE",
"250 98 LINE",
"85 481 LINE",
"-4 481 LINE"
);
}
);
width = 481;
}
);
unicode = 0079;
},
{
glyphname = z;
layers = (
{
layerId = "6D82140E-0966-4184-BBA2-B1F9A77F6692";
paths = (
{
closed = 1;
nodes = (
"517 416 LINE",
"517 541 LINE",
"24 541 LINE",
"24 390 LINE",
"265 390 LINE",
"15 125 LINE",
"15 0 LINE",
"517 0 LINE",
"517 151 LINE",
"266 151 LINE"
);
}
);
width = 536;
},
{
layerId = "8ED872FE-1BCA-4686-B4C5-0573B67FF490";
paths = (
{
closed = 1;
nodes = (
"485 414 LINE",
"485 492 LINE",
"32 492 LINE",
"32 410 LINE",
"362 410 LINE",
"13 78 LINE",
"13 0 LINE",
"480 0 LINE",
"480 84 LINE",
"136 84 LINE"
);
}
);
width = 509;
},
{
layerId = "4375AB62-CFBC-411E-9D12-25ECC6BFDF4C";
paths = (
{
closed = 1;
nodes = (
"479 414 LINE",
"479 482 LINE",
"33 482 LINE",
"33 414 LINE",
"381 414 LINE",
"12 69 LINE",
"12 0 LINE",
"473 0 LINE",
"473 70 LINE",
"110 70 LINE"
);
}
);
width = 504;
}
);
unicode = 007A;
},
{
glyphname = braceleft;
layers = (
{
layerId = "6D82140E-0966-4184-BBA2-B1F9A77F6692";
paths = (
{
closed = 1;
nodes = (
"35 224 LINE",
"62 224 OFFCURVE",
"112 219 OFFCURVE",
"150 199 OFFCURVE",
"171 160 OFFCURVE",
"169 126 QCURVE SMOOTH",
"166 48 OFFCURVE",
"189 -47 OFFCURVE",
"250 -103 OFFCURVE",
"353 -131 OFFCURVE",
"430 -141 QCURVE",
"430 -24 LINE",
"387 -17 OFFCURVE",
"347 16 OFFCURVE",
"333 62 OFFCURVE",
"337 120 OFFCURVE",
"338 153 QCURVE SMOOTH",
"339 182 OFFCURVE",
"323 225 OFFCURVE",
"293 258 OFFCURVE",
"251 280 OFFCURVE",
"226 287 QCURVE",
"276 301 OFFCURVE",
"322 342 OFFCURVE",
"338 396 OFFCURVE",
"335 461 OFFCURVE",
"335 500 QCURVE SMOOTH",
"335 525 OFFCURVE",
"348 559 OFFCURVE",
"372 581 OFFCURVE",
"408 594 OFFCURVE",
"430 598 QCURVE",
"430 715 LINE",
"388 709 OFFCURVE",
"295 691 OFFCURVE",
"217 653 OFFCURVE",
"166 587 OFFCURVE",
"166 533 QCURVE SMOOTH",
"166 489 OFFCURVE",
"171 421 OFFCURVE",
"153 374 OFFCURVE",
"97 350 OFFCURVE",
"35 350 QCURVE"
);
}
);
width = 464;
},
{
layerId = "8ED872FE-1BCA-4686-B4C5-0573B67FF490";
paths = (
{
closed = 1;
nodes = (
"41 247 LINE",
"88 247 OFFCURVE",
"135 216 OFFCURVE",
"153 165 OFFCURVE",
"152 99 OFFCURVE",
"152 64 QCURVE SMOOTH",
"152 1 OFFCURVE",
"171 -79 OFFCURVE",
"219 -127 OFFCURVE",
"301 -149 OFFCURVE",
"364 -153 QCURVE",
"374 -85 LINE",
"343 -79 OFFCURVE",
"296 -62 OFFCURVE",
"266 -33 OFFCURVE",
"251 11 OFFCURVE",
"251 45 QCURVE SMOOTH",
"251 85 OFFCURVE",
"252 157 OFFCURVE",
"236 219 OFFCURVE",
"195 270 OFFCURVE",
"154 289 QCURVE",
"199 309 OFFCURVE",
"241 363 OFFCURVE",
"254 428 OFFCURVE",
"250 504 OFFCURVE",
"250 546 QCURVE SMOOTH",
"250 578 OFFCURVE",
"268 618 OFFCURVE",
"301 643 OFFCURVE",
"346 656 OFFCURVE",
"374 662 QCURVE",
"364 730 LINE",
"285 726 OFFCURVE",
"199 686 OFFCURVE",
"160 616 OFFCURVE",
"154 514 OFFCURVE",
"154 448 QCURVE SMOOTH",
"154 417 OFFCURVE",
"143 372 OFFCURVE",
"117 343 OFFCURVE",
"74 329 OFFCURVE",
"41 329 QCURVE"
);
}
);
width = 415;
},
{
layerId = "4375AB62-CFBC-411E-9D12-25ECC6BFDF4C";
paths = (
{
closed = 1;
nodes = (
"42 252 LINE",
"93 252 OFFCURVE",
"139 216 OFFCURVE",
"154 158 OFFCURVE",
"149 86 OFFCURVE",
"149 51 QCURVE SMOOTH",
"149 -8 OFFCURVE",
"167 -85 OFFCURVE",
"213 -131 OFFCURVE",
"291 -152 OFFCURVE",
"351 -155 QCURVE",
"363 -97 LINE",
"334 -91 OFFCURVE",
"286 -77 OFFCURVE",
"252 -52 OFFCURVE",
"233 -11 OFFCURVE",
"233 23 QCURVE SMOOTH",
"233 66 OFFCURVE",
"237 144 OFFCURVE",
"224 212 OFFCURVE",
"184 268 OFFCURVE",
"139 289 QCURVE",
"184 310 OFFCURVE",
"224 366 OFFCURVE",
"237 434 OFFCURVE",
"233 512 OFFCURVE",
"233 555 QCURVE SMOOTH",
"233 589 OFFCURVE",
"252 630 OFFCURVE",
"286 655 OFFCURVE",
"334 669 OFFCURVE",
"363 675 QCURVE",
"351 733 LINE",
"264 729 OFFCURVE",
"180 685 OFFCURVE",
"148 609 OFFCURVE",
"151 500 OFFCURVE",
"151 431 QCURVE SMOOTH",
"151 403 OFFCURVE",
"137 363 OFFCURVE",
"110 337 OFFCURVE",
"69 325 OFFCURVE",
"42 325 QCURVE"
);
}
);
width = 405;
}
);
unicode = 007B;
},
{
glyphname = bar;
layers = (
{
layerId = "6D82140E-0966-4184-BBA2-B1F9A77F6692";
paths = (
{
closed = 1;
nodes = (
"270 798 LINE",
"270 -128 LINE",
"415 -128 LINE",
"415 798 LINE"
);
}
);
width = 685;
},
{
layerId = "8ED872FE-1BCA-4686-B4C5-0573B67FF490";
paths = (
{
closed = 1;
nodes = (
"253 772 LINE",
"253 -161 LINE",
"338 -161 LINE",
"338 772 LINE"
);
}
);
width = 589;
},
{
layerId = "4375AB62-CFBC-411E-9D12-25ECC6BFDF4C";
paths = (
{
closed = 1;
nodes = (
"249 767 LINE",
"249 -168 LINE",
"322 -168 LINE",
"322 767 LINE"
);
}
);
width = 570;
}
);
unicode = 007C;
},
{
glyphname = braceright;
layers = (
{
layerId = "6D82140E-0966-4184-BBA2-B1F9A77F6692";
paths = (
{
closed = 1;
nodes = (
"430 350 LINE",
"369 350 OFFCURVE",
"313 375 OFFCURVE",
"294 421 OFFCURVE",
"299 490 OFFCURVE",
"299 533 QCURVE SMOOTH",
"299 587 OFFCURVE",
"248 653 OFFCURVE",
"170 691 OFFCURVE",
"77 709 OFFCURVE",
"35 715 QCURVE",
"35 598 LINE",
"79 591 OFFCURVE",
"119 559 OFFCURVE",
"132 512 OFFCURVE",
"128 454 OFFCURVE",
"127 421 QCURVE SMOOTH",
"126 393 OFFCURVE",
"141 349 OFFCURVE",
"171 316 OFFCURVE",
"214 294 OFFCURVE",
"239 287 QCURVE",
"214 280 OFFCURVE",
"172 257 OFFCURVE",
"142 224 OFFCURVE",
"126 181 OFFCURVE",
"127 153 QCURVE SMOOTH",
"129 120 OFFCURVE",
"132 62 OFFCURVE",
"118 15 OFFCURVE",
"77 -17 OFFCURVE",
"35 -24 QCURVE",
"35 -141 LINE",
"81 -135 OFFCURVE",
"175 -116 OFFCURVE",
"251 -75 OFFCURVE",
"299 -5 OFFCURVE",
"299 52 QCURVE SMOOTH",
"299 95 OFFCURVE",
"296 159 OFFCURVE",
"315 202 OFFCURVE",
"371 224 OFFCURVE",
"430 224 QCURVE"
);
}
);
width = 464;
},
{
layerId = "8ED872FE-1BCA-4686-B4C5-0573B67FF490";
paths = (
{
closed = 1;
nodes = (
"374 329 LINE",
"322 328 OFFCURVE",
"275 363 OFFCURVE",
"259 420 OFFCURVE",
"263 492 OFFCURVE",
"263 528 QCURVE SMOOTH",
"263 587 OFFCURVE",
"240 662 OFFCURVE",
"189 707 OFFCURVE",
"108 727 OFFCURVE",
"51 730 QCURVE",
"41 662 LINE",
"72 656 OFFCURVE",
"119 639 OFFCURVE",
"150 611 OFFCURVE",
"165 566 OFFCURVE",
"165 533 QCURVE SMOOTH",
"165 493 OFFCURVE",
"164 420 OFFCURVE",
"179 358 OFFCURVE",
"220 308 OFFCURVE",
"262 289 QCURVE",
"220 270 OFFCURVE",
"179 219 OFFCURVE",
"164 157 OFFCURVE",
"165 85 OFFCURVE",
"165 45 QCURVE SMOOTH",
"165 11 OFFCURVE",
"150 -33 OFFCURVE",
"119 -62 OFFCURVE",
"72 -79 OFFCURVE",
"41 -85 QCURVE",
"51 -153 LINE",
"131 -149 OFFCURVE",
"217 -111 OFFCURVE",
"256 -42 OFFCURVE",
"262 61 OFFCURVE",
"262 131 QCURVE SMOOTH",
"262 162 OFFCURVE",
"273 206 OFFCURVE",
"299 234 OFFCURVE",
"342 247 OFFCURVE",
"374 247 QCURVE"
);
}
);
width = 415;
},
{
layerId = "4375AB62-CFBC-411E-9D12-25ECC6BFDF4C";
paths = (
{
closed = 1;
nodes = (
"363 325 LINE",
"313 324 OFFCURVE",
"267 361 OFFCURVE",
"252 420 OFFCURVE",
"256 493 OFFCURVE",
"256 527 QCURVE SMOOTH",
"256 586 OFFCURVE",
"238 663 OFFCURVE",
"192 709 OFFCURVE",
"114 730 OFFCURVE",
"54 733 QCURVE",
"42 675 LINE",
"71 669 OFFCURVE",
"119 655 OFFCURVE",
"153 630 OFFCURVE",
"172 589 OFFCURVE",
"172 555 QCURVE SMOOTH",
"172 512 OFFCURVE",
"168 434 OFFCURVE",
"181 366 OFFCURVE",
"221 310 OFFCURVE",
"266 289 QCURVE",
"221 268 OFFCURVE",
"181 212 OFFCURVE",
"168 144 OFFCURVE",
"172 66 OFFCURVE",
"172 23 QCURVE SMOOTH",
"172 -11 OFFCURVE",
"153 -52 OFFCURVE",
"119 -77 OFFCURVE",
"71 -91 OFFCURVE",
"42 -97 QCURVE",
"54 -155 LINE",
"141 -151 OFFCURVE",
"225 -110 OFFCURVE",
"257 -35 OFFCURVE",
"254 75 OFFCURVE",
"254 147 QCURVE SMOOTH",
"254 175 OFFCURVE",
"268 215 OFFCURVE",
"295 240 OFFCURVE",
"336 252 OFFCURVE",
"363 252 QCURVE"
);
}
);
width = 405;
}
);
unicode = 007D;
},
{
glyphname = asciitilde;
layers = (
{
layerId = "6D82140E-0966-4184-BBA2-B1F9A77F6692";
paths = (
{
closed = 1;
nodes = (
"368 401 LINE",
"358 378 OFFCURVE",
"337 355 OFFCURVE",
"317 355 QCURVE SMOOTH",
"301 355 OFFCURVE",
"267 367 OFFCURVE",
"228 382 OFFCURVE",
"185 394 OFFCURVE",
"161 394 QCURVE SMOOTH",
"115 394 OFFCURVE",
"58 335 OFFCURVE",
"41 260 QCURVE",
"129 220 LINE",
"139 243 OFFCURVE",
"159 266 OFFCURVE",
"179 266 QCURVE SMOOTH",
"195 266 OFFCURVE",
"231 254 OFFCURVE",
"271 239 OFFCURVE",
"314 227 OFFCURVE",
"336 227 QCURVE SMOOTH",
"376 227 OFFCURVE",
"439 283 OFFCURVE",
"455 357 QCURVE"
);
}
);
width = 497;
},
{
layerId = "8ED872FE-1BCA-4686-B4C5-0573B67FF490";
paths = (
{
closed = 1;
nodes = (
"411 374 LINE",
"398 347 OFFCURVE",
"361 317 OFFCURVE",
"338 317 QCURVE SMOOTH",
"319 317 OFFCURVE",
"283 333 OFFCURVE",
"244 353 OFFCURVE",
"200 369 OFFCURVE",
"174 369 QCURVE SMOOTH",
"129 369 OFFCURVE",
"72 312 OFFCURVE",
"51 254 QCURVE",
"107 228 LINE",
"121 256 OFFCURVE",
"153 286 OFFCURVE",
"178 286 QCURVE SMOOTH",
"198 286 OFFCURVE",
"240 270 OFFCURVE",
"282 250 OFFCURVE",
"326 234 OFFCURVE",
"349 234 QCURVE SMOOTH",
"390 234 OFFCURVE",
"448 294 OFFCURVE",
"467 349 QCURVE"
);
}
);
width = 519;
},
{
layerId = "4375AB62-CFBC-411E-9D12-25ECC6BFDF4C";
paths = (
{
closed = 1;
nodes = (
"419 369 LINE",
"406 341 OFFCURVE",
"366 309 OFFCURVE",
"342 309 QCURVE SMOOTH",
"323 309 OFFCURVE",
"286 326 OFFCURVE",
"247 347 OFFCURVE",
"203 364 OFFCURVE",
"177 364 QCURVE SMOOTH",
"132 364 OFFCURVE",
"75 307 OFFCURVE",
"53 253 QCURVE",
"102 229 LINE",
"116 258 OFFCURVE",
"152 290 OFFCURVE",
"178 290 QCURVE SMOOTH",
"199 290 OFFCURVE",
"241 273 OFFCURVE",
"284 252 OFFCURVE",
"328 235 OFFCURVE",
"351 235 QCURVE SMOOTH",
"392 235 OFFCURVE",
"449 296 OFFCURVE",
"469 347 QCURVE"
);
}
);
width = 523;
}
);
unicode = 007E;
},
{
glyphname = exclamdown;
layers = (
{
layerId = "6D82140E-0966-4184-BBA2-B1F9A77F6692";
paths = (
{
closed = 1;
nodes = (
"278 -179 LINE",
"278 -94 LINE",
"220 293 LINE",
"120 293 LINE",
"62 -94 LINE",
"62 -179 LINE"
);
},
{
closed = 1;
nodes = (
"278 485 OFFCURVE",
"216 534 OFFCURVE",
"171 534 QCURVE SMOOTH",
"126 534 OFFCURVE",
"63 485 OFFCURVE",
"63 437 QCURVE SMOOTH",
"63 389 OFFCURVE",
"126 341 OFFCURVE",
"171 341 QCURVE SMOOTH",
"216 341 OFFCURVE",
"278 389 OFFCURVE",
"278 437 QCURVE SMOOTH"
);
}
);
width = 341;
},
{
layerId = "8ED872FE-1BCA-4686-B4C5-0573B67FF490";
paths = (
{
closed = 1;
nodes = (
"208 -179 LINE",
"204 -60 LINE",
"181 319 LINE",
"118 319 LINE",
"95 -60 LINE",
"90 -179 LINE"
);
},
{
closed = 1;
nodes = (
"217 501 OFFCURVE",
"176 535 OFFCURVE",
"149 535 QCURVE SMOOTH",
"121 535 OFFCURVE",
"81 501 OFFCURVE",
"81 470 QCURVE SMOOTH",
"81 441 OFFCURVE",
"121 405 OFFCURVE",
"149 405 QCURVE SMOOTH",
"176 405 OFFCURVE",
"217 441 OFFCURVE",
"217 470 QCURVE SMOOTH"
);
}
);
width = 299;
},
{
layerId = "4375AB62-CFBC-411E-9D12-25ECC6BFDF4C";
paths = (
{
closed = 1;
nodes = (
"194 -179 LINE",
"189 -53 LINE",
"173 324 LINE",
"118 324 LINE",
"102 -53 LINE",
"96 -179 LINE"
);
},
{
closed = 1;
nodes = (
"205 504 OFFCURVE",
"168 535 OFFCURVE",
"145 535 QCURVE SMOOTH",
"120 535 OFFCURVE",
"85 504 OFFCURVE",
"85 477 QCURVE SMOOTH",
"85 452 OFFCURVE",
"120 418 OFFCURVE",
"145 418 QCURVE SMOOTH",
"168 418 OFFCURVE",
"205 452 OFFCURVE",
"205 477 QCURVE SMOOTH"
);
}
);
width = 291;
}
);
unicode = 00A1;
},
{
glyphname = cent;
layers = (
{
layerId = "6D82140E-0966-4184-BBA2-B1F9A77F6692";
paths = (
{
closed = 1;
nodes = (
"253 238 LINE",
"226 255 OFFCURVE",
"197 315 OFFCURVE",
"197 355 QCURVE SMOOTH",
"197 410 OFFCURVE",
"252 484 OFFCURVE",
"298 491 QCURVE"
);
},
{
closed = 1;
nodes = (
"464 603 LINE",
"455 608 OFFCURVE",
"437 616 OFFCURVE",
"428 619 QCURVE",
"443 706 LINE",
"328 706 LINE",
"316 636 LINE",
"253 636 OFFCURVE",
"149 592 OFFCURVE",
"74 516 OFFCURVE",
"32 414 OFFCURVE",
"32 355 QCURVE SMOOTH",
"32 309 OFFCURVE",
"59 226 OFFCURVE",
"109 157 OFFCURVE",
"177 106 OFFCURVE",
"219 92 QCURVE",
"202 -6 LINE",
"317 -6 LINE",
"331 75 LINE",
"371 77 OFFCURVE",
"439 95 OFFCURVE",
"468 112 QCURVE",
"468 278 LINE",
"448 255 OFFCURVE",
"385 221 OFFCURVE",
"345 221 QCURVE",
"393 487 LINE",
"410 483 OFFCURVE",
"447 459 OFFCURVE",
"464 438 QCURVE"
);
}
);
width = 500;
},
{
layerId = "8ED872FE-1BCA-4686-B4C5-0573B67FF490";
paths = (
{
closed = 1;
nodes = (
"230 207 LINE",
"182 231 OFFCURVE",
"130 310 OFFCURVE",
"130 372 QCURVE SMOOTH",
"130 448 OFFCURVE",
"204 535 OFFCURVE",
"270 540 QCURVE"
);
},
{
closed = 1;
nodes = (
"447 574 LINE",
"423 592 OFFCURVE",
"375 614 OFFCURVE",
"351 619 QCURVE",
"360 705 LINE",
"288 705 LINE",
"279 626 LINE",
"224 623 OFFCURVE",
"134 583 OFFCURVE",
"70 515 OFFCURVE",
"35 423 OFFCURVE",
"35 368 QCURVE SMOOTH",
"35 325 OFFCURVE",
"61 247 OFFCURVE",
"109 183 OFFCURVE",
"176 136 OFFCURVE",
"217 125 QCURVE",
"205 29 LINE",
"278 29 LINE",
"289 114 LINE",
"340 115 OFFCURVE",
"417 145 OFFCURVE",
"446 172 QCURVE",
"446 270 LINE",
"417 239 OFFCURVE",
"340 197 OFFCURVE",
"296 197 QCURVE",
"336 535 LINE",
"371 531 OFFCURVE",
"430 497 OFFCURVE",
"447 477 QCURVE"
);
}
);
width = 490;
},
{
layerId = "4375AB62-CFBC-411E-9D12-25ECC6BFDF4C";
paths = (
{
closed = 1;
nodes = (
"225 201 LINE",
"174 226 OFFCURVE",
"116 309 OFFCURVE",
"116 375 QCURVE SMOOTH",
"116 456 OFFCURVE",
"195 545 OFFCURVE",
"264 550 QCURVE"
);
},
{
closed = 1;
nodes = (
"443 568 LINE",
"417 588 OFFCURVE",
"362 614 OFFCURVE",
"335 619 QCURVE",
"343 705 LINE",
"280 705 LINE",
"271 624 LINE",
"218 621 OFFCURVE",
"131 581 OFFCURVE",
"69 515 OFFCURVE",
"35 425 OFFCURVE",
"35 371 QCURVE SMOOTH",
"35 328 OFFCURVE",
"61 251 OFFCURVE",
"109 188 OFFCURVE",
"176 142 OFFCURVE",
"217 131 QCURVE",
"205 36 LINE",
"270 36 LINE",
"281 122 LINE",
"333 122 OFFCURVE",
"412 155 OFFCURVE",
"442 184 QCURVE",
"442 268 LINE",
"411 236 OFFCURVE",
"331 192 OFFCURVE",
"286 192 QCURVE",
"325 544 LINE",
"363 540 OFFCURVE",
"426 505 OFFCURVE",
"443 485 QCURVE"
);
}
);
width = 488;
}
);
unicode = 00A2;
},
{
glyphname = sterling;
layers = (
{
layerId = "6D82140E-0966-4184-BBA2-B1F9A77F6692";
paths = (
{
closed = 1;
nodes = (
"509 399 LINE",
"293 399 LINE",
"293 450 LINE SMOOTH",
"293 471 OFFCURVE",
"304 504 OFFCURVE",
"325 527 OFFCURVE",
"354 539 OFFCURVE",
"373 539 QCURVE SMOOTH",
"397 539 OFFCURVE",
"441 518 OFFCURVE",
"464 494 QCURVE",
"593 611 LINE",
"554 656 OFFCURVE",
"442 712 OFFCURVE",
"360 712 QCURVE SMOOTH",
"298 712 OFFCURVE",
"201 675 OFFCURVE",
"135 607 OFFCURVE",
"100 510 OFFCURVE",
"100 450 QCURVE SMOOTH",
"100 399 LINE",
"25 399 LINE",
"25 263 LINE",
"100 263 LINE",
"100 0 LINE",
"586 0 LINE",
"586 153 LINE",
"293 153 LINE",
"293 263 LINE",
"509 263 LINE"
);
}
);
width = 598;
},
{
layerId = "8ED872FE-1BCA-4686-B4C5-0573B67FF490";
paths = (
{
closed = 1;
nodes = (
"445 377 LINE",
"201 377 LINE",
"201 471 LINE SMOOTH",
"201 502 OFFCURVE",
"215 557 OFFCURVE",
"246 599 OFFCURVE",
"294 623 OFFCURVE",
"328 623 QCURVE SMOOTH",
"377 623 OFFCURVE",
"438 586 OFFCURVE",
"464 554 QCURVE",
"532 619 LINE",
"496 664 OFFCURVE",
"397 716 OFFCURVE",
"328 716 QCURVE SMOOTH",
"273 716 OFFCURVE",
"186 680 OFFCURVE",
"128 615 OFFCURVE",
"97 525 OFFCURVE",
"97 472 QCURVE SMOOTH",
"97 377 LINE",
"29 377 LINE",
"29 298 LINE",
"97 298 LINE",
"97 0 LINE",
"524 0 LINE",
"524 86 LINE",
"201 86 LINE",
"201 298 LINE",
"445 298 LINE"
);
}
);
width = 552;
},
{
layerId = "4375AB62-CFBC-411E-9D12-25ECC6BFDF4C";
paths = (
{
closed = 1;
nodes = (
"426 373 LINE",
"182 373 LINE",
"182 475 LINE SMOOTH",
"182 508 OFFCURVE",
"197 568 OFFCURVE",
"230 613 OFFCURVE",
"282 640 OFFCURVE",
"319 640 QCURVE SMOOTH",
"373 640 OFFCURVE",
"437 600 OFFCURVE",
"464 566 QCURVE",
"520 620 LINE",
"485 665 OFFCURVE",
"387 717 OFFCURVE",
"321 717 QCURVE SMOOTH",
"267 717 OFFCURVE",
"183 681 OFFCURVE",
"126 616 OFFCURVE",
"96 528 OFFCURVE",
"96 476 QCURVE SMOOTH",
"96 373 LINE",
"30 373 LINE",
"30 305 LINE",
"96 305 LINE",
"96 0 LINE",
"512 0 LINE",
"512 73 LINE",
"182 73 LINE",
"182 292 LINE",
"432 305 LINE"
);
}
);
width = 543;
}
);
unicode = 00A3;
},
{
glyphname = currency;
layers = (
{
layerId = "6D82140E-0966-4184-BBA2-B1F9A77F6692";
paths = (
{
closed = 1;
nodes = (
"593 639 LINE",
"502 550 LINE",
"472 569 OFFCURVE",
"401 589 OFFCURVE",
"361 589 QCURVE SMOOTH",
"319 589 OFFCURVE",
"252 569 OFFCURVE",
"219 549 QCURVE",
"125 639 LINE",
"47 560 LINE",
"138 469 LINE",
"116 437 OFFCURVE",
"98 365 OFFCURVE",
"98 329 QCURVE SMOOTH",
"98 290 OFFCURVE",
"120 218 OFFCURVE",
"140 188 QCURVE",
"47 94 LINE",
"125 15 LINE",
"222 109 LINE",
"255 89 OFFCURVE",
"323 69 OFFCURVE",
"361 69 QCURVE SMOOTH",
"400 69 OFFCURVE",
"469 90 OFFCURVE",
"500 108 QCURVE",
"594 15 LINE",
"673 94 LINE",
"582 185 LINE",
"603 217 OFFCURVE",
"624 287 OFFCURVE",
"624 329 QCURVE SMOOTH",
"624 371 OFFCURVE",
"603 438 OFFCURVE",
"583 470 QCURVE",
"673 560 LINE"
);
},
{
closed = 1;
nodes = (
"392 474 OFFCURVE",
"443 451 OFFCURVE",
"479 412 OFFCURVE",
"499 359 OFFCURVE",
"499 329 QCURVE SMOOTH",
"499 299 OFFCURVE",
"479 246 OFFCURVE",
"443 207 OFFCURVE",
"392 184 OFFCURVE",
"361 184 QCURVE SMOOTH",
"330 184 OFFCURVE",
"279 207 OFFCURVE",
"243 246 OFFCURVE",
"223 299 OFFCURVE",
"223 329 QCURVE SMOOTH",
"223 359 OFFCURVE",
"243 412 OFFCURVE",
"279 451 OFFCURVE",
"330 474 OFFCURVE",
"361 474 QCURVE SMOOTH"
);
}
);
width = 719;
},
{
layerId = "8ED872FE-1BCA-4686-B4C5-0573B67FF490";
paths = (
{
closed = 1;
nodes = (
"595 627 LINE",
"501 534 LINE",
"469 558 OFFCURVE",
"393 583 OFFCURVE",
"349 583 QCURVE SMOOTH",
"307 583 OFFCURVE",
"230 559 OFFCURVE",
"196 533 QCURVE",
"101 627 LINE",
"47 572 LINE",
"141 479 LINE",
"115 443 OFFCURVE",
"94 374 OFFCURVE",
"94 328 QCURVE SMOOTH",
"94 281 OFFCURVE",
"118 208 OFFCURVE",
"143 176 QCURVE",
"47 80 LINE",
"101 25 LINE",
"199 121 LINE",
"234 97 OFFCURVE",
"307 73 OFFCURVE",
"349 73 QCURVE SMOOTH",
"391 73 OFFCURVE",
"465 97 OFFCURVE",
"500 120 QCURVE",
"596 25 LINE",
"651 80 LINE",
"556 173 LINE",
"580 207 OFFCURVE",
"607 283 OFFCURVE",
"607 328 QCURVE SMOOTH",
"607 373 OFFCURVE",
"581 445 OFFCURVE",
"558 481 QCURVE",
"651 572 LINE"
);
},
{
closed = 1;
nodes = (
"387 502 OFFCURVE",
"448 475 OFFCURVE",
"493 429 OFFCURVE",
"517 365 OFFCURVE",
"517 327 QCURVE SMOOTH",
"517 291 OFFCURVE",
"493 229 OFFCURVE",
"448 182 OFFCURVE",
"387 155 OFFCURVE",
"349 155 QCURVE SMOOTH",
"312 155 OFFCURVE",
"250 182 OFFCURVE",
"205 229 OFFCURVE",
"181 292 OFFCURVE",
"181 328 QCURVE SMOOTH",
"181 364 OFFCURVE",
"205 427 OFFCURVE",
"250 475 OFFCURVE",
"312 502 OFFCURVE",
"349 502 QCURVE SMOOTH"
);
}
);
width = 697;
},
{
layerId = "4375AB62-CFBC-411E-9D12-25ECC6BFDF4C";
paths = (
{
closed = 1;
nodes = (
"595 624 LINE",
"501 531 LINE",
"469 556 OFFCURVE",
"392 582 OFFCURVE",
"347 582 QCURVE SMOOTH",
"305 582 OFFCURVE",
"225 556 OFFCURVE",
"191 530 QCURVE",
"96 624 LINE",
"47 574 LINE",
"141 481 LINE",
"115 444 OFFCURVE",
"93 376 OFFCURVE",
"93 328 QCURVE SMOOTH",
"93 280 OFFCURVE",
"118 206 OFFCURVE",
"144 174 QCURVE",
"47 77 LINE",
"96 27 LINE",
"194 123 LINE",
"229 98 OFFCURVE",
"305 74 OFFCURVE",
"347 74 QCURVE SMOOTH",
"389 74 OFFCURVE",
"465 98 OFFCURVE",
"500 122 QCURVE",
"596 27 LINE",
"646 77 LINE",
"551 171 LINE",
"576 205 OFFCURVE",
"603 282 OFFCURVE",
"603 328 QCURVE SMOOTH",
"603 374 OFFCURVE",
"577 446 OFFCURVE",
"553 483 QCURVE",
"646 574 LINE"
);
},
{
closed = 1;
nodes = (
"386 507 OFFCURVE",
"449 480 OFFCURVE",
"495 432 OFFCURVE",
"520 366 OFFCURVE",
"520 327 QCURVE SMOOTH",
"520 290 OFFCURVE",
"495 225 OFFCURVE",
"449 177 OFFCURVE",
"386 149 OFFCURVE",
"347 149 QCURVE SMOOTH",
"309 149 OFFCURVE",
"244 177 OFFCURVE",
"198 226 OFFCURVE",
"173 291 OFFCURVE",
"173 328 QCURVE SMOOTH",
"173 365 OFFCURVE",
"198 430 OFFCURVE",
"244 479 OFFCURVE",
"308 507 OFFCURVE",
"347 507 QCURVE SMOOTH"
);
}
);
width = 693;
}
);
unicode = 00A4;
},
{
glyphname = yen;
layers = (
{
layerId = "6D82140E-0966-4184-BBA2-B1F9A77F6692";
paths = (
{
closed = 1;
nodes = (
"63 213 LINE",
"63 93 LINE",
"247 93 LINE",
"247 0 LINE",
"439 0 LINE",
"439 93 LINE",
"623 93 LINE",
"623 213 LINE",
"439 213 LINE",
"449 263 LINE",
"623 263 LINE",
"623 383 LINE",
"484 383 LINE",
"693 700 LINE",
"477 700 LINE",
"345 470 LINE",
"213 700 LINE",
"-7 700 LINE",
"201 383 LINE",
"63 383 LINE",
"63 263 LINE",
"237 263 LINE",
"247 213 LINE"
);
}
);
width = 687;
},
{
layerId = "8ED872FE-1BCA-4686-B4C5-0573B67FF490";
paths = (
{
closed = 1;
nodes = (
"69 213 LINE",
"69 137 LINE",
"254 137 LINE",
"254 0 LINE",
"353 0 LINE",
"353 137 LINE",
"537 137 LINE",
"537 213 LINE",
"355 213 LINE",
"362 296 LINE",
"537 296 LINE",
"537 372 LINE",
"394 372 LINE",
"607 704 LINE",
"492 704 LINE",
"306 388 LINE",
"118 704 LINE",
"0 704 LINE",
"213 372 LINE",
"69 372 LINE",
"69 296 LINE",
"245 296 LINE",
"255 213 LINE"
);
}
);
width = 606;
},
{
layerId = "4375AB62-CFBC-411E-9D12-25ECC6BFDF4C";
paths = (
{
closed = 1;
nodes = (
"70 213 LINE",
"70 146 LINE",
"255 146 LINE",
"255 0 LINE",
"336 0 LINE",
"336 146 LINE",
"520 146 LINE",
"520 213 LINE",
"338 213 LINE",
"344 303 LINE",
"520 303 LINE",
"520 370 LINE",
"376 370 LINE",
"590 705 LINE",
"495 705 LINE",
"298 372 LINE",
"99 705 LINE",
"1 705 LINE",
"215 370 LINE",
"70 370 LINE",
"70 303 LINE",
"246 303 LINE",
"256 213 LINE"
);
}
);
width = 590;
}
);
unicode = 00A5;
},
{
glyphname = brokenbar;
layers = (
{
layerId = "6D82140E-0966-4184-BBA2-B1F9A77F6692";
paths = (
{
closed = 1;
nodes = (
"270 667 LINE",
"270 321 LINE",
"437 321 LINE",
"437 667 LINE"
);
},
{
closed = 1;
nodes = (
"270 174 LINE",
"270 -173 LINE",
"437 -173 LINE",
"437 173 LINE"
);
}
);
width = 707;
},
{
layerId = "8ED872FE-1BCA-4686-B4C5-0573B67FF490";
paths = (
{
closed = 1;
nodes = (
"253 679 LINE",
"253 327 LINE",
"344 327 LINE",
"344 679 LINE"
);
},
{
closed = 1;
nodes = (
"253 173 LINE",
"253 -174 LINE",
"344 -174 LINE",
"344 173 LINE"
);
}
);
width = 595;
},
{
layerId = "4375AB62-CFBC-411E-9D12-25ECC6BFDF4C";
paths = (
{
closed = 1;
nodes = (
"249 681 LINE",
"249 328 LINE",
"325 328 LINE",
"325 681 LINE"
);
},
{
closed = 1;
nodes = (
"249 173 LINE",
"249 -174 LINE",
"325 -174 LINE",
"325 173 LINE"
);
}
);
width = 573;
}
);
unicode = 00A6;
},
{
glyphname = section;
layers = (
{
layerId = "6D82140E-0966-4184-BBA2-B1F9A77F6692";
paths = (
{
closed = 1;
nodes = (
"455 681 LINE",
"420 697 OFFCURVE",
"341 713 OFFCURVE",
"295 713 QCURVE SMOOTH",
"237 713 OFFCURVE",
"151 688 OFFCURVE",
"93 644 OFFCURVE",
"64 585 OFFCURVE",
"64 552 QCURVE SMOOTH",
"64 521 OFFCURVE",
"89 468 OFFCURVE",
"112 451 QCURVE",
"70 437 OFFCURVE",
"20 382 OFFCURVE",
"20 345 QCURVE SMOOTH",
"20 314 OFFCURVE",
"57 266 OFFCURVE",
"119 229 OFFCURVE",
"203 203 OFFCURVE",
"249 194 QCURVE SMOOTH",
"300 183 OFFCURVE",
"345 160 OFFCURVE",
"345 146 QCURVE SMOOTH",
"345 132 OFFCURVE",
"320 116 OFFCURVE",
"291 116 QCURVE SMOOTH",
"251 116 OFFCURVE",
"166 148 OFFCURVE",
"128 175 QCURVE",
"128 18 LINE",
"162 4 OFFCURVE",
"243 -13 OFFCURVE",
"288 -13 QCURVE SMOOTH",
"346 -13 OFFCURVE",
"432 13 OFFCURVE",
"489 57 OFFCURVE",
"518 116 OFFCURVE",
"518 149 QCURVE SMOOTH",
"518 180 OFFCURVE",
"493 232 OFFCURVE",
"471 249 QCURVE",
"511 263 OFFCURVE",
"562 317 OFFCURVE",
"562 355 QCURVE SMOOTH",
"562 388 OFFCURVE",
"526 435 OFFCURVE",
"463 470 OFFCURVE",
"381 495 OFFCURVE",
"334 506 QCURVE SMOOTH",
"307 512 OFFCURVE",
"271 523 OFFCURVE",
"248 535 OFFCURVE",
"238 547 OFFCURVE",
"238 554 QCURVE SMOOTH",
"238 568 OFFCURVE",
"263 584 OFFCURVE",
"291 584 QCURVE SMOOTH",
"333 584 OFFCURVE",
"417 552 OFFCURVE",
"455 525 QCURVE"
);
},
{
closed = 1;
nodes = (
"416 317 OFFCURVE",
"388 297 OFFCURVE",
"365 297 QCURVE SMOOTH",
"347 297 OFFCURVE",
"280 306 OFFCURVE",
"214 324 OFFCURVE",
"166 352 OFFCURVE",
"166 371 QCURVE SMOOTH",
"166 387 OFFCURVE",
"194 403 OFFCURVE",
"217 403 QCURVE SMOOTH",
"236 403 OFFCURVE",
"303 392 OFFCURVE",
"368 373 OFFCURVE",
"416 347 OFFCURVE",
"416 332 QCURVE SMOOTH"
);
}
);
width = 594;
},
{
layerId = "8ED872FE-1BCA-4686-B4C5-0573B67FF490";
paths = (
{
closed = 1;
nodes = (
"434 670 LINE",
"403 693 OFFCURVE",
"322 721 OFFCURVE",
"273 721 QCURVE SMOOTH",
"231 721 OFFCURVE",
"161 700 OFFCURVE",
"110 663 OFFCURVE",
"82 611 OFFCURVE",
"82 579 QCURVE SMOOTH",
"82 541 OFFCURVE",
"123 482 OFFCURVE",
"151 462 QCURVE",
"94 448 OFFCURVE",
"33 385 OFFCURVE",
"33 336 QCURVE SMOOTH",
"33 310 OFFCURVE",
"54 265 OFFCURVE",
"99 226 OFFCURVE",
"171 192 OFFCURVE",
"222 177 QCURVE SMOOTH",
"294 155 OFFCURVE",
"369 106 OFFCURVE",
"369 74 QCURVE SMOOTH",
"369 39 OFFCURVE",
"320 4 OFFCURVE",
"275 4 QCURVE SMOOTH",
"227 4 OFFCURVE",
"141 39 OFFCURVE",
"106 75 QCURVE",
"106 -18 LINE",
"139 -44 OFFCURVE",
"222 -74 OFFCURVE",
"274 -74 QCURVE SMOOTH",
"317 -74 OFFCURVE",
"388 -52 OFFCURVE",
"438 -12 OFFCURVE",
"466 44 OFFCURVE",
"466 77 QCURVE SMOOTH",
"466 110 OFFCURVE",
"432 166 OFFCURVE",
"399 191 QCURVE",
"454 206 OFFCURVE",
"515 266 OFFCURVE",
"515 317 QCURVE SMOOTH",
"515 342 OFFCURVE",
"497 384 OFFCURVE",
"453 422 OFFCURVE",
"379 458 OFFCURVE",
"322 476 QCURVE SMOOTH",
"281 490 OFFCURVE",
"226 516 OFFCURVE",
"193 542 OFFCURVE",
"180 566 OFFCURVE",
"180 578 QCURVE SMOOTH",
"180 610 OFFCURVE",
"233 642 OFFCURVE",
"278 642 QCURVE SMOOTH",
"323 642 OFFCURVE",
"396 609 OFFCURVE",
"434 578 QCURVE"
);
},
{
closed = 1;
nodes = (
"427 267 OFFCURVE",
"379 231 OFFCURVE",
"337 231 QCURVE",
"293 237 OFFCURVE",
"214 259 OFFCURVE",
"155 289 OFFCURVE",
"121 327 OFFCURVE",
"121 349 QCURVE SMOOTH",
"121 381 OFFCURVE",
"172 416 OFFCURVE",
"214 421 QCURVE",
"236 417 OFFCURVE",
"308 397 OFFCURVE",
"377 366 OFFCURVE",
"427 322 OFFCURVE",
"427 295 QCURVE SMOOTH"
);
}
);
width = 562;
},
{
layerId = "4375AB62-CFBC-411E-9D12-25ECC6BFDF4C";
paths = (
{
closed = 1;
nodes = (
"430 668 LINE",
"400 693 OFFCURVE",
"318 722 OFFCURVE",
"269 722 QCURVE SMOOTH",
"230 722 OFFCURVE",
"164 702 OFFCURVE",
"114 666 OFFCURVE",
"86 615 OFFCURVE",
"86 584 QCURVE SMOOTH",
"86 544 OFFCURVE",
"130 484 OFFCURVE",
"159 464 QCURVE",
"98 450 OFFCURVE",
"35 385 OFFCURVE",
"35 334 QCURVE SMOOTH",
"35 309 OFFCURVE",
"53 265 OFFCURVE",
"95 225 OFFCURVE",
"165 189 OFFCURVE",
"217 173 QCURVE SMOOTH",
"292 150 OFFCURVE",
"374 94 OFFCURVE",
"374 59 QCURVE SMOOTH",
"374 21 OFFCURVE",
"320 -18 OFFCURVE",
"272 -18 QCURVE SMOOTH",
"223 -18 OFFCURVE",
"136 17 OFFCURVE",
"102 55 QCURVE",
"102 -25 LINE",
"134 -53 OFFCURVE",
"217 -86 OFFCURVE",
"271 -86 QCURVE SMOOTH",
"311 -86 OFFCURVE",
"379 -65 OFFCURVE",
"428 -26 OFFCURVE",
"456 29 OFFCURVE",
"456 62 QCURVE SMOOTH",
"456 96 OFFCURVE",
"420 153 OFFCURVE",
"385 179 QCURVE",
"443 194 OFFCURVE",
"506 255 OFFCURVE",
"506 309 QCURVE SMOOTH",
"506 333 OFFCURVE",
"492 374 OFFCURVE",
"451 413 OFFCURVE",
"378 450 OFFCURVE",
"319 470 QCURVE SMOOTH",
"275 485 OFFCURVE",
"217 515 OFFCURVE",
"182 543 OFFCURVE",
"168 570 OFFCURVE",
"168 583 QCURVE SMOOTH",
"168 619 OFFCURVE",
"227 654 OFFCURVE",
"275 654 QCURVE SMOOTH",
"321 654 OFFCURVE",
"392 620 OFFCURVE",
"430 588 QCURVE"
);
},
{
closed = 1;
nodes = (
"429 257 OFFCURVE",
"376 218 OFFCURVE",
"331 218 QCURVE",
"282 225 OFFCURVE",
"201 249 OFFCURVE",
"144 282 OFFCURVE",
"112 322 OFFCURVE",
"112 345 QCURVE SMOOTH",
"112 380 OFFCURVE",
"168 419 OFFCURVE",
"213 424 QCURVE",
"236 420 OFFCURVE",
"309 399 OFFCURVE",
"379 364 OFFCURVE",
"429 317 OFFCURVE",
"429 287 QCURVE SMOOTH"
);
}
);
width = 556;
}
);
unicode = 00A7;
},
{
glyphname = dieresis;
layers = (
{
layerId = "6D82140E-0966-4184-BBA2-B1F9A77F6692";
paths = (
{
closed = 1;
nodes = (
"-4 673 OFFCURVE",
"47 629 OFFCURVE",
"84 629 QCURVE SMOOTH",
"121 629 OFFCURVE",
"172 673 OFFCURVE",
"172 715 QCURVE SMOOTH",
"172 757 OFFCURVE",
"121 800 OFFCURVE",
"84 800 QCURVE SMOOTH",
"47 800 OFFCURVE",
"-4 757 OFFCURVE",
"-4 715 QCURVE SMOOTH"
);
},
{
closed = 1;
nodes = (
"222 673 OFFCURVE",
"273 629 OFFCURVE",
"310 629 QCURVE SMOOTH",
"347 629 OFFCURVE",
"398 673 OFFCURVE",
"398 715 QCURVE SMOOTH",
"398 757 OFFCURVE",
"347 800 OFFCURVE",
"310 800 QCURVE SMOOTH",
"273 800 OFFCURVE",
"222 757 OFFCURVE",
"222 715 QCURVE SMOOTH"
);
}
);
width = 394;
},
{
layerId = "8ED872FE-1BCA-4686-B4C5-0573B67FF490";
paths = (
{
closed = 1;
nodes = (
"24 662 OFFCURVE",
"60 627 OFFCURVE",
"88 627 QCURVE SMOOTH",
"114 627 OFFCURVE",
"153 662 OFFCURVE",
"153 690 QCURVE SMOOTH",
"153 717 OFFCURVE",
"114 753 OFFCURVE",
"88 753 QCURVE SMOOTH",
"60 753 OFFCURVE",
"24 717 OFFCURVE",
"24 690 QCURVE SMOOTH"
);
},
{
closed = 1;
nodes = (
"222 662 OFFCURVE",
"258 627 OFFCURVE",
"284 627 QCURVE SMOOTH",
"313 627 OFFCURVE",
"348 662 OFFCURVE",
"348 690 QCURVE SMOOTH",
"348 717 OFFCURVE",
"313 753 OFFCURVE",
"284 753 QCURVE SMOOTH",
"258 753 OFFCURVE",
"222 717 OFFCURVE",
"222 690 QCURVE SMOOTH"
);
}
);
width = 372;
},
{
layerId = "4375AB62-CFBC-411E-9D12-25ECC6BFDF4C";
paths = (
{
closed = 1;
nodes = (
"30 660 OFFCURVE",
"63 626 OFFCURVE",
"89 626 QCURVE SMOOTH",
"113 626 OFFCURVE",
"149 660 OFFCURVE",
"149 685 QCURVE SMOOTH",
"149 709 OFFCURVE",
"113 744 OFFCURVE",
"89 744 QCURVE SMOOTH",
"63 744 OFFCURVE",
"30 709 OFFCURVE",
"30 686 QCURVE SMOOTH"
);
},
{
closed = 1;
nodes = (
"222 660 OFFCURVE",
"255 626 OFFCURVE",
"279 626 QCURVE SMOOTH",
"305 626 OFFCURVE",
"338 660 OFFCURVE",
"338 685 QCURVE SMOOTH",
"338 709 OFFCURVE",
"306 744 OFFCURVE",
"279 744 QCURVE SMOOTH",
"255 744 OFFCURVE",
"222 709 OFFCURVE",
"222 686 QCURVE SMOOTH"
);
}
);
width = 368;
}
);
unicode = 00A8;
},
{
glyphname = copyright;
layers = (
{
layerId = "6D82140E-0966-4184-BBA2-B1F9A77F6692";
paths = (
{
closed = 1;
nodes = (
"461 -14 OFFCURVE",
"593 45 OFFCURVE",
"691 146 OFFCURVE",
"747 279 OFFCURVE",
"747 353 QCURVE SMOOTH",
"747 427 OFFCURVE",
"691 558 OFFCURVE",
"594 656 OFFCURVE",
"462 714 OFFCURVE",
"386 714 QCURVE SMOOTH",
"310 714 OFFCURVE",
"177 656 OFFCURVE",
"79 556 OFFCURVE",
"23 425 OFFCURVE",
"23 351 QCURVE SMOOTH",
"23 277 OFFCURVE",
"79 144 OFFCURVE",
"176 44 OFFCURVE",
"308 -14 OFFCURVE",
"384 -14 QCURVE SMOOTH"
);
},
{
closed = 1;
nodes = (
"316 26 OFFCURVE",
"199 78 OFFCURVE",
"114 166 OFFCURVE",
"65 284 OFFCURVE",
"65 351 QCURVE SMOOTH",
"65 417 OFFCURVE",
"114 534 OFFCURVE",
"200 623 OFFCURVE",
"317 674 OFFCURVE",
"386 674 QCURVE SMOOTH",
"454 674 OFFCURVE",
"571 623 OFFCURVE",
"657 536 OFFCURVE",
"705 419 OFFCURVE",
"705 353 QCURVE SMOOTH",
"705 286 OFFCURVE",
"656 167 OFFCURVE",
"570 78 OFFCURVE",
"453 26 OFFCURVE",
"384 26 QCURVE SMOOTH"
);
},
{
closed = 1;
nodes = (
"497 304 LINE",
"481 290 OFFCURVE",
"436 268 OFFCURVE",
"407 268 QCURVE SMOOTH",
"390 268 OFFCURVE",
"358 281 OFFCURVE",
"334 305 OFFCURVE",
"320 337 OFFCURVE",
"320 355 QCURVE SMOOTH",
"320 373 OFFCURVE",
"334 404 OFFCURVE",
"358 428 OFFCURVE",
"391 441 OFFCURVE",
"410 441 QCURVE SMOOTH",
"436 441 OFFCURVE",
"478 419 OFFCURVE",
"494 405 QCURVE",
"494 534 LINE",
"475 544 OFFCURVE",
"430 554 OFFCURVE",
"405 554 QCURVE SMOOTH",
"360 554 OFFCURVE",
"281 522 OFFCURVE",
"222 467 OFFCURVE",
"189 395 OFFCURVE",
"189 355 QCURVE SMOOTH",
"189 315 OFFCURVE",
"223 242 OFFCURVE",
"280 187 OFFCURVE",
"356 155 OFFCURVE",
"399 155 QCURVE SMOOTH",
"430 155 OFFCURVE",
"479 170 OFFCURVE",
"497 178 QCURVE"
);
}
);
width = 769;
},
{
layerId = "8ED872FE-1BCA-4686-B4C5-0573B67FF490";
paths = (
{
closed = 1;
nodes = (
"501 -32 OFFCURVE",
"642 29 OFFCURVE",
"746 134 OFFCURVE",
"806 276 OFFCURVE",
"806 357 QCURVE SMOOTH",
"806 438 OFFCURVE",
"745 580 OFFCURVE",
"640 686 OFFCURVE",
"500 747 OFFCURVE",
"420 747 QCURVE SMOOTH",
"341 747 OFFCURVE",
"201 685 OFFCURVE",
"96 579 OFFCURVE",
"35 439 OFFCURVE",
"35 360 QCURVE SMOOTH",
"35 279 OFFCURVE",
"95 136 OFFCURVE",
"199 29 OFFCURVE",
"340 -32 OFFCURVE",
"421 -32 QCURVE SMOOTH"
);
},
{
closed = 1;
nodes = (
"353 32 OFFCURVE",
"235 84 OFFCURVE",
"147 172 OFFCURVE",
"96 292 OFFCURVE",
"96 359 QCURVE SMOOTH",
"96 426 OFFCURVE",
"147 543 OFFCURVE",
"235 631 OFFCURVE",
"354 682 OFFCURVE",
"421 682 QCURVE SMOOTH",
"489 682 OFFCURVE",
"607 631 OFFCURVE",
"694 543 OFFCURVE",
"745 425 OFFCURVE",
"745 357 QCURVE SMOOTH",
"745 290 OFFCURVE",
"694 171 OFFCURVE",
"606 83 OFFCURVE",
"488 32 OFFCURVE",
"421 32 QCURVE SMOOTH"
);
},
{
closed = 1;
nodes = (
"549 266 LINE",
"517 237 OFFCURVE",
"457 216 OFFCURVE",
"431 216 QCURVE SMOOTH",
"401 216 OFFCURVE",
"351 239 OFFCURVE",
"317 279 OFFCURVE",
"298 333 OFFCURVE",
"298 364 QCURVE SMOOTH",
"298 395 OFFCURVE",
"318 448 OFFCURVE",
"353 487 OFFCURVE",
"401 509 OFFCURVE",
"429 509 QCURVE SMOOTH",
"463 509 OFFCURVE",
"527 481 OFFCURVE",
"550 458 QCURVE",
"550 547 LINE",
"530 561 OFFCURVE",
"465 587 OFFCURVE",
"423 587 QCURVE SMOOTH",
"375 587 OFFCURVE",
"295 553 OFFCURVE",
"238 493 OFFCURVE",
"207 411 OFFCURVE",
"207 364 QCURVE SMOOTH",
"207 316 OFFCURVE",
"239 233 OFFCURVE",
"296 172 OFFCURVE",
"374 137 OFFCURVE",
"421 137 QCURVE SMOOTH",
"461 137 OFFCURVE",
"523 162 OFFCURVE",
"549 183 QCURVE"
);
}
);
width = 840;
},
{
layerId = "4375AB62-CFBC-411E-9D12-25ECC6BFDF4C";
paths = (
{
closed = 1;
nodes = (
"509 -36 OFFCURVE",
"651 25 OFFCURVE",
"757 132 OFFCURVE",
"818 276 OFFCURVE",
"818 358 QCURVE SMOOTH",
"818 440 OFFCURVE",
"756 584 OFFCURVE",
"650 691 OFFCURVE",
"507 753 OFFCURVE",
"427 753 QCURVE SMOOTH",
"347 753 OFFCURVE",
"205 691 OFFCURVE",
"99 584 OFFCURVE",
"37 442 OFFCURVE",
"37 362 QCURVE SMOOTH",
"37 279 OFFCURVE",
"97 134 OFFCURVE",
"203 26 OFFCURVE",
"346 -36 OFFCURVE",
"428 -36 QCURVE SMOOTH"
);
},
{
closed = 1;
nodes = (
"360 33 OFFCURVE",
"241 85 OFFCURVE",
"153 173 OFFCURVE",
"102 293 OFFCURVE",
"102 360 QCURVE SMOOTH",
"102 427 OFFCURVE",
"153 545 OFFCURVE",
"242 633 OFFCURVE",
"361 684 OFFCURVE",
"428 684 QCURVE SMOOTH",
"495 684 OFFCURVE",
"613 633 OFFCURVE",
"702 544 OFFCURVE",
"753 426 OFFCURVE",
"753 358 QCURVE SMOOTH",
"753 291 OFFCURVE",
"702 172 OFFCURVE",
"613 84 OFFCURVE",
"495 33 OFFCURVE",
"428 33 QCURVE SMOOTH"
);
},
{
closed = 1;
nodes = (
"559 258 LINE",
"524 226 OFFCURVE",
"461 205 OFFCURVE",
"436 205 QCURVE SMOOTH",
"403 205 OFFCURVE",
"350 230 OFFCURVE",
"313 274 OFFCURVE",
"293 332 OFFCURVE",
"293 366 QCURVE SMOOTH",
"293 399 OFFCURVE",
"314 456 OFFCURVE",
"352 498 OFFCURVE",
"403 522 OFFCURVE",
"433 522 QCURVE SMOOTH",
"469 522 OFFCURVE",
"536 493 OFFCURVE",
"561 468 QCURVE",
"561 549 LINE",
"541 565 OFFCURVE",
"472 594 OFFCURVE",
"427 594 QCURVE SMOOTH",
"378 594 OFFCURVE",
"298 559 OFFCURVE",
"242 498 OFFCURVE",
"211 415 OFFCURVE",
"211 366 QCURVE SMOOTH",
"211 317 OFFCURVE",
"242 231 OFFCURVE",
"299 169 OFFCURVE",
"377 133 OFFCURVE",
"425 133 QCURVE SMOOTH",
"467 133 OFFCURVE",
"532 160 OFFCURVE",
"559 184 QCURVE"
);
}
);
width = 854;
}
);
unicode = 00A9;
},
